999
FreeCAD v0.20 29603 (Git)
  0
SECTION
  2
HEADER
  9
$ACADVER
  1
AC1014
  9
$ACADMAINTVER
 70
     9
  9
$DWGCODEPAGE
  3
ANSI_1252
  9
$TEXTSTYLE
  7
STANDARD
  9
$DIMSTYLE
  2
STANDARD
  9
$DIMTXSTY
  7
STANDARD
  9
$CMLSTYLE
  2
STANDARD
  9
$LUNITS
 70
2
  9
$INSUNITS
 70
4
  9
$PEXTMAX
 10
50
 20
50
 30
50
  9
$PEXTMIN
 10
0
 20
0
 30
0
  9
$HANDSEED
  5
FFFF
  0
ENDSEC
  0
SECTION
  2
CLASSES
  0
CLASS
  1
ACDBDICTIONARYWDFLT
  2
AcDbDictionaryWithDefault
  3
ObjectDBX Classes
 90
        0
280
     0
281
     0
  0
CLASS
  1
XRECORD
  2
AcDbXrecord
  3
ObjectDBX Classes
 90
        0
280
     0
281
     0
  0
CLASS
  1
LWPOLYLINE
  2
AcDbPolyline
  3
ObjectDBX Classes
 90
        0
280
     0
281
     1
  0
ENDSEC
  0
SECTION
  2
TABLES
  0
TABLE
  2
VPORT
  5
20
330
0
100
AcDbSymbolTable
 70
     1
  0
VPORT
  5
21
330
20
100
AcDbSymbolTableRecord
100
AcDbViewportTableRecord
  2
*ACTIVE
 70
     0
  0
ENDTAB
  0
TABLE
  2
LTYPE
  5
22
330
0
100
AcDbSymbolTable
 70
     1
  0
LTYPE
  5
23
330
21
100
AcDbSymbolTableRecord
100
AcDbLinetypeTableRecord
  2
BYBLOCK
 70
     0
  3

 72
    65
 73
     0
 40
0.0
  0
LTYPE
  5
24
330
21
100
AcDbSymbolTableRecord
100
AcDbLinetypeTableRecord
  2
BYLAYER
 70
     0
  3

 72
    65
 73
     0
 40
0.0
  0
LTYPE
  5
25
330
21
100
AcDbSymbolTableRecord
100
AcDbLinetypeTableRecord
  2
CONTINUOUS
 70
     0
  3
Solid line
 72
    65
 73
     0
 40
0.0
  0
ENDTAB
  0
TABLE
  2
LAYER
  5
AD6
330
0
100
AcDbSymbolTable
 70
3
  0
LAYER
  5
AD7
330
AD6
100
AcDbSymbolTableRecord
100
AcDbLayerTableRecord
  2
0
 70
   0
 62
   7
  6
CONTINUOUS
  0
LAYER
  5
AD8
330
AD6
100
AcDbSymbolTableRecord
100
AcDbLayerTableRecord
  2
none
 70
    0
 62
    7
  6
CONTINUOUS
  0
LAYER
  5
AD9
330
AD6
100
AcDbSymbolTableRecord
100
AcDbLayerTableRecord
  2
Shape2DView
 70
    0
 62
    7
  6
CONTINUOUS
  0
ENDTAB
  0
TABLE
  2
STYLE
  5
70
330
0
100
AcDbSymbolTable
 70
     2
  0
STYLE
  5
71
330
70
100
AcDbSymbolTableRecord
100
AcDbTextStyleTableRecord
  2
STANDARD
 70
     0
 40
0.0
 41
1.0
 50
0.0
 71
     0
 42
2.5
  3
arial.ttf
  4

  0
STYLE
  5
72
330
70
100
AcDbSymbolTableRecord
100
AcDbTextStyleTableRecord
  2
ANNOTATIVE
 70
     0
 40
0.0
 41
1.0
 50
0.0
 71
     0
 42
2.5
  3
arial.ttf
  4

  0
ENDTAB
  0
TABLE
  2
VIEW
  5
73
330
0
100
AcDbSymbolTable
 70
     0
  0
ENDTAB
  0
TABLE
  2
UCS
  5
74
330
0
100
AcDbSymbolTable
 70
     0
  0
ENDTAB
  0
TABLE
  2
APPID
  5
75
330
0
100
AcDbSymbolTable
 70
     2
  0
APPID
  5
76
330
75
100
AcDbSymbolTableRecord
100
AcDbRegAppTableRecord
  2
ACAD
 70
     0
  0
APPID
  5
77
330
75
100
AcDbSymbolTableRecord
100
AcDbRegAppTableRecord
  2
ACADANNOTATIVE
 70
     0
  0
ENDTAB
  0
TABLE
  2
DIMSTYLE
  5
78
330
0
100
AcDbSymbolTable
 70
     2
  0
DIMSTYLE
105
79
330
78
100
AcDbSymbolTableRecord
100
AcDbDimStyleTableRecord
  2
STANDARD
 70
     0
  3

  4

  5

  6

  7

 40
0.0
 41
2.5
 42
0.625
 43
3.75
 44
1.25
 45
0.0
 46
0.0
 47
0.0
 48
0.0
140
2.5
141
2.5
142
0.0
143
0.03937007874016
144
1.0
145
0.0
146
1.0
147
0.625
 71
     0
 72
     0
 73
     0
 74
     0
 75
     0
 76
     0
 77
     1
 78
     8
170
     0
171
     3
172
     1
173
     0
174
     0
175
     0
176
     0
177
     0
178
     0
270
     2
271
     2
272
     2
273
     2
274
     3
340
71
275
     0
280
     0
281
     0
282
     0
283
     0
284
     8
285
     0
286
     0
287
     3
288
     0
  0
ENDTAB
  0
TABLE
  2
BLOCK_RECORD
  5
A01
330
0
100
AcDbSymbolTable
  70
5
  0
BLOCK_RECORD
  5
A02
330
A01
100
AcDbSymbolTableRecord
100
AcDbBlockTableRecord
  2
*MODEL_SPACE
  0
BLOCK_RECORD
  5
A03
330
A01
100
AcDbSymbolTableRecord
100
AcDbBlockTableRecord
  2
*PAPER_SPACE
  0
ENDTAB
  0
ENDSEC
  0
SECTION
  2
BLOCKS
  0
BLOCK
  5
A04
330
A02
100
AcDbEntity
  8
0
100
AcDbBlockBegin
  2
*MODEL_SPACE
 70
   0
 10
0
 20
0
 30
0
  3
*MODEL_SPACE
  1
 
  0
ENDBLK
  5
A05
330
A02
100
AcDbEntity
  8
0
100
AcDbBlockEnd
  0
BLOCK
  5
A06
330
A03
100
AcDbEntity
 67
1
  8
0
100
AcDbBlockBegin
  2
*PAPER_SPACE
 70
   0
 10
0
 20
0
 30
0
  3
*PAPER_SPACE
  1
 
  0
ENDBLK
  5
A07
330
A03
100
AcDbEntity
 67
    1
  8
0
100
AcDbBlockEnd
  0
ENDSEC
  0
SECTION
  2
ENTITIES
  0
LINE
  5
A08
330
A02
100
AcDbEntity
  8
Shape2DView
100
AcDbLine
 10
-8642.81
 20
-4436.7
 30
0
 11
-8642.81
 21
-4578.23
 31
0
  0
LINE
  5
A09
330
A02
100
AcDbEntity
  8
Shape2DView
100
AcDbLine
 10
-7860.81
 20
-4436.7
 30
0
 11
-8642.81
 21
-4436.7
 31
0
  0
LINE
  5
A0A
330
A02
100
AcDbEntity
  8
Shape2DView
100
AcDbLine
 10
-8642.81
 20
-4578.23
 30
0
 11
9604.14
 21
-4578.23
 31
0
  0
LINE
  5
A0B
330
A02
100
AcDbEntity
  8
Shape2DView
100
AcDbLine
 10
9604.14
 20
-4578.23
 30
0
 11
9604.14
 21
-2278.96
 31
0
  0
LINE
  5
A0C
330
A02
100
AcDbEntity
  8
Shape2DView
100
AcDbLine
 10
9604.14
 20
-2278.96
 30
0
 11
9456.28
 21
-2278.96
 31
0
  0
LINE
  5
A0D
330
A02
100
AcDbEntity
  8
Shape2DView
100
AcDbLine
 10
9456.28
 20
-2278.96
 30
0
 11
9456.28
 21
-4436.7
 31
0
  0
LINE
  5
A0E
330
A02
100
AcDbEntity
  8
Shape2DView
100
AcDbLine
 10
9456.28
 20
-4436.7
 30
0
 11
-7730.97
 21
-4436.7
 31
0
  0
LINE
  5
A0F
330
A02
100
AcDbEntity
  8
Shape2DView
100
AcDbLine
 10
-7730.97
 20
-4436.7
 30
0
 11
-7730.97
 21
-4306.33
 31
0
  0
LINE
  5
A10
330
A02
100
AcDbEntity
  8
Shape2DView
100
AcDbLine
 10
-7730.97
 20
-4306.33
 30
0
 11
-7860.81
 21
-4306.33
 31
0
  0
LINE
  5
A11
330
A02
100
AcDbEntity
  8
Shape2DView
100
AcDbLine
 10
-7860.81
 20
-4306.33
 30
0
 11
-7860.81
 21
-4436.7
 31
0
  0
LINE
  5
A12
330
A02
100
AcDbEntity
  8
Shape2DView
100
AcDbLine
 10
-8782.66
 20
2786.57
 30
0
 11
9604.14
 21
2786.57
 31
0
  0
LINE
  5
A13
330
A02
100
AcDbEntity
  8
Shape2DView
100
AcDbLine
 10
-8782.66
 20
2646.3
 30
0
 11
-8782.66
 21
2786.57
 31
0
  0
LINE
  5
A14
330
A02
100
AcDbEntity
  8
Shape2DView
100
AcDbLine
 10
9461.87
 20
2646.3
 30
0
 11
-8782.66
 21
2646.3
 31
0
  0
LINE
  5
A15
330
A02
100
AcDbEntity
  8
Shape2DView
100
AcDbLine
 10
9461.87
 20
-154.77
 30
0
 11
9461.87
 21
2646.3
 31
0
  0
LINE
  5
A16
330
A02
100
AcDbEntity
  8
Shape2DView
100
AcDbLine
 10
8224.82
 20
-154.77
 30
0
 11
9461.87
 21
-154.77
 31
0
  0
LINE
  5
A17
330
A02
100
AcDbEntity
  8
Shape2DView
100
AcDbLine
 10
8224.82
 20
-1357.61
 30
0
 11
8224.82
 21
-154.77
 31
0
  0
LINE
  5
A18
330
A02
100
AcDbEntity
  8
Shape2DView
100
AcDbLine
 10
6890.12
 20
-1357.61
 30
0
 11
8224.82
 21
-1357.61
 31
0
  0
LINE
  5
A19
330
A02
100
AcDbEntity
  8
Shape2DView
100
AcDbLine
 10
6890.12
 20
-1490.31
 30
0
 11
6890.12
 21
-1357.61
 31
0
  0
LINE
  5
A1A
330
A02
100
AcDbEntity
  8
Shape2DView
100
AcDbLine
 10
8351.17
 20
-1490.31
 30
0
 11
6890.12
 21
-1490.31
 31
0
  0
LINE
  5
A1B
330
A02
100
AcDbEntity
  8
Shape2DView
100
AcDbLine
 10
8351.17
 20
-294.716
 30
0
 11
8351.17
 21
-1490.31
 31
0
  0
LINE
  5
A1C
330
A02
100
AcDbEntity
  8
Shape2DView
100
AcDbLine
 10
9461.87
 20
-294.716
 30
0
 11
8351.17
 21
-294.716
 31
0
  0
LINE
  5
A1D
330
A02
100
AcDbEntity
  8
Shape2DView
100
AcDbLine
 10
9461.87
 20
-2278.96
 30
0
 11
9461.87
 21
-294.716
 31
0
  0
LINE
  5
A1E
330
A02
100
AcDbEntity
  8
Shape2DView
100
AcDbLine
 10
9604.14
 20
-2278.96
 30
0
 11
9461.87
 21
-2278.96
 31
0
  0
LINE
  5
A1F
330
A02
100
AcDbEntity
  8
Shape2DView
100
AcDbLine
 10
9604.14
 20
-2278.96
 30
0
 11
9604.14
 21
2786.57
 31
0
  0
LINE
  5
A20
330
A02
100
AcDbEntity
  8
Shape2DView
100
AcDbLine
 10
-8322.77
 20
2234.94
 30
0
 11
-8322.77
 21
2646.3
 31
0
  0
LINE
  5
A21
330
A02
100
AcDbEntity
  8
Shape2DView
100
AcDbLine
 10
-8183.58
 20
2234.94
 30
0
 11
-8322.77
 21
2234.94
 31
0
  0
LINE
  5
A22
330
A02
100
AcDbEntity
  8
Shape2DView
100
AcDbLine
 10
-8183.58
 20
2646.3
 30
0
 11
-8183.58
 21
2234.94
 31
0
  0
LINE
  5
A23
330
A02
100
AcDbEntity
  8
Shape2DView
100
AcDbLine
 10
-8322.77
 20
2646.3
 30
0
 11
-8183.58
 21
2646.3
 31
0
  0
LINE
  5
A24
330
A02
100
AcDbEntity
  8
Shape2DView
100
AcDbLine
 10
-8782.66
 20
-532.14
 30
0
 11
-8782.66
 21
-669.605
 31
0
  0
LINE
  5
A25
330
A02
100
AcDbEntity
  8
Shape2DView
100
AcDbLine
 10
-8087.02
 20
-532.14
 30
0
 11
-8782.66
 21
-532.14
 31
0
  0
LINE
  5
A26
330
A02
100
AcDbEntity
  8
Shape2DView
100
AcDbLine
 10
-8782.66
 20
-669.605
 30
0
 11
-8087.02
 21
-669.605
 31
0
  0
LINE
  5
A27
330
A02
100
AcDbEntity
  8
Shape2DView
100
AcDbLine
 10
-8087.02
 20
-669.605
 30
0
 11
-8087.02
 21
-532.14
 31
0
  0
LINE
  5
A28
330
A02
100
AcDbEntity
  8
Shape2DView
100
AcDbLine
 10
-8782.66
 20
-669.605
 30
0
 11
-8782.66
 21
-3056.84
 31
0
  0
LINE
  5
A29
330
A02
100
AcDbEntity
  8
Shape2DView
100
AcDbLine
 10
-8645.54
 20
-669.605
 30
0
 11
-8782.66
 21
-669.605
 31
0
  0
LINE
  5
A2A
330
A02
100
AcDbEntity
  8
Shape2DView
100
AcDbLine
 10
-8782.66
 20
-3056.84
 30
0
 11
-8645.54
 21
-3056.84
 31
0
  0
LINE
  5
A2B
330
A02
100
AcDbEntity
  8
Shape2DView
100
AcDbLine
 10
-8645.54
 20
-3056.84
 30
0
 11
-8645.54
 21
-669.605
 31
0
  0
LINE
  5
A2C
330
A02
100
AcDbEntity
  8
Shape2DView
100
AcDbLine
 10
-8322.77
 20
-532.14
 30
0
 11
-8322.77
 21
2234.94
 31
0
  0
LINE
  5
A2D
330
A02
100
AcDbEntity
  8
Shape2DView
100
AcDbLine
 10
-8183.58
 20
-532.14
 30
0
 11
-8322.77
 21
-532.14
 31
0
  0
LINE
  5
A2E
330
A02
100
AcDbEntity
  8
Shape2DView
100
AcDbLine
 10
-8183.58
 20
2234.94
 30
0
 11
-8183.58
 21
-532.14
 31
0
  0
LINE
  5
A2F
330
A02
100
AcDbEntity
  8
Shape2DView
100
AcDbLine
 10
-8322.77
 20
2234.94
 30
0
 11
-8183.58
 21
2234.94
 31
0
  0
LINE
  5
A30
330
A02
100
AcDbEntity
  8
Shape2DView
100
AcDbLine
 10
6013.14
 20
-4436.7
 30
0
 11
6149.43
 21
-4436.7
 31
0
  0
LINE
  5
A31
330
A02
100
AcDbEntity
  8
Shape2DView
100
AcDbLine
 10
6013.14
 20
-463.54
 30
0
 11
6013.14
 21
-4436.7
 31
0
  0
LINE
  5
A32
330
A02
100
AcDbEntity
  8
Shape2DView
100
AcDbLine
 10
6149.43
 20
-4436.7
 30
0
 11
6149.43
 21
-463.54
 31
0
  0
LINE
  5
A33
330
A02
100
AcDbEntity
  8
Shape2DView
100
AcDbLine
 10
6149.43
 20
-463.54
 30
0
 11
6013.14
 21
-463.54
 31
0
  0
LINE
  5
A34
330
A02
100
AcDbEntity
  8
Shape2DView
100
AcDbLine
 10
6015.72
 20
833.407
 30
0
 11
6149.43
 21
833.407
 31
0
  0
LINE
  5
A35
330
A02
100
AcDbEntity
  8
Shape2DView
100
AcDbLine
 10
6015.72
 20
2646.3
 30
0
 11
6015.72
 21
833.407
 31
0
  0
LINE
  5
A36
330
A02
100
AcDbEntity
  8
Shape2DView
100
AcDbLine
 10
6149.43
 20
833.407
 30
0
 11
6149.43
 21
2646.3
 31
0
  0
LINE
  5
A37
330
A02
100
AcDbEntity
  8
Shape2DView
100
AcDbLine
 10
6149.43
 20
2646.3
 30
0
 11
6015.72
 21
2646.3
 31
0
  0
LINE
  5
A38
330
A02
100
AcDbEntity
  8
Shape2DView
100
AcDbLine
 10
8214.61
 20
-2280.36
 30
0
 11
8214.61
 21
-2138.09
 31
0
  0
LINE
  5
A39
330
A02
100
AcDbEntity
  8
Shape2DView
100
AcDbLine
 10
8769.2
 20
-2280.36
 30
0
 11
8214.61
 21
-2280.36
 31
0
  0
LINE
  5
A3A
330
A02
100
AcDbEntity
  8
Shape2DView
100
AcDbLine
 10
8769.2
 20
-4436.7
 30
0
 11
8769.2
 21
-2280.36
 31
0
  0
LINE
  5
A3B
330
A02
100
AcDbEntity
  8
Shape2DView
100
AcDbLine
 10
8906.35
 20
-4436.7
 30
0
 11
8769.2
 21
-4436.7
 31
0
  0
LINE
  5
A3C
330
A02
100
AcDbEntity
  8
Shape2DView
100
AcDbLine
 10
8906.35
 20
-2280.36
 30
0
 11
8906.35
 21
-4436.7
 31
0
  0
LINE
  5
A3D
330
A02
100
AcDbEntity
  8
Shape2DView
100
AcDbLine
 10
9456.28
 20
-2280.36
 30
0
 11
8906.35
 21
-2280.36
 31
0
  0
LINE
  5
A3E
330
A02
100
AcDbEntity
  8
Shape2DView
100
AcDbLine
 10
9456.28
 20
-2138.09
 30
0
 11
9456.28
 21
-2280.36
 31
0
  0
LINE
  5
A3F
330
A02
100
AcDbEntity
  8
Shape2DView
100
AcDbLine
 10
8214.61
 20
-2138.09
 30
0
 11
9456.28
 21
-2138.09
 31
0
  0
LINE
  5
A40
330
A02
100
AcDbEntity
  8
Shape2DView
100
AcDbLine
 10
-6261.98
 20
-796.499
 30
0
 11
-6497.12
 21
-796.499
 31
0
  0
LINE
  5
A41
330
A02
100
AcDbEntity
  8
Shape2DView
100
AcDbLine
 10
-6261.98
 20
-670.503
 30
0
 11
-6261.98
 21
-796.499
 31
0
  0
LINE
  5
A42
330
A02
100
AcDbEntity
  8
Shape2DView
100
AcDbLine
 10
-6497.12
 20
-670.503
 30
0
 11
-6261.98
 21
-670.503
 31
0
  0
LINE
  5
A43
330
A02
100
AcDbEntity
  8
Shape2DView
100
AcDbLine
 10
-6497.12
 20
-796.499
 30
0
 11
-6497.12
 21
-670.503
 31
0
  0
LINE
  5
A44
330
A02
100
AcDbEntity
  8
Shape2DView
100
AcDbLine
 10
6149.43
 20
-154.77
 30
0
 11
8224.82
 21
-154.77
 31
0
  0
LINE
  5
A45
330
A02
100
AcDbEntity
  8
Shape2DView
100
AcDbLine
 10
9461.87
 20
-154.77
 30
0
 11
9461.87
 21
2646.3
 31
0
  0
LINE
  5
A46
330
A02
100
AcDbEntity
  8
Shape2DView
100
AcDbLine
 10
9461.87
 20
2646.3
 30
0
 11
6149.43
 21
2646.3
 31
0
  0
LINE
  5
A47
330
A02
100
AcDbEntity
  8
Shape2DView
100
AcDbLine
 10
6149.43
 20
833.407
 30
0
 11
6149.43
 21
-154.77
 31
0
  0
LINE
  5
A48
330
A02
100
AcDbEntity
  8
Shape2DView
100
AcDbLine
 10
6149.43
 20
-1357.61
 30
0
 11
6890.12
 21
-1357.61
 31
0
  0
LINE
  5
A49
330
A02
100
AcDbEntity
  8
Shape2DView
100
AcDbLine
 10
8224.82
 20
-154.77
 30
0
 11
6149.43
 21
-154.77
 31
0
  0
LINE
  5
A4A
330
A02
100
AcDbEntity
  8
Shape2DView
100
AcDbLine
 10
6149.43
 20
-154.77
 30
0
 11
6149.43
 21
-463.54
 31
0
  0
LINE
  5
A4B
330
A02
100
AcDbEntity
  8
Shape2DView
100
AcDbLine
 10
9456.28
 20
-2138.09
 30
0
 11
9456.28
 21
-294.716
 31
0
  0
LINE
  5
A4C
330
A02
100
AcDbEntity
  8
Shape2DView
100
AcDbLine
 10
9456.28
 20
-294.716
 30
0
 11
8358.76
 21
-294.716
 31
0
  0
LINE
  5
A4D
330
A02
100
AcDbEntity
  8
Shape2DView
100
AcDbLine
 10
8351.17
 20
-1490.31
 30
0
 11
8351.17
 21
-2138.09
 31
0
  0
LINE
  5
A4E
330
A02
100
AcDbEntity
  8
Shape2DView
100
AcDbLine
 10
8214.61
 20
-2280.36
 30
0
 11
6149.43
 21
-2280.36
 31
0
  0
LINE
  5
A4F
330
A02
100
AcDbEntity
  8
Shape2DView
100
AcDbLine
 10
6015.72
 20
833.407
 30
0
 11
6015.72
 21
-463.54
 31
0
  0
LINE
  5
A50
330
A02
100
AcDbEntity
  8
Shape2DView
100
AcDbLine
 10
6013.14
 20
-4436.7
 30
0
 11
-4966.11
 21
-4436.7
 31
0
  0
LINE
  5
A51
330
A02
100
AcDbEntity
  8
Shape2DView
100
AcDbLine
 10
-5150.46
 20
-4436.7
 30
0
 11
-7730.97
 21
-4436.7
 31
0
  0
LINE
  5
A52
330
A02
100
AcDbEntity
  8
Shape2DView
100
AcDbLine
 10
-8642.81
 20
-4409.18
 30
0
 11
-8642.81
 21
-3056.84
 31
0
  0
LINE
  5
A53
330
A02
100
AcDbEntity
  8
Shape2DView
100
AcDbLine
 10
-8645.54
 20
-3056.84
 30
0
 11
-6479.61
 21
-3056.84
 31
0
  0
LINE
  5
A54
330
A02
100
AcDbEntity
  8
Shape2DView
100
AcDbLine
 10
-6479.61
 20
-3056.84
 30
0
 11
-6479.61
 21
-796.499
 31
0
  0
LINE
  5
A55
330
A02
100
AcDbEntity
  8
Shape2DView
100
AcDbLine
 10
-6479.61
 20
-670.503
 30
0
 11
-6479.61
 21
-669.605
 31
0
  0
LINE
  5
A56
330
A02
100
AcDbEntity
  8
Shape2DView
100
AcDbLine
 10
-6479.61
 20
-669.605
 30
0
 11
-8087.02
 21
-669.605
 31
0
  0
LINE
  5
A57
330
A02
100
AcDbEntity
  8
Shape2DView
100
AcDbLine
 10
-5145.5
 20
1729.04
 30
0
 11
6015.72
 21
1729.04
 31
0
  0
LINE
  5
A58
330
A02
100
AcDbEntity
  8
Shape2DView
100
AcDbLine
 10
6015.72
 20
2646.3
 30
0
 11
-5145.5
 21
2646.3
 31
0
  0
LINE
  5
A59
330
A02
100
AcDbEntity
  8
Shape2DView
100
AcDbLine
 10
-5145.5
 20
2646.3
 30
0
 11
-5145.5
 21
1729.04
 31
0
  0
LINE
  5
A5A
330
A02
100
AcDbEntity
  8
Shape2DView
100
AcDbLine
 10
-8087.02
 20
-669.605
 30
0
 11
-5145.5
 21
-669.605
 31
0
  0
LINE
  5
A5B
330
A02
100
AcDbEntity
  8
Shape2DView
100
AcDbLine
 10
-5145.5
 20
-669.605
 30
0
 11
-5145.5
 21
1545.09
 31
0
  0
LINE
  5
A5C
330
A02
100
AcDbEntity
  8
Shape2DView
100
AcDbLine
 10
-5145.5
 20
1714.89
 30
0
 11
-5145.5
 21
2646.3
 31
0
  0
LINE
  5
A5D
330
A02
100
AcDbEntity
  8
Shape2DView
100
AcDbLine
 10
-5145.5
 20
2646.3
 30
0
 11
-8183.58
 21
2646.3
 31
0
  0
LINE
  5
A5E
330
A02
100
AcDbEntity
  8
Shape2DView
100
AcDbLine
 10
-4957.59
 20
-3054.11
 30
0
 11
-5197.9
 21
-3054.11
 31
0
  0
LINE
  5
A5F
330
A02
100
AcDbEntity
  8
Shape2DView
100
AcDbLine
 10
-4957.59
 20
-2922.44
 30
0
 11
-4957.59
 21
-3054.11
 31
0
  0
LINE
  5
A60
330
A02
100
AcDbEntity
  8
Shape2DView
100
AcDbLine
 10
-5197.9
 20
-2922.44
 30
0
 11
-4957.59
 21
-2922.44
 31
0
  0
LINE
  5
A61
330
A02
100
AcDbEntity
  8
Shape2DView
100
AcDbLine
 10
-5197.9
 20
-3054.11
 30
0
 11
-5197.9
 21
-2922.44
 31
0
  0
LINE
  5
A62
330
A02
100
AcDbEntity
  8
Shape2DView
100
AcDbLine
 10
-4966.11
 20
-4560.97
 30
0
 11
-5150.46
 21
-4560.97
 31
0
  0
LINE
  5
A63
330
A02
100
AcDbEntity
  8
Shape2DView
100
AcDbLine
 10
-4966.11
 20
-4399.66
 30
0
 11
-4966.11
 21
-4560.97
 31
0
  0
LINE
  5
A64
330
A02
100
AcDbEntity
  8
Shape2DView
100
AcDbLine
 10
-5150.46
 20
-4399.66
 30
0
 11
-4966.11
 21
-4399.66
 31
0
  0
LINE
  5
A65
330
A02
100
AcDbEntity
  8
Shape2DView
100
AcDbLine
 10
-5150.46
 20
-4560.97
 30
0
 11
-5150.46
 21
-4399.66
 31
0
  0
LINE
  5
A66
330
A02
100
AcDbEntity
  8
Shape2DView
100
AcDbLine
 10
-2162.79
 20
-4571.91
 30
0
 11
-2391.97
 21
-4571.91
 31
0
  0
LINE
  5
A67
330
A02
100
AcDbEntity
  8
Shape2DView
100
AcDbLine
 10
-2162.79
 20
-4451.29
 30
0
 11
-2162.79
 21
-4571.91
 31
0
  0
LINE
  5
A68
330
A02
100
AcDbEntity
  8
Shape2DView
100
AcDbLine
 10
-2391.97
 20
-4451.29
 30
0
 11
-2162.79
 21
-4451.29
 31
0
  0
LINE
  5
A69
330
A02
100
AcDbEntity
  8
Shape2DView
100
AcDbLine
 10
-2391.97
 20
-4571.91
 30
0
 11
-2391.97
 21
-4451.29
 31
0
  0
LINE
  5
A6A
330
A02
100
AcDbEntity
  8
Shape2DView
100
AcDbLine
 10
2297.69
 20
-4564.87
 30
0
 11
2065.9
 21
-4564.87
 31
0
  0
LINE
  5
A6B
330
A02
100
AcDbEntity
  8
Shape2DView
100
AcDbLine
 10
2297.69
 20
-4446.28
 30
0
 11
2297.69
 21
-4564.87
 31
0
  0
LINE
  5
A6C
330
A02
100
AcDbEntity
  8
Shape2DView
100
AcDbLine
 10
2065.9
 20
-4446.28
 30
0
 11
2297.69
 21
-4446.28
 31
0
  0
LINE
  5
A6D
330
A02
100
AcDbEntity
  8
Shape2DView
100
AcDbLine
 10
2065.9
 20
-4564.87
 30
0
 11
2065.9
 21
-4446.28
 31
0
  0
LINE
  5
A6E
330
A02
100
AcDbEntity
  8
Shape2DView
100
AcDbLine
 10
-4957.59
 20
-802.181
 30
0
 11
-5197.9
 21
-802.181
 31
0
  0
LINE
  5
A6F
330
A02
100
AcDbEntity
  8
Shape2DView
100
AcDbLine
 10
-4957.59
 20
-670.503
 30
0
 11
-4957.59
 21
-802.181
 31
0
  0
LINE
  5
A70
330
A02
100
AcDbEntity
  8
Shape2DView
100
AcDbLine
 10
-5197.9
 20
-670.503
 30
0
 11
-4957.59
 21
-670.503
 31
0
  0
LINE
  5
A71
330
A02
100
AcDbEntity
  8
Shape2DView
100
AcDbLine
 10
-5197.9
 20
-802.181
 30
0
 11
-5197.9
 21
-670.503
 31
0
  0
LINE
  5
A72
330
A02
100
AcDbEntity
  8
Shape2DView
100
AcDbLine
 10
-8644.29
 20
-2136.31
 30
0
 11
-8772.96
 21
-2136.31
 31
0
  0
LINE
  5
A73
330
A02
100
AcDbEntity
  8
Shape2DView
100
AcDbLine
 10
-8644.29
 20
-1967.43
 30
0
 11
-8644.29
 21
-2136.31
 31
0
  0
LINE
  5
A74
330
A02
100
AcDbEntity
  8
Shape2DView
100
AcDbLine
 10
-8772.96
 20
-1967.43
 30
0
 11
-8644.29
 21
-1967.43
 31
0
  0
LINE
  5
A75
330
A02
100
AcDbEntity
  8
Shape2DView
100
AcDbLine
 10
-8772.96
 20
-2136.31
 30
0
 11
-8772.96
 21
-1967.43
 31
0
  0
LINE
  5
A76
330
A02
100
AcDbEntity
  8
Shape2DView
100
AcDbLine
 10
-8642.26
 20
-4565.99
 30
0
 11
-8766.9
 21
-4565.99
 31
0
  0
LINE
  5
A77
330
A02
100
AcDbEntity
  8
Shape2DView
100
AcDbLine
 10
-8642.26
 20
-4409.18
 30
0
 11
-8642.26
 21
-4565.99
 31
0
  0
LINE
  5
A78
330
A02
100
AcDbEntity
  8
Shape2DView
100
AcDbLine
 10
-8766.9
 20
-4409.18
 30
0
 11
-8642.26
 21
-4409.18
 31
0
  0
LINE
  5
A79
330
A02
100
AcDbEntity
  8
Shape2DView
100
AcDbLine
 10
-8766.9
 20
-4565.99
 30
0
 11
-8766.9
 21
-4409.18
 31
0
  0
LINE
  5
A7A
330
A02
100
AcDbEntity
  8
Shape2DView
100
AcDbLine
 10
-8090.28
 20
-661.123
 30
0
 11
-8319.37
 21
-661.123
 31
0
  0
LINE
  5
A7B
330
A02
100
AcDbEntity
  8
Shape2DView
100
AcDbLine
 10
-8090.28
 20
-534.448
 30
0
 11
-8090.28
 21
-661.123
 31
0
  0
LINE
  5
A7C
330
A02
100
AcDbEntity
  8
Shape2DView
100
AcDbLine
 10
-8319.37
 20
-534.448
 30
0
 11
-8090.28
 21
-534.448
 31
0
  0
LINE
  5
A7D
330
A02
100
AcDbEntity
  8
Shape2DView
100
AcDbLine
 10
-8319.37
 20
-661.123
 30
0
 11
-8319.37
 21
-534.448
 31
0
  0
LINE
  5
A7E
330
A02
100
AcDbEntity
  8
Shape2DView
100
AcDbLine
 10
-8087.26
 20
2649.31
 30
0
 11
-8317.69
 21
2649.31
 31
0
  0
LINE
  5
A7F
330
A02
100
AcDbEntity
  8
Shape2DView
100
AcDbLine
 10
-8087.26
 20
2777.7
 30
0
 11
-8087.26
 21
2649.31
 31
0
  0
LINE
  5
A80
330
A02
100
AcDbEntity
  8
Shape2DView
100
AcDbLine
 10
-8317.69
 20
2777.7
 30
0
 11
-8087.26
 21
2777.7
 31
0
  0
LINE
  5
A81
330
A02
100
AcDbEntity
  8
Shape2DView
100
AcDbLine
 10
-8317.69
 20
2649.31
 30
0
 11
-8317.69
 21
2777.7
 31
0
  0
LINE
  5
A82
330
A02
100
AcDbEntity
  8
Shape2DView
100
AcDbLine
 10
-4964.75
 20
2668.56
 30
0
 11
-5193.84
 21
2668.56
 31
0
  0
LINE
  5
A83
330
A02
100
AcDbEntity
  8
Shape2DView
100
AcDbLine
 10
-4964.75
 20
2789.84
 30
0
 11
-4964.75
 21
2668.56
 31
0
  0
LINE
  5
A84
330
A02
100
AcDbEntity
  8
Shape2DView
100
AcDbLine
 10
-5193.84
 20
2789.84
 30
0
 11
-4964.75
 21
2789.84
 31
0
  0
LINE
  5
A85
330
A02
100
AcDbEntity
  8
Shape2DView
100
AcDbLine
 10
-5193.84
 20
2668.56
 30
0
 11
-5193.84
 21
2789.84
 31
0
  0
LINE
  5
A86
330
A02
100
AcDbEntity
  8
Shape2DView
100
AcDbLine
 10
-4968.3
 20
1545.09
 30
0
 11
-5148.88
 21
1545.09
 31
0
  0
LINE
  5
A87
330
A02
100
AcDbEntity
  8
Shape2DView
100
AcDbLine
 10
-4968.3
 20
1714.89
 30
0
 11
-4968.3
 21
1545.09
 31
0
  0
LINE
  5
A88
330
A02
100
AcDbEntity
  8
Shape2DView
100
AcDbLine
 10
-5148.88
 20
1714.89
 30
0
 11
-4968.3
 21
1714.89
 31
0
  0
LINE
  5
A89
330
A02
100
AcDbEntity
  8
Shape2DView
100
AcDbLine
 10
-5148.88
 20
1545.09
 30
0
 11
-5148.88
 21
1714.89
 31
0
  0
LINE
  5
A8A
330
A02
100
AcDbEntity
  8
Shape2DView
100
AcDbLine
 10
-2163.21
 20
2656.08
 30
0
 11
-2398.94
 21
2656.08
 31
0
  0
LINE
  5
A8B
330
A02
100
AcDbEntity
  8
Shape2DView
100
AcDbLine
 10
-2163.21
 20
2773.95
 30
0
 11
-2163.21
 21
2656.08
 31
0
  0
LINE
  5
A8C
330
A02
100
AcDbEntity
  8
Shape2DView
100
AcDbLine
 10
-2398.94
 20
2773.95
 30
0
 11
-2163.21
 21
2773.95
 31
0
  0
LINE
  5
A8D
330
A02
100
AcDbEntity
  8
Shape2DView
100
AcDbLine
 10
-2398.94
 20
2656.08
 30
0
 11
-2398.94
 21
2773.95
 31
0
  0
LINE
  5
A8E
330
A02
100
AcDbEntity
  8
Shape2DView
100
AcDbLine
 10
-2167.43
 20
1592.3
 30
0
 11
-2394.57
 21
1592.3
 31
0
  0
LINE
  5
A8F
330
A02
100
AcDbEntity
  8
Shape2DView
100
AcDbLine
 10
-2167.43
 20
1714.1
 30
0
 11
-2167.43
 21
1592.3
 31
0
  0
LINE
  5
A90
330
A02
100
AcDbEntity
  8
Shape2DView
100
AcDbLine
 10
-2394.57
 20
1714.1
 30
0
 11
-2167.43
 21
1714.1
 31
0
  0
LINE
  5
A91
330
A02
100
AcDbEntity
  8
Shape2DView
100
AcDbLine
 10
-2394.57
 20
1592.3
 30
0
 11
-2394.57
 21
1714.1
 31
0
  0
LINE
  5
A92
330
A02
100
AcDbEntity
  8
Shape2DView
100
AcDbLine
 10
2199.39
 20
1501.5
 30
0
 11
2066.71
 21
1501.5
 31
0
  0
LINE
  5
A93
330
A02
100
AcDbEntity
  8
Shape2DView
100
AcDbLine
 10
2199.39
 20
1702.54
 30
0
 11
2199.39
 21
1501.5
 31
0
  0
LINE
  5
A94
330
A02
100
AcDbEntity
  8
Shape2DView
100
AcDbLine
 10
2066.71
 20
1702.54
 30
0
 11
2199.39
 21
1702.54
 31
0
  0
LINE
  5
A95
330
A02
100
AcDbEntity
  8
Shape2DView
100
AcDbLine
 10
2066.71
 20
1501.5
 30
0
 11
2066.71
 21
1702.54
 31
0
  0
LINE
  5
A96
330
A02
100
AcDbEntity
  8
Shape2DView
100
AcDbLine
 10
2292.6
 20
2655.35
 30
0
 11
2072.04
 21
2655.35
 31
0
  0
LINE
  5
A97
330
A02
100
AcDbEntity
  8
Shape2DView
100
AcDbLine
 10
2292.6
 20
2770.57
 30
0
 11
2292.6
 21
2655.35
 31
0
  0
LINE
  5
A98
330
A02
100
AcDbEntity
  8
Shape2DView
100
AcDbLine
 10
2072.04
 20
2770.57
 30
0
 11
2292.6
 21
2770.57
 31
0
  0
LINE
  5
A99
330
A02
100
AcDbEntity
  8
Shape2DView
100
AcDbLine
 10
2072.04
 20
2655.35
 30
0
 11
2072.04
 21
2770.57
 31
0
  0
LINE
  5
A9A
330
A02
100
AcDbEntity
  8
Shape2DView
100
AcDbLine
 10
3761.32
 20
2653.78
 30
0
 11
3528.12
 21
2653.78
 31
0
  0
LINE
  5
A9B
330
A02
100
AcDbEntity
  8
Shape2DView
100
AcDbLine
 10
3761.32
 20
2770.38
 30
0
 11
3761.32
 21
2653.78
 31
0
  0
LINE
  5
A9C
330
A02
100
AcDbEntity
  8
Shape2DView
100
AcDbLine
 10
3528.12
 20
2770.38
 30
0
 11
3761.32
 21
2770.38
 31
0
  0
LINE
  5
A9D
330
A02
100
AcDbEntity
  8
Shape2DView
100
AcDbLine
 10
3528.12
 20
2653.78
 30
0
 11
3528.12
 21
2770.38
 31
0
  0
LINE
  5
A9E
330
A02
100
AcDbEntity
  8
Shape2DView
100
AcDbLine
 10
3759.23
 20
1587.48
 30
0
 11
3532.84
 21
1587.48
 31
0
  0
LINE
  5
A9F
330
A02
100
AcDbEntity
  8
Shape2DView
100
AcDbLine
 10
3759.23
 20
1716.86
 30
0
 11
3759.23
 21
1587.48
 31
0
  0
LINE
  5
AA0
330
A02
100
AcDbEntity
  8
Shape2DView
100
AcDbLine
 10
3532.84
 20
1716.86
 30
0
 11
3759.23
 21
1716.86
 31
0
  0
LINE
  5
AA1
330
A02
100
AcDbEntity
  8
Shape2DView
100
AcDbLine
 10
3532.84
 20
1587.48
 30
0
 11
3532.84
 21
1716.86
 31
0
  0
LINE
  5
AA2
330
A02
100
AcDbEntity
  8
Shape2DView
100
AcDbLine
 10
6144.81
 20
2648.95
 30
0
 11
5924.15
 21
2648.95
 31
0
  0
LINE
  5
AA3
330
A02
100
AcDbEntity
  8
Shape2DView
100
AcDbLine
 10
6144.81
 20
2772.52
 30
0
 11
6144.81
 21
2648.95
 31
0
  0
LINE
  5
AA4
330
A02
100
AcDbEntity
  8
Shape2DView
100
AcDbLine
 10
5924.15
 20
2772.52
 30
0
 11
6144.81
 21
2772.52
 31
0
  0
LINE
  5
AA5
330
A02
100
AcDbEntity
  8
Shape2DView
100
AcDbLine
 10
5924.15
 20
2648.95
 30
0
 11
5924.15
 21
2772.52
 31
0
  0
LINE
  5
AA6
330
A02
100
AcDbEntity
  8
Shape2DView
100
AcDbLine
 10
6147.26
 20
1586.93
 30
0
 11
5919.98
 21
1586.93
 31
0
  0
LINE
  5
AA7
330
A02
100
AcDbEntity
  8
Shape2DView
100
AcDbLine
 10
6147.26
 20
1712.71
 30
0
 11
6147.26
 21
1586.93
 31
0
  0
LINE
  5
AA8
330
A02
100
AcDbEntity
  8
Shape2DView
100
AcDbLine
 10
5919.98
 20
1712.71
 30
0
 11
6147.26
 21
1712.71
 31
0
  0
LINE
  5
AA9
330
A02
100
AcDbEntity
  8
Shape2DView
100
AcDbLine
 10
5919.98
 20
1586.93
 30
0
 11
5919.98
 21
1712.71
 31
0
  0
LINE
  5
AAA
330
A02
100
AcDbEntity
  8
Shape2DView
100
AcDbLine
 10
-2256.95
 20
-1539.91
 30
0
 11
-2395.97
 21
-1539.91
 31
0
  0
LINE
  5
AAB
330
A02
100
AcDbEntity
  8
Shape2DView
100
AcDbLine
 10
-2256.95
 20
-1308.21
 30
0
 11
-2256.95
 21
-1539.91
 31
0
  0
LINE
  5
AAC
330
A02
100
AcDbEntity
  8
Shape2DView
100
AcDbLine
 10
-2395.97
 20
-1308.21
 30
0
 11
-2256.95
 21
-1308.21
 31
0
  0
LINE
  5
AAD
330
A02
100
AcDbEntity
  8
Shape2DView
100
AcDbLine
 10
-2395.97
 20
-1539.91
 30
0
 11
-2395.97
 21
-1308.21
 31
0
  0
LINE
  5
AAE
330
A02
100
AcDbEntity
  8
Shape2DView
100
AcDbLine
 10
2192.89
 20
-1536.85
 30
0
 11
2061.22
 21
-1536.85
 31
0
  0
LINE
  5
AAF
330
A02
100
AcDbEntity
  8
Shape2DView
100
AcDbLine
 10
2192.89
 20
-1319.58
 30
0
 11
2192.89
 21
-1536.85
 31
0
  0
LINE
  5
AB0
330
A02
100
AcDbEntity
  8
Shape2DView
100
AcDbLine
 10
2061.22
 20
-1319.58
 30
0
 11
2192.89
 21
-1319.58
 31
0
  0
LINE
  5
AB1
330
A02
100
AcDbEntity
  8
Shape2DView
100
AcDbLine
 10
2061.22
 20
-1536.85
 30
0
 11
2061.22
 21
-1319.58
 31
0
  0
LINE
  5
AB2
330
A02
100
AcDbEntity
  8
Shape2DView
100
AcDbLine
 10
4907.21
 20
-1542.31
 30
0
 11
4771.71
 21
-1542.31
 31
0
  0
LINE
  5
AB3
330
A02
100
AcDbEntity
  8
Shape2DView
100
AcDbLine
 10
4907.21
 20
-1311.06
 30
0
 11
4907.21
 21
-1542.31
 31
0
  0
LINE
  5
AB4
330
A02
100
AcDbEntity
  8
Shape2DView
100
AcDbLine
 10
4771.71
 20
-1311.06
 30
0
 11
4907.21
 21
-1311.06
 31
0
  0
LINE
  5
AB5
330
A02
100
AcDbEntity
  8
Shape2DView
100
AcDbLine
 10
4771.71
 20
-1542.31
 30
0
 11
4771.71
 21
-1311.06
 31
0
  0
LINE
  5
AB6
330
A02
100
AcDbEntity
  8
Shape2DView
100
AcDbLine
 10
6243.24
 20
-1488.71
 30
0
 11
6008.75
 21
-1488.71
 31
0
  0
LINE
  5
AB7
330
A02
100
AcDbEntity
  8
Shape2DView
100
AcDbLine
 10
6243.24
 20
-1362.04
 30
0
 11
6243.24
 21
-1488.71
 31
0
  0
LINE
  5
AB8
330
A02
100
AcDbEntity
  8
Shape2DView
100
AcDbLine
 10
6008.75
 20
-1362.04
 30
0
 11
6243.24
 21
-1362.04
 31
0
  0
LINE
  5
AB9
330
A02
100
AcDbEntity
  8
Shape2DView
100
AcDbLine
 10
6008.75
 20
-1488.71
 30
0
 11
6008.75
 21
-1362.04
 31
0
  0
LINE
  5
ABA
330
A02
100
AcDbEntity
  8
Shape2DView
100
AcDbLine
 10
9594.64
 20
2541.72
 30
0
 11
9462.24
 21
2541.72
 31
0
  0
LINE
  5
ABB
330
A02
100
AcDbEntity
  8
Shape2DView
100
AcDbLine
 10
9594.64
 20
2775.63
 30
0
 11
9594.64
 21
2541.72
 31
0
  0
LINE
  5
ABC
330
A02
100
AcDbEntity
  8
Shape2DView
100
AcDbLine
 10
9462.24
 20
2775.63
 30
0
 11
9594.64
 21
2775.63
 31
0
  0
LINE
  5
ABD
330
A02
100
AcDbEntity
  8
Shape2DView
100
AcDbLine
 10
9462.24
 20
2541.72
 30
0
 11
9462.24
 21
2775.63
 31
0
  0
LINE
  5
ABE
330
A02
100
AcDbEntity
  8
Shape2DView
100
AcDbLine
 10
6149.15
 20
-4574.34
 30
0
 11
6014.39
 21
-4574.34
 31
0
  0
LINE
  5
ABF
330
A02
100
AcDbEntity
  8
Shape2DView
100
AcDbLine
 10
6149.15
 20
-4345.24
 30
0
 11
6149.15
 21
-4574.34
 31
0
  0
LINE
  5
AC0
330
A02
100
AcDbEntity
  8
Shape2DView
100
AcDbLine
 10
6014.39
 20
-4345.24
 30
0
 11
6149.15
 21
-4345.24
 31
0
  0
LINE
  5
AC1
330
A02
100
AcDbEntity
  8
Shape2DView
100
AcDbLine
 10
6014.39
 20
-4574.34
 30
0
 11
6014.39
 21
-4345.24
 31
0
  0
LINE
  5
AC2
330
A02
100
AcDbEntity
  8
Shape2DView
100
AcDbLine
 10
8449.51
 20
-2271.06
 30
0
 11
8220.41
 21
-2271.06
 31
0
  0
LINE
  5
AC3
330
A02
100
AcDbEntity
  8
Shape2DView
100
AcDbLine
 10
8449.51
 20
-2141.69
 30
0
 11
8449.51
 21
-2271.06
 31
0
  0
LINE
  5
AC4
330
A02
100
AcDbEntity
  8
Shape2DView
100
AcDbLine
 10
8220.41
 20
-2141.69
 30
0
 11
8449.51
 21
-2141.69
 31
0
  0
LINE
  5
AC5
330
A02
100
AcDbEntity
  8
Shape2DView
100
AcDbLine
 10
8220.41
 20
-2271.06
 30
0
 11
8220.41
 21
-2141.69
 31
0
  0
LINE
  5
AC6
330
A02
100
AcDbEntity
  8
Shape2DView
100
AcDbLine
 10
9593.51
 20
-2268.02
 30
0
 11
9464.14
 21
-2268.02
 31
0
  0
LINE
  5
AC7
330
A02
100
AcDbEntity
  8
Shape2DView
100
AcDbLine
 10
9593.51
 20
-2052.4
 30
0
 11
9593.51
 21
-2268.02
 31
0
  0
LINE
  5
AC8
330
A02
100
AcDbEntity
  8
Shape2DView
100
AcDbLine
 10
9464.14
 20
-2052.4
 30
0
 11
9593.51
 21
-2052.4
 31
0
  0
LINE
  5
AC9
330
A02
100
AcDbEntity
  8
Shape2DView
100
AcDbLine
 10
9464.14
 20
-2268.02
 30
0
 11
9464.14
 21
-2052.4
 31
0
  0
LINE
  5
ACA
330
A02
100
AcDbEntity
  8
Shape2DView
100
AcDbLine
 10
9598.21
 20
-4571.14
 30
0
 11
9461.4
 21
-4571.14
 31
0
  0
LINE
  5
ACB
330
A02
100
AcDbEntity
  8
Shape2DView
100
AcDbLine
 10
9598.21
 20
-4350.47
 30
0
 11
9598.21
 21
-4571.14
 31
0
  0
LINE
  5
ACC
330
A02
100
AcDbEntity
  8
Shape2DView
100
AcDbLine
 10
9461.4
 20
-4350.47
 30
0
 11
9598.21
 21
-4350.47
 31
0
  0
LINE
  5
ACD
330
A02
100
AcDbEntity
  8
Shape2DView
100
AcDbLine
 10
9461.4
 20
-4571.14
 30
0
 11
9461.4
 21
-4350.47
 31
0
  0
LINE
  5
ACE
330
A02
100
AcDbEntity
  8
Shape2DView
100
AcDbLine
 10
8358.76
 20
-393.635
 30
0
 11
8215.92
 21
-393.635
 31
0
  0
LINE
  5
ACF
330
A02
100
AcDbEntity
  8
Shape2DView
100
AcDbLine
 10
8358.76
 20
-164.541
 30
0
 11
8358.76
 21
-393.635
 31
0
  0
LINE
  5
AD0
330
A02
100
AcDbEntity
  8
Shape2DView
100
AcDbLine
 10
8215.92
 20
-164.541
 30
0
 11
8358.76
 21
-164.541
 31
0
  0
LINE
  5
AD1
330
A02
100
AcDbEntity
  8
Shape2DView
100
AcDbLine
 10
8215.92
 20
-393.635
 30
0
 11
8215.92
 21
-164.541
 31
0
  0
LINE
  5
AD2
330
A02
100
AcDbEntity
  8
Shape2DView
100
AcDbLine
 10
9595.87
 20
-393.635
 30
0
 11
9461.11
 21
-393.635
 31
0
  0
LINE
  5
AD3
330
A02
100
AcDbEntity
  8
Shape2DView
100
AcDbLine
 10
9595.87
 20
-167.236
 30
0
 11
9595.87
 21
-393.635
 31
0
  0
LINE
  5
AD4
330
A02
100
AcDbEntity
  8
Shape2DView
100
AcDbLine
 10
9461.11
 20
-167.236
 30
0
 11
9595.87
 21
-167.236
 31
0
  0
LINE
  5
AD5
330
A02
100
AcDbEntity
  8
Shape2DView
100
AcDbLine
 10
9461.11
 20
-393.635
 30
0
 11
9461.11
 21
-167.236
 31
0
  0
ENDSEC
  0
SECTION
  2
OBJECTS
  0
DICTIONARY
  5
F000
330
0
100
AcDbDictionary
  3
ACAD_GROUP
350
F001
  0
DICTIONARY
  5
F001
330
F000
100
AcDbDictionary
  0
ENDSEC
  0
EOF