  0
SECTION
  2
HEADER
  9
$ACADVER
  1
AC1009
  9
$DWGCODEPAGE
  3
ansi_1252
  9
$INSBASE
 10
0.0
 20
0.0
 30
0.0
  9
$EXTMIN
 10
7395.606281738281
 20
-3826.772363525651
 30
-1950.0
  9
$EXTMAX
 10
13805.65633056641
 20
3664.713048346946
 30
0.0
  9
$LIMMIN
 10
0.0
 20
0.0
  9
$LIMMAX
 10
12.0
 20
9.0
  9
$ORTHOMODE
 70
     0
  9
$REGENMODE
 70
     1
  9
$FILLMODE
 70
     1
  9
$QTEXTMODE
 70
     0
  9
$MIRRTEXT
 70
     1
  9
$DRAGMODE
 70
     2
  9
$LTSCALE
 40
1.0
  9
$OSMODE
 70
    37
  9
$ATTMODE
 70
     1
  9
$TEXTSIZE
 40
1.0
  9
$TRACEWID
 40
0.05
  9
$TEXTSTYLE
  7
STANDARD
  9
$CLAYER
  8
0
  9
$CELTYPE
  6
BYLAYER
  9
$CECOLOR
 62
   256
  9
$DIMSCALE
 40
1.0
  9
$DIMASZ
 40
0.18
  9
$DIMEXO
 40
0.0625
  9
$DIMDLI
 40
0.38
  9
$DIMRND
 40
0.0
  9
$DIMDLE
 40
0.0
  9
$DIMEXE
 40
0.18
  9
$DIMTP
 40
0.0
  9
$DIMTM
 40
0.0
  9
$DIMTXT
 40
0.18
  9
$DIMCEN
 40
0.09
  9
$DIMTSZ
 40
0.0
  9
$DIMTOL
 70
     0
  9
$DIMLIM
 70
     0
  9
$DIMTIH
 70
     1
  9
$DIMTOH
 70
     1
  9
$DIMSE1
 70
     0
  9
$DIMSE2
 70
     0
  9
$DIMTAD
 70
     0
  9
$DIMZIN
 70
     0
  9
$DIMBLK
  1

  9
$DIMASO
 70
     1
  9
$DIMSHO
 70
     1
  9
$DIMPOST
  1

  9
$DIMAPOST
  1

  9
$DIMALT
 70
     0
  9
$DIMALTD
 70
     2
  9
$DIMALTF
 40
25.4
  9
$DIMLFAC
 40
1.0
  9
$DIMTOFL
 70
     0
  9
$DIMTVP
 40
0.0
  9
$DIMTIX
 70
     0
  9
$DIMSOXD
 70
     0
  9
$DIMSAH
 70
     0
  9
$DIMBLK1
  1

  9
$DIMBLK2
  1

  9
$DIMSTYLE
  2
STANDARD
  9
$DIMCLRD
 70
     0
  9
$DIMCLRE
 70
     0
  9
$DIMCLRT
 70
     0
  9
$DIMTFAC
 40
1.0
  9
$DIMGAP
 40
0.09
  9
$LUNITS
 70
     2
  9
$LUPREC
 70
     4
  9
$SKETCHINC
 40
0.1
  9
$FILLETRAD
 40
0.0
  9
$AUNITS
 70
     0
  9
$AUPREC
 70
     0
  9
$MENU
  1
.
  9
$ELEVATION
 40
0.0
  9
$PELEVATION
 40
0.0
  9
$THICKNESS
 40
0.0
  9
$LIMCHECK
 70
     0
  9
$CHAMFERA
 40
0.0
  9
$CHAMFERB
 40
0.0
  9
$SKPOLY
 70
     0
  9
$TDCREATE
 40
2459996.621378472
  9
$TDUPDATE
 40
2459996.621379583
  9
$TDINDWG
 40
0.0000000116
  9
$TDUSRTIMER
 40
0.0000000116
  9
$USRTIMER
 70
     1
  9
$ANGBASE
 50
0.0
  9
$ANGDIR
 70
     0
  9
$PDMODE
 70
     0
  9
$PDSIZE
 40
0.0
  9
$PLINEWID
 40
0.0
  9
$COORDS
 70
     1
  9
$SPLFRAME
 70
     0
  9
$SPLINETYPE
 70
     6
  9
$SPLINESEGS
 70
     8
  9
$ATTDIA
 70
     0
  9
$ATTREQ
 70
     1
  9
$HANDLING
 70
     1
  9
$HANDSEED
  5
AA6
  9
$SURFTAB1
 70
     6
  9
$SURFTAB2
 70
     6
  9
$SURFTYPE
 70
     6
  9
$SURFU
 70
     6
  9
$SURFV
 70
     6
  9
$UCSNAME
  2

  9
$UCSORG
 10
0.0
 20
0.0
 30
0.0
  9
$UCSXDIR
 10
1.0
 20
0.0
 30
0.0
  9
$UCSYDIR
 10
0.0
 20
1.0
 30
0.0
  9
$PUCSNAME
  2

  9
$PUCSORG
 10
0.0
 20
0.0
 30
0.0
  9
$PUCSXDIR
 10
1.0
 20
0.0
 30
0.0
  9
$PUCSYDIR
 10
0.0
 20
1.0
 30
0.0
  9
$USERI1
 70
     0
  9
$USERI2
 70
     0
  9
$USERI3
 70
     0
  9
$USERI4
 70
     0
  9
$USERI5
 70
     0
  9
$USERR1
 40
0.0
  9
$USERR2
 40
0.0
  9
$USERR3
 40
0.0
  9
$USERR4
 40
0.0
  9
$USERR5
 40
0.0
  9
$WORLDVIEW
 70
     1
  9
$SHADEDGE
 70
     3
  9
$SHADEDIF
 70
    70
  9
$TILEMODE
 70
     1
  9
$MAXACTVP
 70
    64
  9
$PLIMCHECK
 70
     0
  9
$PEXTMIN
 10
1.000000000000000E+20
 20
1.000000000000000E+20
 30
1.000000000000000E+20
  9
$PEXTMAX
 10
-1.000000000000000E+20
 20
-1.000000000000000E+20
 30
-1.000000000000000E+20
  9
$PLIMMIN
 10
-0.25
 20
-0.25
  9
$PLIMMAX
 10
10.75
 20
8.25
  9
$UNITMODE
 70
     0
  9
$VISRETAIN
 70
     1
  9
$PLINEGEN
 70
     0
  9
$PSLTSCALE
 70
     1
  0
ENDSEC
  0
SECTION
  2
TABLES
  0
TABLE
  2
VPORT
 70
     1
  0
VPORT
  2
*ACTIVE
 70
     0
 10
0.0
 20
0.0
 11
1.0
 21
1.0
 12
9459.491430261445
 22
693.3369478228842
 13
0.0
 23
0.0
 14
0.5
 24
0.5
 15
0.5
 25
0.5
 16
0.0
 26
0.0
 36
1.0
 17
0.0
 27
0.0
 37
0.0
 40
8508.234902042866
 41
2.188940092165899
 42
50.0
 43
0.0
 44
0.0
 50
0.0
 51
0.0
 71
     0
 72
   100
 73
     1
 74
     3
 75
     0
 76
     0
 77
     0
 78
     0
  0
ENDTAB
  0
TABLE
  2
LTYPE
 70
    48
  0
LTYPE
  2
CONTINUOUS
 70
     0
  3
Solid line
 72
    65
 73
     0
 40
0.0
  0
LTYPE
  2
DASHEDX2
 70
     0
  3
Dashed (2x) ____  ____  ____  ____  ____  ___
 72
    65
 73
     2
 40
38.09999999999999
 49
25.4
 49
-12.7
  0
LTYPE
  2
DASHED2
 70
     0
  3
Dashed (.5x) _ _ _ _ _ _ _ _ _ _ _ _ _ _ _ _ _ 
 72
    65
 73
     2
 40
9.524999999999999
 49
6.35
 49
-3.175
  0
LTYPE
  2
DASHED
 70
     0
  3
Dashed __ __ __ __ __ __ __ __ __ __ __ __ __ _
 72
    65
 73
     2
 40
19.05
 49
12.7
 49
-6.35
  0
LTYPE
  2
DASHDOTX2
 70
     0
  3
Dash dot (2x) ____  .  ____  .  ____  .  ___
 72
    65
 73
     4
 40
50.8
 49
25.4
 49
-12.7
 49
0.0
 49
-12.7
  0
LTYPE
  2
DASHDOT2
 70
     0
  3
Dash dot (.5x) _._._._._._._._._._._._._._._.
 72
    65
 73
     4
 40
12.7
 49
6.35
 49
-3.175
 49
0.0
 49
-3.175
  0
LTYPE
  2
DASHDOT
 70
     0
  3
Dash dot __ . __ . __ . __ . __ . __ . __ . __
 72
    65
 73
     4
 40
25.4
 49
12.7
 49
-6.35
 49
0.0
 49
-6.35
  0
LTYPE
  2
CENTERX2
 70
     0
  3
Center (2x) ________  __  ________  __  _____
 72
    65
 73
     4
 40
101.6
 49
63.5
 49
-12.7
 49
12.7
 49
-12.7
  0
LTYPE
  2
CENTER2
 70
     0
  3
Center (.5x) ___ _ ___ _ ___ _ ___ _ ___ _ ___
 72
    65
 73
     4
 40
28.575
 49
19.05
 49
-3.175
 49
3.175
 49
-3.175
  0
LTYPE
  2
CENTER
 70
     0
  3
Center ____ _ ____ _ ____ _ ____ _ ____ _ ____
 72
    65
 73
     4
 40
50.8
 49
31.75
 49
-6.35
 49
6.35
 49
-6.35
  0
LTYPE
  2
BORDERX2
 70
     0
  3
Border (2x) ____  ____  .  ____  ____  .  ___
 72
    65
 73
     6
 40
88.89999999999999
 49
25.4
 49
-12.7
 49
25.4
 49
-12.7
 49
0.0
 49
-12.7
  0
LTYPE
  2
BORDER2
 70
     0
  3
Border (.5x) __.__.__.__.__.__.__.__.__.__.__.
 72
    65
 73
     6
 40
22.225
 49
6.35
 49
-3.175
 49
6.35
 49
-3.175
 49
0.0
 49
-3.175
  0
LTYPE
  2
BORDER
 70
     0
  3
Border __ __ . __ __ . __ __ . __ __ . __ __ .
 72
    65
 73
     6
 40
44.45
 49
12.7
 49
-6.35
 49
12.7
 49
-6.35
 49
0.0
 49
-6.35
  0
LTYPE
  2
BATTING
 70
     0
  3
Batting SSSSSSSSSSSSSSSSSSSSSSSSSSSSSSSSSSSSSSSSSSSSSSS
 72
    65
 73
     4
 40
10.16254
 49
0.00254
 49
-2.54
 49
-5.08
 49
-2.54
  0
LTYPE
  2
ACAD_ISO15W100
 70
     0
  3
ISO double-dash triple-dot __ __ . . . __ __ . .
 72
    65
 73
    10
 40
39.0
 49
12.0
 49
-3.0
 49
12.0
 49
-3.0
 49
0.0
 49
-3.0
 49
0.0
 49
-3.0
 49
0.0
 49
-3.0
  0
LTYPE
  2
ACAD_ISO14W100
 70
     0
  3
ISO dash triple-dot __ . . . __ . . . __ . . . _
 72
    65
 73
     8
 40
24.0
 49
12.0
 49
-3.0
 49
0.0
 49
-3.0
 49
0.0
 49
-3.0
 49
0.0
 49
-3.0
  0
LTYPE
  2
ACAD_ISO13W100
 70
     0
  3
ISO double-dash double-dot __ __ . . __ __ . . _
 72
    65
 73
     8
 40
36.0
 49
12.0
 49
-3.0
 49
12.0
 49
-3.0
 49
0.0
 49
-3.0
 49
0.0
 49
-3.0
  0
LTYPE
  2
ACAD_ISO12W100
 70
     0
  3
ISO dash double-dot __ . . __ . . __ . . __ . . 
 72
    65
 73
     6
 40
21.0
 49
12.0
 49
-3.0
 49
0.0
 49
-3.0
 49
0.0
 49
-3.0
  0
LTYPE
  2
ACAD_ISO11W100
 70
     0
  3
ISO double-dash dot __ __ . __ __ . __ __ . __ _
 72
    65
 73
     6
 40
33.0
 49
12.0
 49
-3.0
 49
12.0
 49
-3.0
 49
0.0
 49
-3.0
  0
LTYPE
  2
ACAD_ISO10W100
 70
     0
  3
ISO dash dot __ . __ . __ . __ . __ . __ . __ . 
 72
    65
 73
     4
 40
18.0
 49
12.0
 49
-3.0
 49
0.0
 49
-3.0
  0
LTYPE
  2
ACAD_ISO09W100
 70
     0
  3
ISO long-dash double-short-dash ____ __ __ ____
 72
    65
 73
     6
 40
45.0
 49
24.0
 49
-3.0
 49
6.0
 49
-3.0
 49
6.0
 49
-3.0
  0
LTYPE
  2
ACAD_ISO08W100
 70
     0
  3
ISO long-dash short-dash ____ __ ____ __ ____ _
 72
    65
 73
     4
 40
36.0
 49
24.0
 49
-3.0
 49
6.0
 49
-3.0
  0
LTYPE
  2
ACAD_ISO07W100
 70
     0
  3
ISO dot . . . . . . . . . . . . . . . . . . . . 
 72
    65
 73
     2
 40
3.0
 49
0.0
 49
-3.0
  0
LTYPE
  2
ACAD_ISO06W100
 70
     0
  3
ISO long-dash triple-dot ____ ... ____ ... ____
 72
    65
 73
     8
 40
36.0
 49
24.0
 49
-3.0
 49
0.0
 49
-3.0
 49
0.0
 49
-3.0
 49
0.0
 49
-3.0
  0
LTYPE
  2
ACAD_ISO05W100
 70
     0
  3
ISO long-dash double-dot ____ .. ____ .. ____ . 
 72
    65
 73
     6
 40
33.0
 49
24.0
 49
-3.0
 49
0.0
 49
-3.0
 49
0.0
 49
-3.0
  0
LTYPE
  2
ACAD_ISO04W100
 70
     0
  3
ISO long-dash dot ____ . ____ . ____ . ____ . _
 72
    65
 73
     4
 40
30.0
 49
24.0
 49
-3.0
 49
0.0
 49
-3.0
  0
LTYPE
  2
ACAD_ISO03W100
 70
     0
  3
ISO dash space __    __    __    __    __    __
 72
    65
 73
     2
 40
30.0
 49
12.0
 49
-18.0
  0
LTYPE
  2
ACAD_ISO02W100
 70
     0
  3
ISO dash __ __ __ __ __ __ __ __ __ __ __ __ __
 72
    65
 73
     2
 40
15.0
 49
12.0
 49
-3.0
  0
LTYPE
  2
ZIGZAG
 70
     0
  3
Zig zag /\/\/\/\/\/\/\/\/\/\/\/\/\/\/\/\/\/\/\/\/\/\/\/
 72
    65
 73
     4
 40
20.32254
 49
0.00254
 49
-5.08
 49
-10.16
 49
-5.08
  0
LTYPE
  2
TRACKS
 70
     0
  3
Tracks -|-|-|-|-|-|-|-|-|-|-|-|-|-|-|-|-|-|-|-|-|-|-|-|-
 72
    65
 73
     2
 40
7.62
 49
3.81
 49
3.81
  0
LTYPE
  2
PHANTOMX2
 70
     0
  3
Phantom (2x) ____________    ____    ____   _
 72
    65
 73
     6
 40
127.0
 49
63.5
 49
-12.7
 49
12.7
 49
-12.7
 49
12.7
 49
-12.7
  0
LTYPE
  2
PHANTOM2
 70
     0
  3
Phantom (.5x) ___ _ _ ___ _ _ ___ _ _ ___ _ _
 72
    65
 73
     6
 40
31.75
 49
15.875
 49
-3.175
 49
3.175
 49
-3.175
 49
3.175
 49
-3.175
  0
LTYPE
  2
PHANTOM
 70
     0
  3
Phantom ______  __  __  ______  __  __  ______ 
 72
    65
 73
     6
 40
63.50000000000001
 49
31.75
 49
-6.35
 49
6.35
 49
-6.35
 49
6.35
 49
-6.35
  0
LTYPE
  2
HOT_WATER_SUPPLY
 70
     0
  3
Hot water supply ---- HW ---- HW ---- HW ----
 72
    65
 73
     3
 40
22.86
 49
12.7
 49
-5.08
 49
-5.08
  0
LTYPE
  2
HIDDENX2
 70
     0
  3
Hidden (2x) ____ ____ ____ ____ ____ ____ ____ 
 72
    65
 73
     2
 40
19.05
 49
12.7
 49
-6.35
  0
LTYPE
  2
HIDDEN2
 70
     0
  3
Hidden (.5x) _ _ _ _ _ _ _ _ _ _ _ _ _ _ _ _ _ 
 72
    65
 73
     2
 40
4.762499999999999
 49
3.175
 49
-1.5875
  0
LTYPE
  2
HIDDEN
 70
     0
  3
Hidden __ __ __ __ __ __ __ __ __ __ __ __ __ __
 72
    65
 73
     2
 40
9.524999999999999
 49
6.35
 49
-3.175
  0
LTYPE
  2
GAS_LINE
 70
     0
  3
Gas line ----GAS----GAS----GAS----GAS----GAS----GAS--
 72
    65
 73
     3
 40
24.13
 49
12.7
 49
-5.08
 49
-6.35
  0
LTYPE
  2
FENCELINE2
 70
     0
  3
Fenceline square ----[]-----[]----[]-----[]----[]---
 72
    65
 73
     4
 40
36.83
 49
6.35
 49
-2.54
 49
-2.54
 49
25.4
  0
LTYPE
  2
FENCELINE1
 70
     0
  3
Fenceline circle ----0-----0----0-----0----0-----0--
 72
    65
 73
     4
 40
36.83
 49
6.35
 49
-2.54
 49
-2.54
 49
25.4
  0
LTYPE
  2
DRAINAGE2
 70
     0
  3
Drainage reversed----<----<----<----
 72
    65
 73
     2
 40
10.16
 49
5.08
 49
5.08
  0
LTYPE
  2
DRAINAGE
 70
     0
  3
Drainage ---->---->---->----
 72
    65
 73
     2
 40
10.16
 49
5.08
 49
5.08
  0
LTYPE
  2
DOTX2
 70
     0
  3
Dot (2x) .  .  .  .  .  .  .  .  .  .  .  .  .  .
 72
    65
 73
     2
 40
12.7
 49
0.0
 49
-12.7
  0
LTYPE
  2
DOT2
 70
     0
  3
Dot (.5x) ........................................
 72
    65
 73
     2
 40
3.175
 49
0.0
 49
-3.175
  0
LTYPE
  2
DOT
 70
     0
  3
Dot . . . . . . . . . . . . . . . . . . . . . . . .
 72
    65
 73
     2
 40
6.35
 49
0.0
 49
-6.35
  0
LTYPE
  2
DIVIDEX2
 70
     0
  3
Divide (2x) ________  .  .  ________  .  .  _
 72
    65
 73
     6
 40
63.5
 49
25.4
 49
-12.7
 49
0.0
 49
-12.7
 49
0.0
 49
-12.7
  0
LTYPE
  2
DIVIDE2
 70
     0
  3
Divide (.5x) __..__..__..__..__..__..__..__.._
 72
    65
 73
     6
 40
15.875
 49
6.35
 49
-3.175
 49
0.0
 49
-3.175
 49
0.0
 49
-3.175
  0
LTYPE
  2
DIVIDE
 70
     0
  3
Divide ____ . . ____ . . ____ . . ____ . . ____
 72
    65
 73
     6
 40
31.75
 49
12.7
 49
-6.35
 49
0.0
 49
-6.35
 49
0.0
 49
-6.35
  0
ENDTAB
  0
TABLE
  2
LAYER
 70
     2
  0
LAYER
  2
0
 70
     0
 62
     7
  6
CONTINUOUS
  0
LAYER
  2
PLANTABAIXA
 70
     0
 62
     7
  6
CONTINUOUS
  0
ENDTAB
  0
TABLE
  2
STYLE
 70
    13
  0
STYLE
  2
STANDARD
 70
     0
 40
0.0
 41
1.0
 50
0.0
 71
     0
 42
1.0
  3
txt
  4

  0
STYLE
  2
QCADDIMTEXTSTYLE
 70
     0
 40
0.0
 41
1.0
 50
0.0
 71
     0
 42
1.0
  3

  4

  0
STYLE
  2
TEXTSTYLE0
 70
     0
 40
0.0
 41
1.0
 50
0.0
 71
     0
 42
1.0
  3
ltypeshp.shx
  4

  0
STYLE
  2
TEXTSTYLE1
 70
     0
 40
0.0
 41
1.0
 50
0.0
 71
     0
 42
1.0
  3
ltypeshp.shx
  4

  0
STYLE
  2
TEXTSTYLE2
 70
     0
 40
0.0
 41
1.0
 50
0.0
 71
     0
 42
1.0
  3
ltypeshp.shx
  4

  0
STYLE
  2
TEXTSTYLE3
 70
     0
 40
0.0
 41
1.0
 50
0.0
 71
     0
 42
1.0
  3
ltypeshp.shx
  4

  0
STYLE
  2
TEXTSTYLE4
 70
     0
 40
0.0
 41
1.0
 50
0.0
 71
     0
 42
1.0
  3
ltypeshp.shx
  4

  0
STYLE
  2
TEXTSTYLE5
 70
     0
 40
0.0
 41
1.0
 50
0.0
 71
     0
 42
1.0
  3
STANDARD
  4

  0
STYLE
  2
TEXTSTYLE6
 70
     0
 40
0.0
 41
1.0
 50
0.0
 71
     0
 42
1.0
  3
STANDARD
  4

  0
STYLE
  2
TEXTSTYLE7
 70
     0
 40
0.0
 41
1.0
 50
0.0
 71
     0
 42
1.0
  3
ltypeshp.shx
  4

  0
STYLE
  2
TEXTSTYLE8
 70
     0
 40
0.0
 41
1.0
 50
0.0
 71
     0
 42
1.0
  3
ltypeshp.shx
  4

  0
STYLE
  2
TEXTSTYLE9
 70
     0
 40
0.0
 41
1.0
 50
0.0
 71
     0
 42
1.0
  3
qcadshp.shx
  4

  0
STYLE
  2
TEXTSTYLE10
 70
     0
 40
0.0
 41
1.0
 50
0.0
 71
     0
 42
1.0
  3
qcadshp.shx
  4

  0
ENDTAB
  0
TABLE
  2
VIEW
 70
     0
  0
ENDTAB
  0
TABLE
  2
UCS
 70
     0
  0
ENDTAB
  0
TABLE
  2
APPID
 70
     2
  0
APPID
  2
ACAD
 70
     0
  0
APPID
  2
QCAD
 70
     0
  0
ENDTAB
  0
TABLE
  2
DIMSTYLE
 70
     2
  0
DIMSTYLE
  2
STANDARD
 70
     0
  3

  4

  5

  6

  7

 40
1.0
 41
0.18
 42
0.0625
 43
0.38
 44
0.18
 45
0.0
 46
0.0
 47
0.0
 48
0.0
140
0.18
141
0.09
142
0.0
143
25.4
144
1.0
145
0.0
146
1.0
147
0.09
 71
     0
 72
     0
 73
     1
 74
     1
 75
     0
 76
     0
 77
     0
 78
     0
170
     0
171
     2
172
     0
173
     0
174
     0
175
     0
176
     0
177
     0
178
     0
  0
DIMSTYLE
  2
QCADDIMSTYLE
 70
     0
  3

  4

  5

  6

  7

 40
1.0
 41
0.18
 42
0.0625
 43
0.38
 44
0.18
 45
0.0
 46
0.0
 47
0.0
 48
0.0
140
0.18
141
0.09
142
0.0
143
25.4
144
1.0
145
0.0
146
1.0
147
0.09
 71
     0
 72
     0
 73
     1
 74
     1
 75
     0
 76
     0
 77
     0
 78
     0
170
     0
171
     2
172
     0
173
     0
174
     0
175
     0
176
     0
177
     0
178
     0
  0
ENDTAB
  0
ENDSEC
  0
SECTION
  2
BLOCKS
  0
BLOCK
  8
0
  2
$MODEL_SPACE
 70
     0
 10
0.0
 20
0.0
 30
0.0
  3
$MODEL_SPACE
  1

  0
ENDBLK
  5
65F
  8
0
  0
BLOCK
 67
     1
  8
0
  2
$PAPER_SPACE
 70
     0
 10
0.0
 20
0.0
 30
0.0
  3
$PAPER_SPACE
  1

  0
ENDBLK
  5
65B
 67
     1
  8
0
  0
ENDSEC
  0
SECTION
  2
ENTITIES
  0
LINE
  5
62F
  8
PLANTABAIXA
 62
     0
 10
10331.76774658203
 20
-2127.043719520241
 30
-1950.0
 11
10329.76774658203
 21
-2127.043719520241
 31
-1950.0
  0
LINE
  5
630
  8
PLANTABAIXA
 62
     0
 10
10331.76774658203
 20
-1845.490313520241
 30
-1950.0
 11
10329.76774658203
 21
-1845.490313520241
 31
-1950.0
  0
LINE
  5
631
  8
PLANTABAIXA
 62
     0
 10
10329.76774658203
 20
-2127.043719520241
 30
-1950.0
 11
10329.76774658203
 21
-1845.490313520241
 31
-1950.0
  0
LINE
  5
632
  8
PLANTABAIXA
 62
     0
 10
10336.76774658203
 20
-2127.043719520241
 30
-1950.0
 11
10331.76774658203
 21
-2127.043719520241
 31
-1950.0
  0
LINE
  5
633
  8
PLANTABAIXA
 62
     0
 10
10336.76774658203
 20
-1845.490313520241
 30
-1950.0
 11
10331.76774658203
 21
-1845.490313520241
 31
-1950.0
  0
LINE
  5
634
  8
PLANTABAIXA
 62
     0
 10
10336.76774658203
 20
-2127.043719520241
 30
-1950.0
 11
10336.76774658203
 21
-1845.490313520241
 31
-1950.0
  0
LINE
  5
635
  8
PLANTABAIXA
 62
     0
 10
10331.76774658203
 20
-2127.043719520241
 30
-1950.0
 11
10331.76774658203
 21
-1845.490313520241
 31
-1950.0
  0
CIRCLE
  5
636
  8
PLANTABAIXA
 62
     0
 10
11873.48662980078
 20
-2083.053722790749
 30
-1950.0
 40
26.0
  0
CIRCLE
  5
637
  8
PLANTABAIXA
 62
     0
 10
11873.48667557715
 20
2263.088626452415
 30
-1950.0
 40
26.0
  0
CIRCLE
  5
638
  8
PLANTABAIXA
 62
     0
 10
8944.678707437499
 20
2258.580936022728
 30
-1950.0
 40
26.0
  0
CIRCLE
  5
639
  8
PLANTABAIXA
 62
     0
 10
8942.433590249999
 20
-819.7572597780536
 30
-1950.0
 40
26.0
  0
CIRCLE
  5
63A
  8
PLANTABAIXA
 62
     0
 10
12653.45190079687
 20
260.302951403587
 30
-1950.0
 40
26.0
  0
CIRCLE
  5
63B
  8
PLANTABAIXA
 62
     0
 10
10994.59154923438
 20
260.302951403587
 30
-1950.0
 40
26.0
  0
LINE
  5
63C
  8
PLANTABAIXA
 62
     0
 10
7554.037182064874
 20
-1489.273440349667
 30
-1950.0
 11
7555.26545897002
 21
-1489.247290584706
 31
-1950.0
  0
LINE
  5
63D
  8
PLANTABAIXA
 62
     0
 10
7553.962576980965
 20
-1471.270949840042
 30
-1950.0
 11
7554.882329456726
 21
-1471.251368497298
 31
-1950.0
  0
LINE
  5
63E
  8
PLANTABAIXA
 62
     0
 10
7557.029536703583
 20
-1489.209733729314
 30
-1950.0
 11
7556.64640719029
 21
-1471.213811641907
 31
-1950.0
  0
POLYLINE
  5
63F
  8
PLANTABAIXA
 62
     0
 66
     1
 10
0.0
 20
0.0
 30
0.0
  0
VERTEX
  5
71A
  8
PLANTABAIXA
 62
     0
 10
7555.26545897002
 20
-1489.247290584706
 30
0.0
  0
VERTEX
  5
71B
  8
PLANTABAIXA
 62
     0
 10
7557.029536703583
 20
-1489.209733729314
 30
0.0
  0
SEQEND
  5
A4A
  8
PLANTABAIXA
 62
     0
  0
POLYLINE
  5
3D
  8
PLANTABAIXA
 62
     0
 66
     1
 10
0.0
 20
0.0
 30
0.0
  0
VERTEX
  5
71C
  8
PLANTABAIXA
 62
     0
 10
7554.882329456726
 20
-1471.251368497298
 30
0.0
  0
VERTEX
  5
71D
  8
PLANTABAIXA
 62
     0
 10
7556.64640719029
 20
-1471.213811641907
 30
0.0
  0
SEQEND
  5
A4B
  8
PLANTABAIXA
 62
     0
  0
LINE
  5
41
  8
PLANTABAIXA
 62
     0
 10
7557.029536703583
 20
-1489.209733729314
 30
-1950.0
 11
7562.271781024127
 21
-1489.09812741621
 31
-1950.0
  0
LINE
  5
42
  8
PLANTABAIXA
 62
     0
 10
7556.64640719029
 20
-1471.213811641907
 30
-1950.0
 11
7561.888651510833
 21
-1471.102205328802
 31
-1950.0
  0
LINE
  5
43
  8
PLANTABAIXA
 62
     0
 10
11847.01112034277
 20
-480.0209127103653
 30
-1950.0
 11
11847.03727010773
 21
-481.2491896155108
 31
-1950.0
  0
LINE
  5
44
  8
PLANTABAIXA
 62
     0
 10
11865.0136108524
 20
-479.9463076264569
 30
-1950.0
 11
11865.03319219514
 21
-480.8660601022185
 31
-1950.0
  0
LINE
  5
45
  8
PLANTABAIXA
 62
     0
 10
11847.07482696313
 20
-483.0132673490743
 30
-1950.0
 11
11865.07074905053
 21
-482.6301378357816
 31
-1950.0
  0
POLYLINE
  5
46
  8
PLANTABAIXA
 62
     0
 66
     1
 10
0.0
 20
0.0
 30
0.0
  0
VERTEX
  5
71E
  8
PLANTABAIXA
 62
     0
 10
11847.03727010773
 20
-481.2491896155107
 30
0.0
  0
VERTEX
  5
71F
  8
PLANTABAIXA
 62
     0
 10
11847.07482696313
 20
-483.0132673490743
 30
0.0
  0
SEQEND
  5
A4C
  8
PLANTABAIXA
 62
     0
  0
POLYLINE
  5
4A
  8
PLANTABAIXA
 62
     0
 66
     1
 10
0.0
 20
0.0
 30
0.0
  0
VERTEX
  5
720
  8
PLANTABAIXA
 62
     0
 10
11865.03319219514
 20
-480.8660601022184
 30
0.0
  0
VERTEX
  5
721
  8
PLANTABAIXA
 62
     0
 10
11865.07074905053
 20
-482.6301378357821
 30
0.0
  0
SEQEND
  5
A4D
  8
PLANTABAIXA
 62
     0
  0
LINE
  5
4E
  8
PLANTABAIXA
 62
     0
 10
11847.07482696313
 20
-483.0132673490743
 30
-1950.0
 11
11847.18643327623
 21
-488.2555116696176
 31
-1950.0
  0
LINE
  5
4F
  8
PLANTABAIXA
 62
     0
 10
11865.07074905053
 20
-482.6301378357821
 30
-1950.0
 11
11865.18235536364
 21
-487.8723821563253
 31
-1950.0
  0
LINE
  5
50
  8
PLANTABAIXA
 62
     0
 10
11658.43228938599
 20
-45.94997624455482
 30
-1950.0
 11
11659.66056629113
 21
-45.92382647959298
 31
-1950.0
  0
LINE
  5
51
  8
PLANTABAIXA
 62
     0
 10
11658.35768430207
 20
-27.94748573492927
 30
-1950.0
 11
11659.27743677784
 21
-27.92790439218524
 31
-1950.0
  0
LINE
  5
52
  8
PLANTABAIXA
 62
     0
 10
11661.42464402469
 20
-45.88626962420153
 30
-1950.0
 11
11661.0415145114
 21
-27.89034753679394
 31
-1950.0
  0
POLYLINE
  5
53
  8
PLANTABAIXA
 62
     0
 66
     1
 10
0.0
 20
0.0
 30
0.0
  0
VERTEX
  5
722
  8
PLANTABAIXA
 62
     0
 10
11659.66056629113
 20
-45.92382647959289
 30
0.0
  0
VERTEX
  5
723
  8
PLANTABAIXA
 62
     0
 10
11661.42464402469
 20
-45.88626962420153
 30
0.0
  0
SEQEND
  5
A4E
  8
PLANTABAIXA
 62
     0
  0
POLYLINE
  5
57
  8
PLANTABAIXA
 62
     0
 66
     1
 10
0.0
 20
0.0
 30
0.0
  0
VERTEX
  5
724
  8
PLANTABAIXA
 62
     0
 10
11659.27743677784
 20
-27.92790439218516
 30
0.0
  0
VERTEX
  5
725
  8
PLANTABAIXA
 62
     0
 10
11661.0415145114
 20
-27.8903475367938
 30
0.0
  0
SEQEND
  5
A4F
  8
PLANTABAIXA
 62
     0
  0
LINE
  5
5B
  8
PLANTABAIXA
 62
     0
 10
11661.42464402469
 20
-45.88626962420153
 30
-1950.0
 11
11666.66688834524
 21
-45.77466331109702
 31
-1950.0
  0
LINE
  5
5C
  8
PLANTABAIXA
 62
     0
 10
11661.0415145114
 20
-27.8903475367938
 30
-1950.0
 11
11666.28375883194
 21
-27.77874122368928
 31
-1950.0
  0
LINE
  5
5D
  8
PLANTABAIXA
 62
     0
 10
10501.98416369403
 20
-235.963671276101
 30
-1950.0
 11
10503.21244059918
 21
-235.9375215111392
 31
-1950.0
  0
LINE
  5
5E
  8
PLANTABAIXA
 62
     0
 10
10501.90955861012
 20
-217.9611807664754
 30
-1950.0
 11
10502.82931108588
 21
-217.9415994237314
 31
-1950.0
  0
LINE
  5
5F
  8
PLANTABAIXA
 62
     0
 10
10504.97651833274
 20
-235.8999646557477
 30
-1950.0
 11
10504.59338881945
 21
-217.9040425683401
 31
-1950.0
  0
POLYLINE
  5
60
  8
PLANTABAIXA
 62
     0
 66
     1
 10
0.0
 20
0.0
 30
0.0
  0
VERTEX
  5
726
  8
PLANTABAIXA
 62
     0
 10
10503.21244059917
 20
-235.937521511139
 30
0.0
  0
VERTEX
  5
727
  8
PLANTABAIXA
 62
     0
 10
10504.97651833274
 20
-235.8999646557477
 30
0.0
  0
SEQEND
  5
A50
  8
PLANTABAIXA
 62
     0
  0
POLYLINE
  5
64
  8
PLANTABAIXA
 62
     0
 66
     1
 10
0.0
 20
0.0
 30
0.0
  0
VERTEX
  5
728
  8
PLANTABAIXA
 62
     0
 10
10502.82931108588
 20
-217.9415994237313
 30
0.0
  0
VERTEX
  5
729
  8
PLANTABAIXA
 62
     0
 10
10504.59338881944
 20
-217.9040425683399
 30
0.0
  0
SEQEND
  5
A51
  8
PLANTABAIXA
 62
     0
  0
LINE
  5
68
  8
PLANTABAIXA
 62
     0
 10
10504.97651833274
 20
-235.8999646557477
 30
-1950.0
 11
10510.21876265328
 21
-235.7883583426432
 31
-1950.0
  0
LINE
  5
69
  8
PLANTABAIXA
 62
     0
 10
10504.59338881944
 20
-217.9040425683399
 30
-1950.0
 11
10509.83563313999
 21
-217.7924362552354
 31
-1950.0
  0
LINE
  5
6A
  8
PLANTABAIXA
 62
     0
 10
9032.786159930663
 20
1014.535876591758
 30
-1950.0
 11
9032.760010165703
 21
1015.764153496903
 31
-1950.0
  0
LINE
  5
6B
  8
PLANTABAIXA
 62
     0
 10
9014.783669421038
 20
1014.46127150785
 30
-1950.0
 11
9014.764088078295
 21
1015.381023983611
 31
-1950.0
  0
LINE
  5
6C
  8
PLANTABAIXA
 62
     0
 10
9032.72245331031
 20
1017.528231230467
 30
-1950.0
 11
9014.726531222903
 21
1017.145101717174
 31
-1950.0
  0
POLYLINE
  5
6D
  8
PLANTABAIXA
 62
     0
 66
     1
 10
0.0
 20
0.0
 30
0.0
  0
VERTEX
  5
72A
  8
PLANTABAIXA
 62
     0
 10
9032.760010165703
 20
1015.764153496903
 30
0.0
  0
VERTEX
  5
72B
  8
PLANTABAIXA
 62
     0
 10
9032.72245331031
 20
1017.528231230467
 30
0.0
  0
SEQEND
  5
A52
  8
PLANTABAIXA
 62
     0
  0
POLYLINE
  5
71
  8
PLANTABAIXA
 62
     0
 66
     1
 10
0.0
 20
0.0
 30
0.0
  0
VERTEX
  5
72C
  8
PLANTABAIXA
 62
     0
 10
9014.764088078295
 20
1015.381023983611
 30
0.0
  0
VERTEX
  5
72D
  8
PLANTABAIXA
 62
     0
 10
9014.726531222903
 20
1017.145101717175
 30
0.0
  0
SEQEND
  5
A53
  8
PLANTABAIXA
 62
     0
  0
LINE
  5
75
  8
PLANTABAIXA
 62
     0
 10
9032.72245331031
 20
1017.528231230467
 30
-1950.0
 11
9032.610846997206
 21
1022.77047555101
 31
-1950.0
  0
LINE
  5
76
  8
PLANTABAIXA
 62
     0
 10
9014.726531222903
 20
1017.145101717175
 30
-1950.0
 11
9014.614924909798
 21
1022.387346037718
 31
-1950.0
  0
LINE
  5
77
  8
PLANTABAIXA
 62
     0
 10
11428.00757781416
 20
1023.554397791524
 30
-1950.0
 11
11427.9814280492
 21
1024.782674696669
 31
-1950.0
  0
LINE
  5
78
  8
PLANTABAIXA
 62
     0
 10
11410.00508730453
 20
1023.479792707616
 30
-1950.0
 11
11409.98550596179
 21
1024.399545183377
 31
-1950.0
  0
LINE
  5
79
  8
PLANTABAIXA
 62
     0
 10
11427.9438711938
 20
1026.546752430233
 30
-1950.0
 11
11409.9479491064
 21
1026.16362291694
 31
-1950.0
  0
POLYLINE
  5
7A
  8
PLANTABAIXA
 62
     0
 66
     1
 10
0.0
 20
0.0
 30
0.0
  0
VERTEX
  5
72E
  8
PLANTABAIXA
 62
     0
 10
11427.9814280492
 20
1024.782674696669
 30
0.0
  0
VERTEX
  5
72F
  8
PLANTABAIXA
 62
     0
 10
11427.9438711938
 20
1026.546752430233
 30
0.0
  0
SEQEND
  5
A54
  8
PLANTABAIXA
 62
     0
  0
POLYLINE
  5
7E
  8
PLANTABAIXA
 62
     0
 66
     1
 10
0.0
 20
0.0
 30
0.0
  0
VERTEX
  5
730
  8
PLANTABAIXA
 62
     0
 10
11409.98550596179
 20
1024.399545183377
 30
0.0
  0
VERTEX
  5
731
  8
PLANTABAIXA
 62
     0
 10
11409.9479491064
 20
1026.163622916941
 30
0.0
  0
SEQEND
  5
A55
  8
PLANTABAIXA
 62
     0
  0
LINE
  5
82
  8
PLANTABAIXA
 62
     0
 10
11427.9438711938
 20
1026.546752430233
 30
-1950.0
 11
11427.8322648807
 21
1031.788996750776
 31
-1950.0
  0
LINE
  5
83
  8
PLANTABAIXA
 62
     0
 10
11409.9479491064
 20
1026.163622916941
 30
-1950.0
 11
11409.83634279329
 21
1031.405867237484
 31
-1950.0
  0
LINE
  5
84
  8
PLANTABAIXA
 62
     0
 10
7556.496274948717
 20
1084.591395073508
 30
-1950.0
 11
7560.255696024355
 21
1084.591395073508
 31
-1950.0
  0
LINE
  5
85
  8
PLANTABAIXA
 62
     0
 10
7556.923398009772
 20
1121.449336073508
 30
-1950.0
 11
7560.255696024355
 21
1121.449336073508
 31
-1950.0
  0
LINE
  5
86
  8
PLANTABAIXA
 62
     0
 10
7560.255696024355
 20
1121.449336073508
 30
-1950.0
 11
7560.255696024355
 21
1084.591395073508
 31
-1950.0
  0
LINE
  5
87
  8
PLANTABAIXA
 62
     0
 10
8858.430350927927
 20
847.4946859958848
 30
-1950.0
 11
8858.430350927927
 21
843.7352649202476
 31
-1950.0
  0
LINE
  5
88
  8
PLANTABAIXA
 62
     0
 10
8895.288291927927
 20
847.0675629348298
 30
-1950.0
 11
8895.288291927927
 21
843.7352649202476
 31
-1950.0
  0
LINE
  5
89
  8
PLANTABAIXA
 62
     0
 10
8895.288291927925
 20
843.7352649202476
 30
-1950.0
 11
8858.430350927927
 21
843.7352649202476
 31
-1950.0
  0
LINE
  5
8A
  8
PLANTABAIXA
 62
     0
 10
8159.837804525486
 20
847.4946923655266
 30
-1950.0
 11
8159.837804525486
 21
843.7352712898894
 31
-1950.0
  0
LINE
  5
8B
  8
PLANTABAIXA
 62
     0
 10
8196.695745525485
 20
847.0675693044716
 30
-1950.0
 11
8196.695745525485
 21
843.7352712898894
 31
-1950.0
  0
LINE
  5
8C
  8
PLANTABAIXA
 62
     0
 10
8196.695745525485
 20
843.7352712898894
 30
-1950.0
 11
8159.837804525486
 21
843.7352712898894
 31
-1950.0
  0
LINE
  5
8D
  8
PLANTABAIXA
 62
     0
 10
12330.25945249043
 20
-477.9556313869278
 30
-1950.0
 11
12330.25945249043
 21
-481.7150524625652
 31
-1950.0
  0
LINE
  5
8E
  8
PLANTABAIXA
 62
     0
 10
12367.11739349043
 20
-478.382754447983
 30
-1950.0
 11
12367.11739349043
 21
-481.7150524625652
 31
-1950.0
  0
LINE
  5
8F
  8
PLANTABAIXA
 62
     0
 10
12367.11739349043
 20
-481.7150524625652
 30
-1950.0
 11
12330.25945249043
 21
-481.7150524625652
 31
-1950.0
  0
LINE
  5
90
  8
PLANTABAIXA
 62
     0
 10
11651.97481201172
 20
-57.397229057841
 30
-1950.0
 11
11652.45772774273
 21
-57.397229057841
 31
-1950.0
  0
LINE
  5
91
  8
PLANTABAIXA
 62
     0
 10
11656.58139093608
 20
-57.397229057841
 30
-1950.0
 11
11660.34081201172
 21
-57.397229057841
 31
-1950.0
  0
LINE
  5
92
  8
PLANTABAIXA
 62
     0
 10
11651.97481201172
 20
-20.53928805784096
 30
-1950.0
 11
11652.45772774273
 21
-20.53928805784096
 31
-1950.0
  0
LINE
  5
93
  8
PLANTABAIXA
 62
     0
 10
11657.00851399714
 20
-20.53928805784096
 30
-1950.0
 11
11660.34081201172
 21
-20.53928805784096
 31
-1950.0
  0
LINE
  5
94
  8
PLANTABAIXA
 62
     0
 10
11660.34081201172
 20
-20.53928805784096
 30
-1950.0
 11
11660.34081201172
 21
-27.90526535019399
 31
-1950.0
  0
LINE
  5
95
  8
PLANTABAIXA
 62
     0
 10
11660.34081201172
 20
-45.90934418684992
 30
-1950.0
 11
11660.34081201172
 21
-57.397229057841
 31
-1950.0
  0
LINE
  5
96
  8
PLANTABAIXA
 62
     0
 10
7552.006040573719
 20
-1271.14065523118
 30
-1950.0
 11
7555.765461649356
 21
-1271.14065523118
 31
-1950.0
  0
LINE
  5
97
  8
PLANTABAIXA
 62
     0
 10
7552.433163634774
 20
-1234.28271423118
 30
-1950.0
 11
7555.765461649356
 21
-1234.28271423118
 31
-1950.0
  0
LINE
  5
98
  8
PLANTABAIXA
 62
     0
 10
7555.765461649356
 20
-1234.28271423118
 30
-1950.0
 11
7555.765461649356
 21
-1271.14065523118
 31
-1950.0
  0
LINE
  5
99
  8
PLANTABAIXA
 62
     0
 10
8858.430350927927
 20
3504.690486777135
 30
-1950.0
 11
8858.430350927927
 21
3500.931065701498
 31
-1950.0
  0
LINE
  5
9A
  8
PLANTABAIXA
 62
     0
 10
8895.288291927927
 20
3504.26336371608
 30
-1950.0
 11
8895.288291927927
 21
3500.931065701498
 31
-1950.0
  0
LINE
  5
9B
  8
PLANTABAIXA
 62
     0
 10
8895.288291927925
 20
3500.931065701498
 30
-1950.0
 11
8858.430350927927
 21
3500.931065701498
 31
-1950.0
  0
LINE
  5
9C
  8
PLANTABAIXA
 62
     0
 10
11183.32427182636
 20
3504.690486777135
 30
-1950.0
 11
11183.32427182636
 21
3500.931065701498
 31
-1950.0
  0
LINE
  5
9D
  8
PLANTABAIXA
 62
     0
 10
11220.18221282636
 20
3504.26336371608
 30
-1950.0
 11
11220.18221282636
 21
3500.931065701498
 31
-1950.0
  0
LINE
  5
9E
  8
PLANTABAIXA
 62
     0
 10
11220.18221282636
 20
3500.931065701498
 30
-1950.0
 11
11183.32427182636
 21
3500.931065701498
 31
-1950.0
  0
LINE
  5
9F
  8
PLANTABAIXA
 62
     0
 10
8159.837804525486
 20
3504.690486777135
 30
-1950.0
 11
8159.837804525486
 21
3500.931065701498
 31
-1950.0
  0
LINE
  5
A0
  8
PLANTABAIXA
 62
     0
 10
8196.695745525485
 20
3504.26336371608
 30
-1950.0
 11
8196.695745525485
 21
3500.931065701498
 31
-1950.0
  0
LINE
  5
A1
  8
PLANTABAIXA
 62
     0
 10
8196.695745525485
 20
3500.931065701498
 30
-1950.0
 11
8159.837804525486
 21
3500.931065701498
 31
-1950.0
  0
LINE
  5
A2
  8
PLANTABAIXA
 62
     0
 10
10496.00969360352
 20
-1358.820670549349
 30
-1950.0
 11
10496.70699220807
 21
-1358.820670549349
 31
-1950.0
  0
LINE
  5
A3
  8
PLANTABAIXA
 62
     0
 10
10500.61627252788
 20
-1358.820670549349
 30
-1950.0
 11
10504.37569360352
 21
-1358.820670549349
 31
-1950.0
  0
LINE
  5
A4
  8
PLANTABAIXA
 62
     0
 10
10496.00969360352
 20
-1321.962729549349
 30
-1950.0
 11
10496.70699220807
 21
-1321.962729549349
 31
-1950.0
  0
LINE
  5
A5
  8
PLANTABAIXA
 62
     0
 10
10501.04339558894
 20
-1321.962729549349
 30
-1950.0
 11
10504.37569360352
 21
-1321.962729549349
 31
-1950.0
  0
LINE
  5
A6
  8
PLANTABAIXA
 62
     0
 10
10504.37569360352
 20
-1321.962729549349
 30
-1950.0
 11
10504.37569360352
 21
-1358.820670549349
 31
-1950.0
  0
LINE
  5
A7
  8
PLANTABAIXA
 62
     0
 10
10496.00960205078
 20
-1372.524212549349
 30
-1950.0
 11
10496.00969360352
 21
-1372.524212549349
 31
-1950.0
  0
LINE
  5
A8
  8
PLANTABAIXA
 62
     0
 10
10496.00960205078
 20
-1304.907757549349
 30
-1950.0
 11
10496.00969360352
 21
-1304.907757549349
 31
-1950.0
  0
LINE
  5
A9
  8
PLANTABAIXA
 62
     0
 10
10496.00969360352
 20
-1372.524212549349
 30
-1950.0
 11
10496.00969360352
 21
-1304.907757549349
 31
-1950.0
  0
ARC
  5
AA
  8
PLANTABAIXA
 62
     0
 10
10494.00969360352
 20
-1375.524212549349
 30
-1950.0
 40
2.0
 50
0.0
 51
0.5482264140593823
  0
LINE
  5
AB
  8
PLANTABAIXA
 62
     0
 10
10496.00969360352
 20
-1375.524212549349
 30
-1950.0
 11
10496.00960205078
 21
-1375.524212549349
 31
-1950.0
  0
LINE
  5
AC
  8
PLANTABAIXA
 62
     0
 10
10496.00960205078
 20
-1377.524212549349
 30
-1950.0
 11
10496.00969360352
 21
-1377.524212549349
 31
-1950.0
  0
LINE
  5
AD
  8
PLANTABAIXA
 62
     0
 10
10496.00969360352
 20
-1377.524212549349
 30
-1950.0
 11
10496.00969360352
 21
-1375.524212549349
 31
-1950.0
  0
ARC
  5
AE
  8
PLANTABAIXA
 62
     0
 10
10494.00969360352
 20
-1301.907757549349
 30
-1950.0
 40
2.0
 50
359.4517735857718
 51
0.0
  0
LINE
  5
AF
  8
PLANTABAIXA
 62
     0
 10
10496.00960205078
 20
-1301.907757549349
 30
-1950.0
 11
10496.00969360352
 21
-1301.907757549349
 31
-1950.0
  0
LINE
  5
B0
  8
PLANTABAIXA
 62
     0
 10
10496.00960205078
 20
-1299.907757549349
 30
-1950.0
 11
10496.00969360352
 21
-1299.907757549349
 31
-1950.0
  0
LINE
  5
B1
  8
PLANTABAIXA
 62
     0
 10
10496.00969360352
 20
-1301.907757549349
 30
-1950.0
 11
10496.00969360352
 21
-1299.907757549349
 31
-1950.0
  0
LINE
  5
B2
  8
PLANTABAIXA
 62
     0
 10
10496.00969360352
 20
752.7322642141311
 30
-1950.0
 11
10496.70699220807
 21
752.7322642141311
 31
-1950.0
  0
LINE
  5
B3
  8
PLANTABAIXA
 62
     0
 10
10500.61627252788
 20
752.7322642141311
 30
-1950.0
 11
10504.37569360352
 21
752.7322642141311
 31
-1950.0
  0
LINE
  5
B4
  8
PLANTABAIXA
 62
     0
 10
10496.00969360352
 20
789.5902052141312
 30
-1950.0
 11
10496.70699220807
 21
789.5902052141312
 31
-1950.0
  0
LINE
  5
B5
  8
PLANTABAIXA
 62
     0
 10
10501.04339558894
 20
789.5902052141312
 30
-1950.0
 11
10504.37569360352
 21
789.5902052141312
 31
-1950.0
  0
LINE
  5
B6
  8
PLANTABAIXA
 62
     0
 10
10504.37569360352
 20
789.5902052141312
 30
-1950.0
 11
10504.37569360352
 21
752.7322642141312
 31
-1950.0
  0
LINE
  5
B7
  8
PLANTABAIXA
 62
     0
 10
11706.8832317873
 20
3504.690486777135
 30
-1950.0
 11
11706.8832317873
 21
3500.931065701498
 31
-1950.0
  0
LINE
  5
B8
  8
PLANTABAIXA
 62
     0
 10
11743.7411727873
 20
3504.26336371608
 30
-1950.0
 11
11743.7411727873
 21
3500.931065701498
 31
-1950.0
  0
LINE
  5
B9
  8
PLANTABAIXA
 62
     0
 10
11743.7411727873
 20
3500.931065701498
 30
-1950.0
 11
11706.8832317873
 21
3500.931065701498
 31
-1950.0
  0
LINE
  5
BA
  8
PLANTABAIXA
 62
     0
 10
11706.8832317873
 20
-477.9556313869278
 30
-1950.0
 11
11706.8832317873
 21
-481.7150524625652
 31
-1950.0
  0
LINE
  5
BB
  8
PLANTABAIXA
 62
     0
 10
11743.7411727873
 20
-478.382754447983
 30
-1950.0
 11
11743.7411727873
 21
-481.7150524625652
 31
-1950.0
  0
LINE
  5
BC
  8
PLANTABAIXA
 62
     0
 10
11743.7411727873
 20
-481.7150524625652
 30
-1950.0
 11
11706.8832317873
 21
-481.7150524625652
 31
-1950.0
  0
LINE
  5
BD
  8
PLANTABAIXA
 62
     0
 10
10496.00969360352
 20
2815.235115583465
 30
-1950.0
 11
10496.70699220807
 21
2815.235115583465
 31
-1950.0
  0
LINE
  5
BE
  8
PLANTABAIXA
 62
     0
 10
10500.61627252788
 20
2815.235115583465
 30
-1950.0
 11
10504.37569360352
 21
2815.235115583465
 31
-1950.0
  0
LINE
  5
BF
  8
PLANTABAIXA
 62
     0
 10
10496.00969360352
 20
2852.093056583465
 30
-1950.0
 11
10496.70699220807
 21
2852.093056583465
 31
-1950.0
  0
LINE
  5
C0
  8
PLANTABAIXA
 62
     0
 10
10501.04339558894
 20
2852.093056583465
 30
-1950.0
 11
10504.37569360352
 21
2852.093056583465
 31
-1950.0
  0
LINE
  5
C1
  8
PLANTABAIXA
 62
     0
 10
10504.37569360352
 20
2852.093056583465
 30
-1950.0
 11
10504.37569360352
 21
2815.235115583465
 31
-1950.0
  0
CIRCLE
  5
C2
  8
PLANTABAIXA
 62
     0
 10
7538.194172363281
 20
-1498.675501457741
 30
-1950.0
 40
12.5
  0
CIRCLE
  5
C3
  8
PLANTABAIXA
 62
     0
 10
8877.639035772321
 20
875.2772995286316
 30
-1950.0
 40
12.5
  0
CIRCLE
  5
C4
  8
PLANTABAIXA
 62
     0
 10
10375.64494750977
 20
-2089.826746574929
 30
-1950.0
 40
12.5
  0
CIRCLE
  5
C5
  8
PLANTABAIXA
 62
     0
 10
10387.83464477539
 20
-2022.443445793679
 30
-1950.0
 40
12.5
  0
CIRCLE
  5
C6
  8
PLANTABAIXA
 62
     0
 10
10472.83365899513
 20
-1339.611985704954
 30
-1950.0
 40
12.5
  0
CIRCLE
  5
C7
  8
PLANTABAIXA
 62
     0
 10
11854.77255237388
 20
-449.5390178541808
 30
-1950.0
 40
12.5
  0
CIRCLE
  5
C8
  8
PLANTABAIXA
 62
     0
 10
11627.9503945298
 20
-38.18854421344361
 30
-1950.0
 40
12.5
  0
CIRCLE
  5
C9
  8
PLANTABAIXA
 62
     0
 10
9025.024727899552
 20
984.0539817355736
 30
-1950.0
 40
12.5
  0
CIRCLE
  5
CA
  8
PLANTABAIXA
 62
     0
 10
8877.639035772321
 20
3532.473100309881
 30
-1950.0
 40
12.5
  0
CIRCLE
  5
CB
  8
PLANTABAIXA
 62
     0
 10
10472.83365899513
 20
2834.44380042786
 30
-1950.0
 40
12.5
  0
CIRCLE
  5
CC
  8
PLANTABAIXA
 62
     0
 10
11726.0919166317
 20
3532.473100309881
 30
-1950.0
 40
12.5
  0
CIRCLE
  5
CD
  8
PLANTABAIXA
 62
     0
 10
11420.24614578305
 20
993.0725029353396
 30
-1950.0
 40
12.5
  0
CIRCLE
  5
CE
  8
PLANTABAIXA
 62
     0
 10
10471.50226883784
 20
-228.2022392449898
 30
-1950.0
 40
12.5
  0
LINE
  5
CF
  8
PLANTABAIXA
 62
     0
 10
9378.311726074218
 20
-2628.368494621804
 30
-1950.0
 11
9083.74446533203
 21
-2628.368494621804
 31
-1950.0
  0
LINE
  5
D0
  8
PLANTABAIXA
 62
     0
 10
9378.311726074218
 20
-2491.172693840554
 30
-1950.0
 11
9378.311726074218
 21
-2628.368494621804
 31
-1950.0
  0
LINE
  5
D1
  8
PLANTABAIXA
 62
     0
 10
9083.74446533203
 20
-2491.172693840554
 30
-1950.0
 11
9378.311726074218
 21
-2491.172693840554
 31
-1950.0
  0
LINE
  5
D2
  8
PLANTABAIXA
 62
     0
 10
9083.74446533203
 20
-2628.368494621804
 30
-1950.0
 11
9083.74446533203
 21
-2491.172693840554
 31
-1950.0
  0
LINE
  5
D3
  8
PLANTABAIXA
 62
     0
 10
7551.211018066406
 20
2365.641271003196
 30
-1950.0
 11
7397.587971191406
 21
2365.641271003196
 31
-1950.0
  0
LINE
  5
D4
  8
PLANTABAIXA
 62
     0
 10
7551.211018066406
 20
2563.864415534446
 30
-1950.0
 11
7551.211018066406
 21
2365.641271003196
 31
-1950.0
  0
LINE
  5
D5
  8
PLANTABAIXA
 62
     0
 10
7397.587971191406
 20
2563.864415534446
 30
-1950.0
 11
7551.211018066406
 21
2563.864415534446
 31
-1950.0
  0
LINE
  5
D6
  8
PLANTABAIXA
 62
     0
 10
7397.587971191406
 20
2365.641271003196
 30
-1950.0
 11
7397.587971191406
 21
2563.864415534446
 31
-1950.0
  0
LINE
  5
D7
  8
PLANTABAIXA
 62
     0
 10
7395.606281738281
 20
3664.713048346946
 30
-1950.0
 11
7395.606281738281
 21
3474.749181159446
 31
-1950.0
  0
LINE
  5
D8
  8
PLANTABAIXA
 62
     0
 10
13395.42097900391
 20
3664.713048346946
 30
-1950.0
 11
7395.606281738281
 21
3664.713048346946
 31
-1950.0
  0
LINE
  5
D9
  8
PLANTABAIXA
 62
     0
 10
7395.606281738281
 20
3474.749181159446
 30
-1950.0
 11
7551.211018066406
 21
3474.749181159446
 31
-1950.0
  0
LINE
  5
DA
  8
PLANTABAIXA
 62
     0
 10
7551.211018066406
 20
3474.749181159446
 30
-1950.0
 11
7551.211018066406
 21
3508.599767096946
 31
-1950.0
  0
LINE
  5
DB
  8
PLANTABAIXA
 62
     0
 10
7551.211018066406
 20
3508.599767096946
 30
-1950.0
 11
10336.76948974609
 21
3508.599767096946
 31
-1950.0
  0
LINE
  5
DC
  8
PLANTABAIXA
 62
     0
 10
10336.76948974609
 20
3508.599767096946
 30
-1950.0
 11
10336.76948974609
 21
1012.246861823509
 31
-1950.0
  0
LINE
  5
DD
  8
PLANTABAIXA
 62
     0
 10
10336.76948974609
 20
1012.246861823509
 30
-1950.0
 11
10214.3021206665
 21
1012.246861823509
 31
-1950.0
  0
LINE
  5
DE
  8
PLANTABAIXA
 62
     0
 10
10214.3021206665
 20
1012.246861823509
 30
-1950.0
 11
10214.3021206665
 21
859.2213491281964
 31
-1950.0
  0
LINE
  5
DF
  8
PLANTABAIXA
 62
     0
 10
10214.3021206665
 20
859.2213491281964
 30
-1950.0
 11
10336.76948974609
 21
859.2213491281964
 31
-1950.0
  0
LINE
  5
E0
  8
PLANTABAIXA
 62
     0
 10
10336.76948974609
 20
859.2213491281964
 30
-1950.0
 11
10336.76948974609
 21
692.9623769602276
 31
-1950.0
  0
LINE
  5
E1
  8
PLANTABAIXA
 62
     0
 10
10336.76948974609
 20
692.9623769602276
 30
-1950.0
 11
10496.00969360352
 21
692.9623769602276
 31
-1950.0
  0
LINE
  5
E2
  8
PLANTABAIXA
 62
     0
 10
10496.00969360352
 20
692.9623769602276
 30
-1950.0
 11
10496.00969360352
 21
859.2213491281964
 31
-1950.0
  0
LINE
  5
E3
  8
PLANTABAIXA
 62
     0
 10
10496.00969360352
 20
859.2213491281964
 30
-1950.0
 11
10527.55986450195
 21
859.2213491281964
 31
-1950.0
  0
LINE
  5
E4
  8
PLANTABAIXA
 62
     0
 10
10527.55986450195
 20
859.2213491281964
 30
-1950.0
 11
10527.55986450195
 21
1012.246861823509
 31
-1950.0
  0
LINE
  5
E5
  8
PLANTABAIXA
 62
     0
 10
10527.55986450195
 20
1012.246861823509
 30
-1950.0
 11
10496.00969360352
 21
1012.246861823509
 31
-1950.0
  0
LINE
  5
E6
  8
PLANTABAIXA
 62
     0
 10
10496.00969360352
 20
1012.246861823509
 30
-1950.0
 11
10496.00969360352
 21
3508.599767096946
 31
-1950.0
  0
LINE
  5
E7
  8
PLANTABAIXA
 62
     0
 10
10496.00969360352
 20
3508.599767096946
 30
-1950.0
 11
13250.96272705078
 21
3508.599767096946
 31
-1950.0
  0
LINE
  5
E8
  8
PLANTABAIXA
 62
     0
 10
13250.96272705078
 20
3508.599767096946
 30
-1950.0
 11
13250.96272705078
 21
2943.770421393821
 31
-1950.0
  0
LINE
  5
E9
  8
PLANTABAIXA
 62
     0
 10
13250.96272705078
 20
2943.770421393821
 30
-1950.0
 11
13395.42097900391
 21
2943.770421393821
 31
-1950.0
  0
LINE
  5
EA
  8
PLANTABAIXA
 62
     0
 10
13395.42097900391
 20
2943.770421393821
 30
-1950.0
 11
13395.42097900391
 21
3664.713048346946
 31
-1950.0
  0
LINE
  5
EB
  8
PLANTABAIXA
 62
     0
 10
13654.92805908203
 20
567.9277700266339
 30
-1950.0
 11
13654.92805908203
 21
863.5077260813214
 31
-1950.0
  0
LINE
  5
EC
  8
PLANTABAIXA
 62
     0
 10
13805.65633056641
 20
567.9277700266339
 30
-1950.0
 11
13654.92805908203
 21
567.9277700266339
 31
-1950.0
  0
LINE
  5
ED
  8
PLANTABAIXA
 62
     0
 10
13805.65633056641
 20
1017.576695807884
 30
-1950.0
 11
13805.65633056641
 21
567.9277700266339
 31
-1950.0
  0
LINE
  5
EE
  8
PLANTABAIXA
 62
     0
 10
13386.55843017578
 20
1017.576695807884
 30
-1950.0
 11
13805.65633056641
 21
1017.576695807884
 31
-1950.0
  0
LINE
  5
EF
  8
PLANTABAIXA
 62
     0
 10
13386.55843017578
 20
1730.154454596946
 30
-1950.0
 11
13386.55843017578
 21
1017.576695807884
 31
-1950.0
  0
LINE
  5
F0
  8
PLANTABAIXA
 62
     0
 10
13250.96272705078
 20
1730.154454596946
 30
-1950.0
 11
13386.55843017578
 21
1730.154454596946
 31
-1950.0
  0
LINE
  5
F1
  8
PLANTABAIXA
 62
     0
 10
13250.96272705078
 20
1017.576695807884
 30
-1950.0
 11
13250.96272705078
 21
1730.154454596946
 31
-1950.0
  0
LINE
  5
F2
  8
PLANTABAIXA
 62
     0
 10
11305.71260498047
 20
1017.576695807884
 30
-1950.0
 11
13250.96272705078
 21
1017.576695807884
 31
-1950.0
  0
LINE
  5
F3
  8
PLANTABAIXA
 62
     0
 10
11305.71260498047
 20
863.5077260813214
 30
-1950.0
 11
11305.71260498047
 21
1017.576695807884
 31
-1950.0
  0
LINE
  5
F4
  8
PLANTABAIXA
 62
     0
 10
11493.17256591797
 20
863.5077260813214
 30
-1950.0
 11
11305.71260498047
 21
863.5077260813214
 31
-1950.0
  0
LINE
  5
F5
  8
PLANTABAIXA
 62
     0
 10
11493.17256591797
 20
827.4195913156964
 30
-1950.0
 11
11493.17256591797
 21
863.5077260813214
 31
-1950.0
  0
LINE
  5
F6
  8
PLANTABAIXA
 62
     0
 10
11652.33736083984
 20
827.4195913156964
 30
-1950.0
 11
11493.17256591797
 21
827.4195913156964
 31
-1950.0
  0
LINE
  5
F7
  8
PLANTABAIXA
 62
     0
 10
11652.33736083984
 20
863.5077260813214
 30
-1950.0
 11
11652.33736083984
 21
827.4195913156964
 31
-1950.0
  0
LINE
  5
F8
  8
PLANTABAIXA
 62
     0
 10
11652.33736083984
 20
863.5077260813214
 30
-1950.0
 11
13654.92805908203
 21
863.5077260813214
 31
-1950.0
  0
LINE
  5
F9
  8
PLANTABAIXA
 62
     0
 10
11484.51436279297
 20
108.1116994699933
 30
-1950.0
 11
11651.97481201172
 21
108.1116994699933
 31
-1950.0
  0
LINE
  5
FA
  8
PLANTABAIXA
 62
     0
 10
11484.51436279297
 20
-342.9026132741474
 30
-1950.0
 11
11484.51436279297
 21
108.1116994699933
 31
-1950.0
  0
LINE
  5
FB
  8
PLANTABAIXA
 62
     0
 10
11348.65437744141
 20
-342.9026132741474
 30
-1950.0
 11
11484.51436279297
 21
-342.9026132741474
 31
-1950.0
  0
LINE
  5
FC
  8
PLANTABAIXA
 62
     0
 10
11348.65437744141
 20
-474.0463510671161
 30
-1950.0
 11
11348.65437744141
 21
-342.9026132741474
 31
-1950.0
  0
LINE
  5
FD
  8
PLANTABAIXA
 62
     0
 10
13250.96272705078
 20
-474.0463510671161
 30
-1950.0
 11
11348.65437744141
 21
-474.0463510671161
 31
-1950.0
  0
LINE
  5
FE
  8
PLANTABAIXA
 62
     0
 10
13250.96272705078
 20
-3692.061853996804
 30
-1950.0
 11
13250.96272705078
 21
-474.0463510671161
 31
-1950.0
  0
LINE
  5
FF
  8
PLANTABAIXA
 62
     0
 10
12473.60579345703
 20
-3692.061853996804
 30
-1950.0
 11
13250.96272705078
 21
-3692.061853996804
 31
-1950.0
  0
LINE
  5
100
  8
PLANTABAIXA
 62
     0
 10
12473.60579345703
 20
-3826.769129387429
 30
-1950.0
 11
12473.60579345703
 21
-3692.061853996804
 31
-1950.0
  0
LINE
  5
101
  8
PLANTABAIXA
 62
     0
 10
13389.61580322266
 20
-3826.769129387429
 30
-1950.0
 11
12473.60579345703
 21
-3826.769129387429
 31
-1950.0
  0
LINE
  5
102
  8
PLANTABAIXA
 62
     0
 10
13389.61580322266
 20
-474.0463510671161
 30
-1950.0
 11
13389.61580322266
 21
-3826.769129387429
 31
-1950.0
  0
LINE
  5
103
  8
PLANTABAIXA
 62
     0
 10
13805.65633056641
 20
-474.0463510671161
 30
-1950.0
 11
13389.61580322266
 21
-474.0463510671161
 31
-1950.0
  0
LINE
  5
104
  8
PLANTABAIXA
 62
     0
 10
13805.65633056641
 20
-28.797052971413
 30
-1950.0
 11
13805.65633056641
 21
-474.0463510671161
 31
-1950.0
  0
LINE
  5
105
  8
PLANTABAIXA
 62
     0
 10
13654.92805908203
 20
-28.797052971413
 30
-1950.0
 11
13805.65633056641
 21
-28.797052971413
 31
-1950.0
  0
LINE
  5
106
  8
PLANTABAIXA
 62
     0
 10
13654.92805908203
 20
-342.9026132741474
 30
-1950.0
 11
13654.92805908203
 21
-28.797052971413
 31
-1950.0
  0
LINE
  5
107
  8
PLANTABAIXA
 62
     0
 10
11651.97481201172
 20
-342.9026132741474
 30
-1950.0
 11
13654.92805908203
 21
-342.9026132741474
 31
-1950.0
  0
LINE
  5
108
  8
PLANTABAIXA
 62
     0
 10
11651.97481201172
 20
108.1116994699933
 30
-1950.0
 11
11651.97481201172
 21
-342.9026132741474
 31
-1950.0
  0
LINE
  5
109
  8
PLANTABAIXA
 62
     0
 10
11493.17256591797
 20
827.4195913156946
 30
-1950.0
 11
11493.17256591797
 21
727.4195913156946
 31
-1950.0
  0
LINE
  5
10A
  8
PLANTABAIXA
 62
     0
 10
11663.17256591797
 20
727.4195913156946
 30
-1950.0
 11
11593.17256591797
 21
727.4195913156946
 31
-1950.0
  0
LINE
  5
10B
  8
PLANTABAIXA
 62
     0
 10
11593.17256591797
 20
727.4195913156946
 30
-1950.0
 11
11493.17256591797
 21
727.4195913156946
 31
-1950.0
  0
LINE
  5
10C
  8
PLANTABAIXA
 62
     0
 10
11663.17256591797
 20
827.4195913156946
 30
-1950.0
 11
11663.17256591797
 21
727.4195913156946
 31
-1950.0
  0
LINE
  5
10D
  8
PLANTABAIXA
 62
     0
 10
11663.17256591797
 20
827.4195913156948
 30
-1950.0
 11
11493.17256591797
 21
827.4195913156946
 31
-1950.0
  0
LINE
  5
10E
  8
PLANTABAIXA
 62
     0
 10
11493.17256591797
 20
217.4195913156946
 30
-1950.0
 11
11493.17256591797
 21
117.4195913156946
 31
-1950.0
  0
LINE
  5
10F
  8
PLANTABAIXA
 62
     0
 10
11493.17256591797
 20
117.4195913156946
 30
-1950.0
 11
11663.17256591797
 21
117.4195913156946
 31
-1950.0
  0
LINE
  5
110
  8
PLANTABAIXA
 62
     0
 10
11493.17256591797
 20
217.4195913156946
 30
-1950.0
 11
11593.17256591797
 21
217.4195913156946
 31
-1950.0
  0
LINE
  5
111
  8
PLANTABAIXA
 62
     0
 10
11593.17256591797
 20
217.4195913156946
 30
-1950.0
 11
11663.17256591797
 21
217.4195913156946
 31
-1950.0
  0
LINE
  5
112
  8
PLANTABAIXA
 62
     0
 10
11663.17256591797
 20
217.4195913156946
 30
-1950.0
 11
11663.17256591797
 21
117.4195913156946
 31
-1950.0
  0
LINE
  5
113
  8
PLANTABAIXA
 62
     0
 10
11693.17256591797
 20
727.4195913156946
 30
-1950.0
 11
11663.17256591797
 21
727.4195913156946
 31
-1950.0
  0
LINE
  5
114
  8
PLANTABAIXA
 62
     0
 10
11663.17256591797
 20
217.4195913156946
 30
-1950.0
 11
11693.17256591797
 21
217.4195913156946
 31
-1950.0
  0
LINE
  5
115
  8
PLANTABAIXA
 62
     0
 10
11593.17256591797
 20
727.4195913156946
 30
-1950.0
 11
11593.17256591797
 21
217.4195913156946
 31
-1950.0
  0
LINE
  5
116
  8
PLANTABAIXA
 62
     0
 10
11693.17256591797
 20
727.4195913156946
 30
-1950.0
 11
11693.17256591797
 21
217.4195913156946
 31
-1950.0
  0
LINE
  5
117
  8
PLANTABAIXA
 62
     0
 10
10496.00960205078
 20
-342.9026132741474
 30
-1950.0
 11
10534.11134765625
 21
-342.9026132741474
 31
-1950.0
  0
LINE
  5
118
  8
PLANTABAIXA
 62
     0
 10
10496.00960205078
 20
-111.210138908913
 30
-1950.0
 11
10496.00960205078
 21
-342.9026132741474
 31
-1950.0
  0
LINE
  5
119
  8
PLANTABAIXA
 62
     0
 10
10336.76936767578
 20
-111.210138908913
 30
-1950.0
 11
10496.00960205078
 21
-111.210138908913
 31
-1950.0
  0
LINE
  5
11A
  8
PLANTABAIXA
 62
     0
 10
10336.76936767578
 20
-2491.172693840554
 30
-1950.0
 11
10336.76936767578
 21
-111.210138908913
 31
-1950.0
  0
LINE
  5
11B
  8
PLANTABAIXA
 62
     0
 10
10283.98344848633
 20
-2491.172693840554
 30
-1950.0
 11
10336.76936767578
 21
-2491.172693840554
 31
-1950.0
  0
LINE
  5
11C
  8
PLANTABAIXA
 62
     0
 10
10283.98344848633
 20
-2623.695887199929
 30
-1950.0
 11
10283.98344848633
 21
-2491.172693840554
 31
-1950.0
  0
LINE
  5
11D
  8
PLANTABAIXA
 62
     0
 10
10336.76936767578
 20
-2623.695887199929
 30
-1950.0
 11
10283.98344848633
 21
-2623.695887199929
 31
-1950.0
  0
LINE
  5
11E
  8
PLANTABAIXA
 62
     0
 10
10336.76936767578
 20
-3826.769129387429
 30
-1950.0
 11
10336.76936767578
 21
-2623.695887199929
 31
-1950.0
  0
LINE
  5
11F
  8
PLANTABAIXA
 62
     0
 10
11268.04085205078
 20
-3826.769129387429
 30
-1950.0
 11
10336.76936767578
 21
-3826.769129387429
 31
-1950.0
  0
LINE
  5
120
  8
PLANTABAIXA
 62
     0
 10
11268.04085205078
 20
-3692.061853996804
 30
-1950.0
 11
11268.04085205078
 21
-3826.769129387429
 31
-1950.0
  0
LINE
  5
121
  8
PLANTABAIXA
 62
     0
 10
10496.00960205078
 20
-3692.061853996804
 30
-1950.0
 11
11268.04085205078
 21
-3692.061853996804
 31
-1950.0
  0
LINE
  5
122
  8
PLANTABAIXA
 62
     0
 10
10496.00960205078
 20
-474.0463815846942
 30
-1950.0
 11
10496.00960205078
 21
-3692.061853996804
 31
-1950.0
  0
LINE
  5
123
  8
PLANTABAIXA
 62
     0
 10
10534.11134765625
 20
-474.0463815846942
 30
-1950.0
 11
10496.00960205078
 21
-474.0463815846942
 31
-1950.0
  0
LINE
  5
124
  8
PLANTABAIXA
 62
     0
 10
10534.11134765625
 20
-342.9026132741474
 30
-1950.0
 11
10534.11134765625
 21
-474.0463815846942
 31
-1950.0
  0
LINE
  5
125
  8
PLANTABAIXA
 62
     0
 10
7891.461018066406
 20
-2620.053797356179
 30
-1950.0
 11
7891.461018066406
 21
-2498.736658684304
 31
-1950.0
  0
LINE
  5
126
  8
PLANTABAIXA
 62
     0
 10
7398.840656738281
 20
-2620.053797356179
 30
-1950.0
 11
7891.461018066406
 21
-2620.053797356179
 31
-1950.0
  0
LINE
  5
127
  8
PLANTABAIXA
 62
     0
 10
7891.461018066406
 20
-2498.736658684304
 30
-1950.0
 11
7548.096760253906
 21
-2498.736658684304
 31
-1950.0
  0
LINE
  5
128
  8
PLANTABAIXA
 62
     0
 10
7548.096760253906
 20
-2498.736658684304
 30
-1950.0
 11
7548.096760253906
 21
851.4039663156964
 31
-1950.0
  0
LINE
  5
129
  8
PLANTABAIXA
 62
     0
 10
7548.096760253906
 20
851.4039663156964
 30
-1950.0
 11
9420.514301757812
 21
851.4039663156964
 31
-1950.0
  0
LINE
  5
12A
  8
PLANTABAIXA
 62
     0
 10
9420.514301757812
 20
851.4039663156964
 30
-1950.0
 11
9420.514301757812
 21
1008.561314948509
 31
-1950.0
  0
LINE
  5
12B
  8
PLANTABAIXA
 62
     0
 10
9420.514301757812
 20
1008.561314948509
 30
-1950.0
 11
7552.586994628906
 21
1008.561314948509
 31
-1950.0
  0
LINE
  5
12C
  8
PLANTABAIXA
 62
     0
 10
7552.586994628906
 20
1008.561314948509
 30
-1950.0
 11
7552.586994628906
 21
1206.130528815696
 31
-1950.0
  0
LINE
  5
12D
  8
PLANTABAIXA
 62
     0
 10
7552.586994628906
 20
1206.130528815696
 30
-1950.0
 11
7398.840656738281
 21
1206.130528815696
 31
-1950.0
  0
LINE
  5
12E
  8
PLANTABAIXA
 62
     0
 10
7398.840656738281
 20
1206.130528815696
 30
-1950.0
 11
7398.840656738281
 21
-2620.053797356179
 31
-1950.0
  0
LINE
  5
12F
  8
PLANTABAIXA
 62
     0
 10
7517.587971191406
 20
2365.641271003196
 30
-1950.0
 11
7397.587971191406
 21
2365.641271003196
 31
-1950.0
  0
LINE
  5
130
  8
PLANTABAIXA
 62
     0
 10
7397.587971191406
 20
1205.641271003196
 30
-1950.0
 11
7517.587971191406
 21
1205.641271003196
 31
-1950.0
  0
LINE
  5
131
  8
PLANTABAIXA
 62
     0
 10
7397.587971191406
 20
2365.641271003196
 30
-1950.0
 11
7397.587971191406
 21
2265.641271003196
 31
-1950.0
  0
LINE
  5
132
  8
PLANTABAIXA
 62
     0
 10
7397.587971191406
 20
1305.641271003196
 30
-1950.0
 11
7397.587971191406
 21
1205.641271003196
 31
-1950.0
  0
LINE
  5
133
  8
PLANTABAIXA
 62
     0
 10
7517.587971191406
 20
2365.641271003196
 30
-1950.0
 11
7517.587971191406
 21
2265.641271003196
 31
-1950.0
  0
LINE
  5
134
  8
PLANTABAIXA
 62
     0
 10
7517.587971191406
 20
1305.641271003196
 30
-1950.0
 11
7517.587971191406
 21
1205.641271003196
 31
-1950.0
  0
LINE
  5
135
  8
PLANTABAIXA
 62
     0
 10
7517.587971191406
 20
2265.641271003196
 30
-1950.0
 11
7397.587971191406
 21
2265.641271003196
 31
-1950.0
  0
LINE
  5
136
  8
PLANTABAIXA
 62
     0
 10
7397.587971191406
 20
1305.641271003196
 30
-1950.0
 11
7517.587971191406
 21
1305.641271003196
 31
-1950.0
  0
LINE
  5
137
  8
PLANTABAIXA
 62
     0
 10
7497.587971191406
 20
2255.641271003196
 30
-1950.0
 11
7497.587971191406
 21
1315.641271003196
 31
-1950.0
  0
LINE
  5
138
  8
PLANTABAIXA
 62
     0
 10
7552.586994628906
 20
1206.130528815696
 30
-1950.0
 11
7397.587971191406
 21
1206.130528815696
 31
-1950.0
  0
LINE
  5
139
  8
PLANTABAIXA
 62
     0
 10
7552.586994628906
 20
2365.641271003196
 30
-1950.0
 11
7552.586994628906
 21
1206.130528815696
 31
-1950.0
  0
LINE
  5
13A
  8
PLANTABAIXA
 62
     0
 10
7397.587971191406
 20
2365.641271003196
 30
-1950.0
 11
7552.586994628906
 21
2365.641271003196
 31
-1950.0
  0
LINE
  5
13B
  8
PLANTABAIXA
 62
     0
 10
7397.587971191406
 20
1206.130528815696
 30
-1950.0
 11
7397.587971191406
 21
2365.641271003196
 31
-1950.0
  0
LINE
  5
13C
  8
PLANTABAIXA
 62
     0
 10
7551.211018066406
 20
2563.864415534446
 30
-1950.0
 11
7395.606281738281
 21
2563.864415534446
 31
-1950.0
  0
LINE
  5
13D
  8
PLANTABAIXA
 62
     0
 10
7551.211018066406
 20
3474.749181159446
 30
-1950.0
 11
7551.211018066406
 21
2563.864415534446
 31
-1950.0
  0
LINE
  5
13E
  8
PLANTABAIXA
 62
     0
 10
7395.606281738281
 20
3474.749181159446
 30
-1950.0
 11
7551.211018066406
 21
3474.749181159446
 31
-1950.0
  0
LINE
  5
13F
  8
PLANTABAIXA
 62
     0
 10
7395.606281738281
 20
2563.864415534446
 30
-1950.0
 11
7395.606281738281
 21
3474.749181159446
 31
-1950.0
  0
LINE
  5
140
  8
PLANTABAIXA
 62
     0
 10
10214.3021206665
 20
859.2213491281964
 30
-1950.0
 11
9420.514301757812
 21
859.2213491281964
 31
-1950.0
  0
LINE
  5
141
  8
PLANTABAIXA
 62
     0
 10
10214.3021206665
 20
1008.561314948509
 30
-1950.0
 11
10214.3021206665
 21
859.2213491281964
 31
-1950.0
  0
LINE
  5
142
  8
PLANTABAIXA
 62
     0
 10
9420.514301757812
 20
1008.561314948509
 30
-1950.0
 11
10214.3021206665
 21
1008.561314948509
 31
-1950.0
  0
LINE
  5
143
  8
PLANTABAIXA
 62
     0
 10
9420.514301757812
 20
859.2213491281964
 30
-1950.0
 11
9420.514301757812
 21
1008.561314948509
 31
-1950.0
  0
LINE
  5
144
  8
PLANTABAIXA
 62
     0
 10
10496.00960205078
 20
-111.210138908913
 30
-1950.0
 11
10336.76948974609
 21
-111.210138908913
 31
-1950.0
  0
LINE
  5
145
  8
PLANTABAIXA
 62
     0
 10
10496.00960205078
 20
692.9623769602276
 30
-1950.0
 11
10496.00960205078
 21
-111.210138908913
 31
-1950.0
  0
LINE
  5
146
  8
PLANTABAIXA
 62
     0
 10
10336.76948974609
 20
692.9623769602276
 30
-1950.0
 11
10496.00960205078
 21
692.9623769602276
 31
-1950.0
  0
LINE
  5
147
  8
PLANTABAIXA
 62
     0
 10
10336.76948974609
 20
-111.210138908913
 30
-1950.0
 11
10336.76948974609
 21
692.9623769602276
 31
-1950.0
  0
LINE
  5
148
  8
PLANTABAIXA
 62
     0
 10
11305.71260498047
 20
863.5077260813214
 30
-1950.0
 11
10527.55986450195
 21
863.5077260813214
 31
-1950.0
  0
LINE
  5
149
  8
PLANTABAIXA
 62
     0
 10
11305.71260498047
 20
1012.246861823509
 30
-1950.0
 11
11305.71260498047
 21
863.5077260813214
 31
-1950.0
  0
LINE
  5
14A
  8
PLANTABAIXA
 62
     0
 10
10527.55986450195
 20
1012.246861823509
 30
-1950.0
 11
11305.71260498047
 21
1012.246861823509
 31
-1950.0
  0
LINE
  5
14B
  8
PLANTABAIXA
 62
     0
 10
10527.55986450195
 20
863.5077260813214
 30
-1950.0
 11
10527.55986450195
 21
1012.246861823509
 31
-1950.0
  0
LINE
  5
14C
  8
PLANTABAIXA
 62
     0
 10
11348.65437744141
 20
-474.0463510671161
 30
-1950.0
 11
10534.11134765625
 21
-474.0463510671161
 31
-1950.0
  0
LINE
  5
14D
  8
PLANTABAIXA
 62
     0
 10
11348.65437744141
 20
-342.9026132741474
 30
-1950.0
 11
11348.65437744141
 21
-474.0463510671161
 31
-1950.0
  0
LINE
  5
14E
  8
PLANTABAIXA
 62
     0
 10
10534.11134765625
 20
-342.9026132741474
 30
-1950.0
 11
11348.65437744141
 21
-342.9026132741474
 31
-1950.0
  0
LINE
  5
14F
  8
PLANTABAIXA
 62
     0
 10
10534.11134765625
 20
-474.0463510671161
 30
-1950.0
 11
10534.11134765625
 21
-342.9026132741474
 31
-1950.0
  0
LINE
  5
150
  8
PLANTABAIXA
 62
     0
 10
9083.74446533203
 20
-2628.368494621804
 30
-1950.0
 11
9081.461301112467
 21
-2628.368494621804
 31
-1950.0
  0
LINE
  5
151
  8
PLANTABAIXA
 62
     0
 10
7891.461301112467
 20
-2628.368494621804
 30
-1950.0
 11
9081.461301112467
 21
-2628.368494621804
 31
-1950.0
  0
LINE
  5
152
  8
PLANTABAIXA
 62
     0
 10
7891.461301112467
 20
-2628.368494621804
 30
-1950.0
 11
7891.461018066406
 21
-2628.368494621804
 31
-1950.0
  0
LINE
  5
153
  8
PLANTABAIXA
 62
     0
 10
9083.74446533203
 20
-2498.736658684304
 30
-1950.0
 11
9083.74446533203
 21
-2628.368494621804
 31
-1950.0
  0
LINE
  5
154
  8
PLANTABAIXA
 62
     0
 10
9081.461301112467
 20
-2498.736658684304
 30
-1950.0
 11
9083.74446533203
 21
-2498.736658684304
 31
-1950.0
  0
LINE
  5
155
  8
PLANTABAIXA
 62
     0
 10
9081.461301112467
 20
-2498.736658684304
 30
-1950.0
 11
9081.461301112467
 21
-2628.368494621804
 31
-1950.0
  0
LINE
  5
156
  8
PLANTABAIXA
 62
     0
 10
9081.461301112467
 20
-2498.736658684304
 30
-1950.0
 11
8971.461301112467
 21
-2498.736658684304
 31
-1950.0
  0
LINE
  5
157
  8
PLANTABAIXA
 62
     0
 10
8001.461301112467
 20
-2498.736658684304
 30
-1950.0
 11
7891.461301112467
 21
-2498.736658684304
 31
-1950.0
  0
LINE
  5
158
  8
PLANTABAIXA
 62
     0
 10
7891.461301112467
 20
-2628.368494621804
 30
-1950.0
 11
7891.461301112467
 21
-2498.736658684304
 31
-1950.0
  0
LINE
  5
159
  8
PLANTABAIXA
 62
     0
 10
7891.461018066406
 20
-2498.736658684304
 30
-1950.0
 11
7891.461301112467
 21
-2498.736658684304
 31
-1950.0
  0
LINE
  5
15A
  8
PLANTABAIXA
 62
     0
 10
7891.461018066406
 20
-2628.368494621804
 30
-1950.0
 11
7891.461018066406
 21
-2498.736658684304
 31
-1950.0
  0
LINE
  5
15B
  8
PLANTABAIXA
 62
     0
 10
7891.461301112467
 20
-2500.054639505275
 30
-1950.0
 11
7891.461301112467
 21
-2620.054639505275
 31
-1950.0
  0
LINE
  5
15C
  8
PLANTABAIXA
 62
     0
 10
9081.461301112467
 20
-2620.054639505275
 30
-1950.0
 11
9081.461301112467
 21
-2500.054639505275
 31
-1950.0
  0
LINE
  5
15D
  8
PLANTABAIXA
 62
     0
 10
7891.461301112467
 20
-2620.054639505275
 30
-1950.0
 11
7991.461301112467
 21
-2620.054639505275
 31
-1950.0
  0
LINE
  5
15E
  8
PLANTABAIXA
 62
     0
 10
7991.461301112467
 20
-2620.054639505275
 30
-1950.0
 11
8981.461301112467
 21
-2620.054639505275
 31
-1950.0
  0
LINE
  5
15F
  8
PLANTABAIXA
 62
     0
 10
8981.461301112467
 20
-2620.054639505275
 30
-1950.0
 11
9081.461301112466
 21
-2620.054639505275
 31
-1950.0
  0
LINE
  5
160
  8
PLANTABAIXA
 62
     0
 10
7891.461301112467
 20
-2500.054639505275
 30
-1950.0
 11
7991.461301112467
 21
-2500.054639505275
 31
-1950.0
  0
LINE
  5
161
  8
PLANTABAIXA
 62
     0
 10
7991.461301112467
 20
-2500.054639505275
 30
-1950.0
 11
8001.461301112467
 21
-2500.054639505275
 31
-1950.0
  0
LINE
  5
162
  8
PLANTABAIXA
 62
     0
 10
8971.461301112467
 20
-2500.054639505275
 30
-1950.0
 11
8981.461301112467
 21
-2500.054639505275
 31
-1950.0
  0
LINE
  5
163
  8
PLANTABAIXA
 62
     0
 10
8981.461301112467
 20
-2500.054639505275
 30
-1950.0
 11
9081.461301112466
 21
-2500.054639505275
 31
-1950.0
  0
LINE
  5
164
  8
PLANTABAIXA
 62
     0
 10
7991.461301112467
 20
-2500.054639505275
 30
-1950.0
 11
7991.461301112467
 21
-2620.054639505275
 31
-1950.0
  0
LINE
  5
165
  8
PLANTABAIXA
 62
     0
 10
8981.461301112467
 20
-2620.054639505275
 30
-1950.0
 11
8981.461301112467
 21
-2500.054639505275
 31
-1950.0
  0
LINE
  5
166
  8
PLANTABAIXA
 62
     0
 10
8001.461301112467
 20
-2520.054639505275
 30
-1950.0
 11
8971.461301112467
 21
-2520.054639505275
 31
-1950.0
  0
LINE
  5
167
  8
PLANTABAIXA
 62
     0
 10
10283.98344848633
 20
-2623.695887199929
 30
-1950.0
 11
9378.311726074218
 21
-2623.695887199929
 31
-1950.0
  0
LINE
  5
168
  8
PLANTABAIXA
 62
     0
 10
10283.98344848633
 20
-2491.172693840554
 30
-1950.0
 11
10283.98344848633
 21
-2623.695887199929
 31
-1950.0
  0
LINE
  5
169
  8
PLANTABAIXA
 62
     0
 10
9378.311726074218
 20
-2491.172693840554
 30
-1950.0
 11
10283.98344848633
 21
-2491.172693840554
 31
-1950.0
  0
LINE
  5
16A
  8
PLANTABAIXA
 62
     0
 10
9378.311726074218
 20
-2623.695887199929
 30
-1950.0
 11
9378.311726074218
 21
-2491.172693840554
 31
-1950.0
  0
LINE
  5
16B
  8
PLANTABAIXA
 62
     0
 10
11651.97481201172
 20
108.1116994699933
 30
-1950.0
 11
11493.17256591797
 21
108.1116994699933
 31
-1950.0
  0
LINE
  5
16C
  8
PLANTABAIXA
 62
     0
 10
11651.97481201172
 20
827.4195913156964
 30
-1950.0
 11
11651.97481201172
 21
108.1116994699933
 31
-1950.0
  0
LINE
  5
16D
  8
PLANTABAIXA
 62
     0
 10
11493.17256591797
 20
827.4195913156964
 30
-1950.0
 11
11651.97481201172
 21
827.4195913156964
 31
-1950.0
  0
LINE
  5
16E
  8
PLANTABAIXA
 62
     0
 10
11493.17256591797
 20
108.1116994699933
 30
-1950.0
 11
11493.17256591797
 21
827.4195913156964
 31
-1950.0
  0
LINE
  5
16F
  8
PLANTABAIXA
 62
     0
 10
13386.55843017578
 20
1730.154454596946
 30
-1950.0
 11
13250.96272705078
 21
1730.154454596946
 31
-1950.0
  0
LINE
  5
170
  8
PLANTABAIXA
 62
     0
 10
13386.55843017578
 20
2943.770421393821
 30
-1950.0
 11
13386.55843017578
 21
2940.156576636716
 31
-1950.0
  0
LINE
  5
171
  8
PLANTABAIXA
 62
     0
 10
13386.55843017578
 20
1730.156576636716
 30
-1950.0
 11
13386.55843017578
 21
2940.156576636716
 31
-1950.0
  0
LINE
  5
172
  8
PLANTABAIXA
 62
     0
 10
13386.55843017578
 20
1730.156576636716
 30
-1950.0
 11
13386.55843017578
 21
1730.154454596946
 31
-1950.0
  0
LINE
  5
173
  8
PLANTABAIXA
 62
     0
 10
13386.55843017578
 20
1730.156576636715
 30
-1950.0
 11
13250.96272705078
 21
1730.156576636715
 31
-1950.0
  0
LINE
  5
174
  8
PLANTABAIXA
 62
     0
 10
13250.96272705078
 20
1730.154454596946
 30
-1950.0
 11
13250.96272705078
 21
1730.156576636716
 31
-1950.0
  0
LINE
  5
175
  8
PLANTABAIXA
 62
     0
 10
13250.96272705078
 20
2940.156576636716
 30
-1950.0
 11
13250.96272705078
 21
2943.770421393821
 31
-1950.0
  0
LINE
  5
176
  8
PLANTABAIXA
 62
     0
 10
13250.96272705078
 20
2943.770421393821
 30
-1950.0
 11
13386.55843017578
 21
2943.770421393821
 31
-1950.0
  0
LINE
  5
177
  8
PLANTABAIXA
 62
     0
 10
13250.96272705078
 20
2940.156576636715
 30
-1950.0
 11
13386.55843017578
 21
2940.156576636715
 31
-1950.0
  0
LINE
  5
178
  8
PLANTABAIXA
 62
     0
 10
13246.55593753644
 20
1730.156576636715
 30
-1950.0
 11
13386.55593753644
 21
1730.156576636715
 31
-1950.0
  0
LINE
  5
179
  8
PLANTABAIXA
 62
     0
 10
13386.55593753644
 20
2940.156576636715
 30
-1950.0
 11
13246.55593753644
 21
2940.156576636715
 31
-1950.0
  0
LINE
  5
17A
  8
PLANTABAIXA
 62
     0
 10
13386.55593753644
 20
1730.156576636715
 30
-1950.0
 11
13386.55593753644
 21
1830.156576636715
 31
-1950.0
  0
LINE
  5
17B
  8
PLANTABAIXA
 62
     0
 10
13386.55593753644
 20
1830.156576636715
 30
-1950.0
 11
13386.55593753644
 21
2840.156576636715
 31
-1950.0
  0
LINE
  5
17C
  8
PLANTABAIXA
 62
     0
 10
13386.55593753644
 20
2840.156576636715
 30
-1950.0
 11
13386.55593753644
 21
2940.156576636715
 31
-1950.0
  0
LINE
  5
17D
  8
PLANTABAIXA
 62
     0
 10
13246.55593753644
 20
1730.156576636715
 30
-1950.0
 11
13246.55593753644
 21
1830.156576636715
 31
-1950.0
  0
LINE
  5
17E
  8
PLANTABAIXA
 62
     0
 10
13246.55593753644
 20
1830.156576636715
 30
-1950.0
 11
13246.55593753644
 21
1840.156576636715
 31
-1950.0
  0
LINE
  5
17F
  8
PLANTABAIXA
 62
     0
 10
13246.55593753644
 20
2830.156576636715
 30
-1950.0
 11
13246.55593753644
 21
2840.156576636715
 31
-1950.0
  0
LINE
  5
180
  8
PLANTABAIXA
 62
     0
 10
13246.55593753644
 20
2840.156576636715
 30
-1950.0
 11
13246.55593753644
 21
2940.156576636715
 31
-1950.0
  0
LINE
  5
181
  8
PLANTABAIXA
 62
     0
 10
13246.55593753644
 20
1830.156576636715
 30
-1950.0
 11
13386.55593753644
 21
1830.156576636715
 31
-1950.0
  0
LINE
  5
182
  8
PLANTABAIXA
 62
     0
 10
13386.55593753644
 20
2840.156576636715
 30
-1950.0
 11
13246.55593753644
 21
2840.156576636715
 31
-1950.0
  0
LINE
  5
183
  8
PLANTABAIXA
 62
     0
 10
13286.55593753644
 20
1840.156576636715
 30
-1950.0
 11
13286.55593753644
 21
2830.156576636715
 31
-1950.0
  0
LINE
  5
184
  8
PLANTABAIXA
 62
     0
 10
13805.65633056641
 20
-28.797052971413
 30
-1950.0
 11
13805.65633056641
 21
567.9277700266339
 31
-1950.0
  0
LINE
  5
185
  8
PLANTABAIXA
 62
     0
 10
13654.92805908203
 20
567.9277700266339
 30
-1950.0
 11
13654.92805908203
 21
461.1985530968586
 31
-1950.0
  0
LINE
  5
186
  8
PLANTABAIXA
 62
     0
 10
13654.92805908203
 20
81.19855309685863
 30
-1950.0
 11
13654.92805908203
 21
-28.797052971413
 31
-1950.0
  0
LINE
  5
187
  8
PLANTABAIXA
 62
     0
 10
13655.6524398657
 20
-28.80144690314134
 30
-1950.0
 11
13805.6524398657
 21
-28.8014469031414
 31
-1950.0
  0
LINE
  5
188
  8
PLANTABAIXA
 62
     0
 10
13805.6524398657
 20
571.1985530968586
 30
-1950.0
 11
13655.6524398657
 21
571.1985530968586
 31
-1950.0
  0
LINE
  5
189
  8
PLANTABAIXA
 62
     0
 10
13805.6524398657
 20
-28.80144690314137
 30
-1950.0
 11
13805.6524398657
 21
71.19855309685863
 31
-1950.0
  0
LINE
  5
18A
  8
PLANTABAIXA
 62
     0
 10
13805.6524398657
 20
71.19855309685863
 30
-1950.0
 11
13805.6524398657
 21
471.1985530968586
 31
-1950.0
  0
LINE
  5
18B
  8
PLANTABAIXA
 62
     0
 10
13805.6524398657
 20
471.1985530968586
 30
-1950.0
 11
13805.6524398657
 21
571.1985530968586
 31
-1950.0
  0
LINE
  5
18C
  8
PLANTABAIXA
 62
     0
 10
13655.6524398657
 20
-28.80144690314137
 30
-1950.0
 11
13655.6524398657
 21
71.19855309685863
 31
-1950.0
  0
LINE
  5
18D
  8
PLANTABAIXA
 62
     0
 10
13655.6524398657
 20
71.19855309685863
 30
-1950.0
 11
13655.6524398657
 21
81.19855309685863
 31
-1950.0
  0
LINE
  5
18E
  8
PLANTABAIXA
 62
     0
 10
13655.6524398657
 20
461.1985530968586
 30
-1950.0
 11
13655.6524398657
 21
471.1985530968586
 31
-1950.0
  0
LINE
  5
18F
  8
PLANTABAIXA
 62
     0
 10
13655.6524398657
 20
471.1985530968586
 30
-1950.0
 11
13655.6524398657
 21
571.1985530968586
 31
-1950.0
  0
LINE
  5
190
  8
PLANTABAIXA
 62
     0
 10
13655.6524398657
 20
71.19855309685863
 30
-1950.0
 11
13805.6524398657
 21
71.19855309685863
 31
-1950.0
  0
LINE
  5
191
  8
PLANTABAIXA
 62
     0
 10
13805.6524398657
 20
471.1985530968586
 30
-1950.0
 11
13655.6524398657
 21
471.1985530968586
 31
-1950.0
  0
LINE
  5
192
  8
PLANTABAIXA
 62
     0
 10
13705.6524398657
 20
81.19855309685857
 30
-1950.0
 11
13705.6524398657
 21
461.1985530968586
 31
-1950.0
  0
LINE
  5
193
  8
PLANTABAIXA
 62
     0
 10
11268.04550795267
 20
-3826.769129387429
 30
-1950.0
 11
11268.04085205078
 21
-3826.769129387429
 31
-1950.0
  0
LINE
  5
194
  8
PLANTABAIXA
 62
     0
 10
12473.60579345703
 20
-3692.061853996804
 30
-1950.0
 11
12368.04550795267
 21
-3692.061853996804
 31
-1950.0
  0
LINE
  5
195
  8
PLANTABAIXA
 62
     0
 10
11378.04550795267
 20
-3692.061853996804
 30
-1950.0
 11
11268.04550795267
 21
-3692.061853996804
 31
-1950.0
  0
LINE
  5
196
  8
PLANTABAIXA
 62
     0
 10
11268.04550795267
 20
-3826.769129387429
 30
-1950.0
 11
11268.04550795267
 21
-3692.061853996803
 31
-1950.0
  0
LINE
  5
197
  8
PLANTABAIXA
 62
     0
 10
11268.04085205078
 20
-3692.061853996804
 30
-1950.0
 11
11268.04550795267
 21
-3692.061853996804
 31
-1950.0
  0
LINE
  5
198
  8
PLANTABAIXA
 62
     0
 10
11268.04085205078
 20
-3826.769129387429
 30
-1950.0
 11
11268.04085205078
 21
-3692.061853996804
 31
-1950.0
  0
LINE
  5
199
  8
PLANTABAIXA
 62
     0
 10
11268.04550795267
 20
-3696.772363525651
 30
-1950.0
 11
11268.04550795267
 21
-3826.772363525651
 31
-1950.0
  0
LINE
  5
19A
  8
PLANTABAIXA
 62
     0
 10
12478.04550795267
 20
-3826.772363525651
 30
-1950.0
 11
12478.04550795267
 21
-3696.772363525651
 31
-1950.0
  0
LINE
  5
19B
  8
PLANTABAIXA
 62
     0
 10
11268.04550795267
 20
-3826.772363525651
 30
-1950.0
 11
11368.04550795267
 21
-3826.772363525651
 31
-1950.0
  0
LINE
  5
19C
  8
PLANTABAIXA
 62
     0
 10
11368.04550795267
 20
-3826.772363525651
 30
-1950.0
 11
12378.04550795267
 21
-3826.772363525651
 31
-1950.0
  0
LINE
  5
19D
  8
PLANTABAIXA
 62
     0
 10
12378.04550795267
 20
-3826.772363525651
 30
-1950.0
 11
12478.04550795267
 21
-3826.772363525651
 31
-1950.0
  0
LINE
  5
19E
  8
PLANTABAIXA
 62
     0
 10
11268.04550795267
 20
-3696.772363525651
 30
-1950.0
 11
11368.04550795267
 21
-3696.772363525651
 31
-1950.0
  0
LINE
  5
19F
  8
PLANTABAIXA
 62
     0
 10
11368.04550795267
 20
-3696.772363525651
 30
-1950.0
 11
11378.04550795267
 21
-3696.772363525651
 31
-1950.0
  0
LINE
  5
1A0
  8
PLANTABAIXA
 62
     0
 10
12368.04550795267
 20
-3696.772363525651
 30
-1950.0
 11
12378.04550795267
 21
-3696.772363525651
 31
-1950.0
  0
LINE
  5
1A1
  8
PLANTABAIXA
 62
     0
 10
12378.04550795267
 20
-3696.772363525651
 30
-1950.0
 11
12478.04550795267
 21
-3696.772363525651
 31
-1950.0
  0
LINE
  5
1A2
  8
PLANTABAIXA
 62
     0
 10
11368.04550795267
 20
-3696.772363525651
 30
-1950.0
 11
11368.04550795267
 21
-3826.772363525651
 31
-1950.0
  0
LINE
  5
1A3
  8
PLANTABAIXA
 62
     0
 10
12378.04550795267
 20
-3826.772363525651
 30
-1950.0
 11
12378.04550795267
 21
-3696.772363525651
 31
-1950.0
  0
LINE
  5
1A4
  8
PLANTABAIXA
 62
     0
 10
11378.04550795267
 20
-3726.772363525651
 30
-1950.0
 11
12368.04550795267
 21
-3726.772363525651
 31
-1950.0
  0
LINE
  5
1A5
  8
PLANTABAIXA
 62
     0
 10
7552.586994628906
 20
1012.246861823509
 30
-1950.0
 11
9003.235143568021
 21
1012.246861823509
 31
-1950.0
  0
LINE
  5
1A6
  8
PLANTABAIXA
 62
     0
 10
9044.646687332131
 20
1012.246861823509
 30
-1950.0
 11
10214.3021206665
 21
1012.246861823509
 31
-1950.0
  0
LINE
  5
1A7
  8
PLANTABAIXA
 62
     0
 10
10336.76948974609
 20
1012.246861823509
 30
-1950.0
 11
10336.76948974609
 21
3508.599767096946
 31
-1950.0
  0
LINE
  5
1A8
  8
PLANTABAIXA
 62
     0
 10
10336.76948974609
 20
3508.599767096946
 30
-1950.0
 11
8917.90337842578
 21
3508.599767096946
 31
-1950.0
  0
LINE
  5
1A9
  8
PLANTABAIXA
 62
     0
 10
8838.17441942578
 20
3508.599767096946
 30
-1950.0
 11
8219.31083202334
 21
3508.599767096946
 31
-1950.0
  0
LINE
  5
1AA
  8
PLANTABAIXA
 62
     0
 10
8139.581873023341
 20
3508.599767096946
 30
-1950.0
 11
7551.211018066406
 21
3508.599767096946
 31
-1950.0
  0
LINE
  5
1AB
  8
PLANTABAIXA
 62
     0
 10
10496.00969360352
 20
1017.576695807884
 30
-1950.0
 11
10627.55986450195
 21
1017.576695807884
 31
-1950.0
  0
LINE
  5
1AC
  8
PLANTABAIXA
 62
     0
 10
11207.55986450195
 20
1017.576695807884
 30
-1950.0
 11
11305.71260498047
 21
1017.576695807884
 31
-1950.0
  0
LINE
  5
1AD
  8
PLANTABAIXA
 62
     0
 10
13250.96272705078
 20
3508.599767096946
 30
-1950.0
 11
11766.35625928516
 21
3508.599767096946
 31
-1950.0
  0
LINE
  5
1AE
  8
PLANTABAIXA
 62
     0
 10
11686.62730028516
 20
3508.599767096946
 30
-1950.0
 11
11242.79729932422
 21
3508.599767096946
 31
-1950.0
  0
LINE
  5
1AF
  8
PLANTABAIXA
 62
     0
 10
11163.06834032422
 20
3508.599767096946
 30
-1950.0
 11
10496.00969360352
 21
3508.599767096946
 31
-1950.0
  0
LINE
  5
1B0
  8
PLANTABAIXA
 62
     0
 10
10496.00969360352
 20
3508.599767096946
 30
-1950.0
 11
10496.00969360352
 21
2874.148028583465
 31
-1950.0
  0
LINE
  5
1B1
  8
PLANTABAIXA
 62
     0
 10
10496.00969360352
 20
2872.148028583465
 30
-1950.0
 11
10496.00969360352
 21
2869.148028583465
 31
-1950.0
  0
LINE
  5
1B2
  8
PLANTABAIXA
 62
     0
 10
10496.00969360352
 20
2801.531573583466
 30
-1950.0
 11
10496.00969360352
 21
2798.531573583466
 31
-1950.0
  0
LINE
  5
1B3
  8
PLANTABAIXA
 62
     0
 10
10496.00969360352
 20
2796.531573583466
 30
-1950.0
 11
10496.00969360352
 21
1017.576695807884
 31
-1950.0
  0
LINE
  5
1B4
  8
PLANTABAIXA
 62
     0
 10
7548.096760253906
 20
-2491.172693840554
 30
-1950.0
 11
8001.461301112467
 21
-2491.172693840554
 31
-1950.0
  0
LINE
  5
1B5
  8
PLANTABAIXA
 62
     0
 10
8971.461301112467
 20
-2491.172693840554
 30
-1950.0
 11
9083.74446533203
 21
-2491.172693840554
 31
-1950.0
  0
LINE
  5
1B6
  8
PLANTABAIXA
 62
     0
 10
10336.76936767578
 20
-11.21013890891118
 30
-1950.0
 11
10336.76936767578
 21
588.7898610910888
 31
-1950.0
  0
LINE
  5
1B7
  8
PLANTABAIXA
 62
     0
 10
10336.76936767578
 20
688.7898610910888
 30
-1950.0
 11
10336.76936767578
 21
851.4039663156964
 31
-1950.0
  0
LINE
  5
1B8
  8
PLANTABAIXA
 62
     0
 10
10336.76936767578
 20
851.4039663156964
 30
-1950.0
 11
10210.51430175781
 21
851.4039663156964
 31
-1950.0
  0
LINE
  5
1B9
  8
PLANTABAIXA
 62
     0
 10
7548.096760253906
 20
851.4039663156964
 30
-1950.0
 11
7548.096760253906
 21
-1211.667627733325
 31
-1950.0
  0
LINE
  5
1BA
  8
PLANTABAIXA
 62
     0
 10
7548.096760253906
 20
-1291.396586733325
 30
-1950.0
 11
7548.096760253906
 21
-1440.679710738922
 31
-1950.0
  0
LINE
  5
1BB
  8
PLANTABAIXA
 62
     0
 10
7548.096760253906
 20
-1520.053729163207
 30
-1950.0
 11
7548.096760253906
 21
-2491.172693840554
 31
-1950.0
  0
LINE
  5
1BC
  8
PLANTABAIXA
 62
     0
 10
11484.51436279297
 20
108.1116994699933
 30
-1950.0
 11
11484.51436279297
 21
859.2213491281964
 31
-1950.0
  0
LINE
  5
1BD
  8
PLANTABAIXA
 62
     0
 10
11484.51436279297
 20
859.2213491281964
 30
-1950.0
 11
11307.55986450195
 21
859.2213491281964
 31
-1950.0
  0
LINE
  5
1BE
  8
PLANTABAIXA
 62
     0
 10
11207.55986450195
 20
859.2213491281964
 30
-1950.0
 11
10627.55986450195
 21
859.2213491281964
 31
-1950.0
  0
LINE
  5
1BF
  8
PLANTABAIXA
 62
     0
 10
10496.00969360352
 20
692.9623769602276
 30
-1950.0
 11
10496.00969360352
 21
688.7898610910888
 31
-1950.0
  0
LINE
  5
1C0
  8
PLANTABAIXA
 62
     0
 10
10496.00969360352
 20
-111.2101389089112
 30
-1950.0
 11
10496.00969360352
 21
-187.1923740547327
 31
-1950.0
  0
LINE
  5
1C1
  8
PLANTABAIXA
 62
     0
 10
10496.00969360352
 20
-266.9203812111323
 30
-1950.0
 11
10496.00969360352
 21
-342.9026132741474
 31
-1950.0
  0
LINE
  5
1C2
  8
PLANTABAIXA
 62
     0
 10
11652.33736083984
 20
-342.7668402366897
 30
-1950.0
 11
13654.92805908203
 21
-342.7668402366897
 31
-1950.0
  0
LINE
  5
1C3
  8
PLANTABAIXA
 62
     0
 10
13654.92805908203
 20
863.5077260813216
 30
-1950.0
 11
13654.92805908203
 21
863.4433191181863
 31
-1950.0
  0
LINE
  5
1C4
  8
PLANTABAIXA
 62
     0
 10
11652.33736083984
 20
863.5077260813216
 30
-1950.0
 11
11652.33736083984
 21
863.4433191181863
 31
-1950.0
  0
LINE
  5
1C5
  8
PLANTABAIXA
 62
     0
 10
13654.92805908203
 20
863.5077260813214
 30
-1950.0
 11
11652.33736083984
 21
863.5077260813214
 31
-1950.0
  0
LINE
  5
1C6
  8
PLANTABAIXA
 62
     0
 10
13654.92805908203
 20
863.4433191181861
 30
-1950.0
 11
11652.33736083984
 21
863.4433191181861
 31
-1950.0
  0
LINE
  5
1C7
  8
PLANTABAIXA
 62
     0
 10
11652.33736083984
 20
117.4195913156946
 30
-1950.0
 11
11652.33736083984
 21
-20.53928805784096
 31
-1950.0
  0
LINE
  5
1C8
  8
PLANTABAIXA
 62
     0
 10
11652.33736083984
 20
-57.39722905784106
 30
-1950.0
 11
11652.33736083984
 21
-342.7668402366901
 31
-1950.0
  0
LINE
  5
1C9
  8
PLANTABAIXA
 62
     0
 10
13250.96272705078
 20
-3692.061853996804
 30
-1950.0
 11
13250.96272705078
 21
-474.0463815846942
 31
-1950.0
  0
LINE
  5
1CA
  8
PLANTABAIXA
 62
     0
 10
13250.96272705078
 20
-474.0463815846942
 30
-1950.0
 11
12389.73232083388
 21
-474.0463815846942
 31
-1950.0
  0
LINE
  5
1CB
  8
PLANTABAIXA
 62
     0
 10
12310.00367911508
 20
-474.0463815846942
 30
-1950.0
 11
11895.78273587294
 21
-474.0463815846942
 31
-1950.0
  0
LINE
  5
1CC
  8
PLANTABAIXA
 62
     0
 10
11816.05409415414
 20
-474.0463815846942
 30
-1950.0
 11
11766.35610013076
 21
-474.0463815846942
 31
-1950.0
  0
LINE
  5
1CD
  8
PLANTABAIXA
 62
     0
 10
11686.62745841195
 20
-474.0463815846942
 30
-1950.0
 11
11344.11134765625
 21
-474.0463815846942
 31
-1950.0
  0
LINE
  5
1CE
  8
PLANTABAIXA
 62
     0
 10
10496.00960205078
 20
-474.0463815846942
 30
-1950.0
 11
10496.00960205078
 21
-1299.907757549349
 31
-1950.0
  0
LINE
  5
1CF
  8
PLANTABAIXA
 62
     0
 10
10496.00960205078
 20
-1301.926893969294
 30
-1950.0
 11
10496.00960205078
 21
-1304.907757549349
 31
-1950.0
  0
LINE
  5
1D0
  8
PLANTABAIXA
 62
     0
 10
10496.00960205078
 20
-1372.524212549349
 30
-1950.0
 11
10496.00960205078
 21
-1375.505076129409
 31
-1950.0
  0
LINE
  5
1D1
  8
PLANTABAIXA
 62
     0
 10
10496.00960205078
 20
-1377.524212549349
 30
-1950.0
 11
10496.00960205078
 21
-3692.061853996804
 31
-1950.0
  0
LINE
  5
1D4
  8
PLANTABAIXA
 62
     0
 10
10293.88163370022
 20
-2628.368494621804
 30
-1950.0
 11
10193.88122630347
 21
-2628.368494621804
 31
-1950.0
  0
LINE
  5
1D5
  8
PLANTABAIXA
 62
     0
 10
10193.88122630347
 20
-2628.368494621804
 30
-1950.0
 11
10188.30842617399
 21
-2628.368494621804
 31
-1950.0
  0
LINE
  5
1D6
  8
PLANTABAIXA
 62
     0
 10
10193.88122630347
 20
-2488.368494621804
 30
-1950.0
 11
10193.88122630347
 21
-2528.368494621804
 31
-1950.0
  0
LINE
  5
1D7
  8
PLANTABAIXA
 62
     0
 10
10193.88122630347
 20
-2528.368494621804
 30
-1950.0
 11
10193.88122630347
 21
-2628.368494621804
 31
-1950.0
  0
LINE
  5
1D8
  8
PLANTABAIXA
 62
     0
 10
10293.88163370022
 20
-2488.368494621804
 30
-1950.0
 11
10193.88122630347
 21
-2488.368494621804
 31
-1950.0
  0
LINE
  5
1D9
  8
PLANTABAIXA
 62
     0
 10
10293.88163370022
 20
-2488.368494621803
 30
-1950.0
 11
10293.88163370022
 21
-2628.368494621804
 31
-1950.0
  0
LINE
  5
1DA
  8
PLANTABAIXA
 62
     0
 10
9378.311726074218
 20
-2628.368494621804
 30
-1950.0
 11
9383.877926389798
 21
-2628.368494621804
 31
-1950.0
  0
LINE
  5
1DB
  8
PLANTABAIXA
 62
     0
 10
9483.878333786548
 20
-2628.368494621804
 30
-1950.0
 11
9383.877926389798
 21
-2628.368494621804
 31
-1950.0
  0
LINE
  5
1DC
  8
PLANTABAIXA
 62
     0
 10
9383.877926389796
 20
-2628.368494621804
 30
-1950.0
 11
9383.877926389796
 21
-2488.368494621803
 31
-1950.0
  0
LINE
  5
1DD
  8
PLANTABAIXA
 62
     0
 10
9378.311726074218
 20
-2488.368494621804
 30
-1950.0
 11
9383.877926389798
 21
-2488.368494621804
 31
-1950.0
  0
LINE
  5
1DE
  8
PLANTABAIXA
 62
     0
 10
9378.311726074218
 20
-2491.172693840554
 30
-1950.0
 11
9378.311726074218
 21
-2488.368494621804
 31
-1950.0
  0
LINE
  5
1DF
  8
PLANTABAIXA
 62
     0
 10
9483.878333786546
 20
-2628.368494621804
 30
-1950.0
 11
9483.878333786546
 21
-2528.368494621804
 31
-1950.0
  0
LINE
  5
1E0
  8
PLANTABAIXA
 62
     0
 10
9483.878333786546
 20
-2528.368494621804
 30
-1950.0
 11
9483.878333786546
 21
-2488.368494621804
 31
-1950.0
  0
LINE
  5
1E1
  8
PLANTABAIXA
 62
     0
 10
9483.878333786548
 20
-2488.368494621804
 30
-1950.0
 11
9383.877926389798
 21
-2488.368494621804
 31
-1950.0
  0
LINE
  5
1E2
  8
PLANTABAIXA
 62
     0
 10
10193.88122630347
 20
-2528.368494621803
 30
-1950.0
 11
9483.878333786546
 21
-2528.368494621803
 31
-1950.0
  0
LINE
  5
1E3
  8
PLANTABAIXA
 62
     0
 10
10336.76936767578
 20
688.7898610910888
 30
-1950.0
 11
10336.76936767578
 21
588.7898610910888
 31
-1950.0
  0
LINE
  5
1E4
  8
PLANTABAIXA
 62
     0
 10
10496.76936767578
 20
588.7898610910888
 30
-1950.0
 11
10436.76936767578
 21
588.7898610910888
 31
-1950.0
  0
LINE
  5
1E5
  8
PLANTABAIXA
 62
     0
 10
10436.76936767578
 20
588.7898610910888
 30
-1950.0
 11
10336.76936767578
 21
588.7898610910888
 31
-1950.0
  0
LINE
  5
1E6
  8
PLANTABAIXA
 62
     0
 10
10496.76936767578
 20
688.7898610910888
 30
-1950.0
 11
10496.76936767578
 21
588.7898610910888
 31
-1950.0
  0
LINE
  5
1E7
  8
PLANTABAIXA
 62
     0
 10
10496.76936767578
 20
688.7898610910888
 30
-1950.0
 11
10336.76936767578
 21
688.7898610910888
 31
-1950.0
  0
LINE
  5
1E8
  8
PLANTABAIXA
 62
     0
 10
10336.76936767578
 20
-11.21013890891118
 30
-1950.0
 11
10336.76936767578
 21
-111.2101389089112
 31
-1950.0
  0
LINE
  5
1E9
  8
PLANTABAIXA
 62
     0
 10
10336.76936767578
 20
-111.2101389089112
 30
-1950.0
 11
10496.76936767578
 21
-111.2101389089111
 31
-1950.0
  0
LINE
  5
1EA
  8
PLANTABAIXA
 62
     0
 10
10336.76936767578
 20
-11.21013890891118
 30
-1950.0
 11
10436.76936767578
 21
-11.21013890891115
 31
-1950.0
  0
LINE
  5
1EB
  8
PLANTABAIXA
 62
     0
 10
10436.76936767578
 20
-11.2101389089112
 30
-1950.0
 11
10496.76936767578
 21
-11.21013890891118
 31
-1950.0
  0
LINE
  5
1EC
  8
PLANTABAIXA
 62
     0
 10
10496.76936767578
 20
-11.21013890891118
 30
-1950.0
 11
10496.76936767578
 21
-111.2101389089112
 31
-1950.0
  0
LINE
  5
1ED
  8
PLANTABAIXA
 62
     0
 10
10536.76936767578
 20
588.7898610910888
 30
-1950.0
 11
10496.76936767578
 21
588.7898610910888
 31
-1950.0
  0
LINE
  5
1EE
  8
PLANTABAIXA
 62
     0
 10
10496.76936767578
 20
-11.21013890891118
 30
-1950.0
 11
10536.76936767578
 21
-11.21013890891118
 31
-1950.0
  0
LINE
  5
1EF
  8
PLANTABAIXA
 62
     0
 10
10436.76936767578
 20
588.7898610910888
 30
-1950.0
 11
10436.76936767578
 21
-11.21013890891118
 31
-1950.0
  0
LINE
  5
1F0
  8
PLANTABAIXA
 62
     0
 10
10536.76936767578
 20
588.7898610910888
 30
-1950.0
 11
10536.76936767578
 21
-11.21013890891118
 31
-1950.0
  0
LINE
  5
1F1
  8
PLANTABAIXA
 62
     0
 10
10534.11134765625
 20
-344.0463815846958
 30
-1950.0
 11
10634.11134765625
 21
-344.0463815846958
 31
-1950.0
  0
LINE
  5
1F2
  8
PLANTABAIXA
 62
     0
 10
10634.11134765625
 20
-474.0463815846949
 30
-1950.0
 11
10634.11134765625
 21
-444.0463815846954
 31
-1950.0
  0
LINE
  5
1F3
  8
PLANTABAIXA
 62
     0
 10
10634.11134765625
 20
-444.0463815846949
 30
-1950.0
 11
10634.11134765625
 21
-344.0463815846954
 31
-1950.0
  0
LINE
  5
1F4
  8
PLANTABAIXA
 62
     0
 10
10534.11134765625
 20
-474.0463815846958
 30
-1950.0
 11
10634.11134765625
 21
-474.0463815846958
 31
-1950.0
  0
LINE
  5
1F5
  8
PLANTABAIXA
 62
     0
 10
10534.11134765625
 20
-474.0463815846953
 30
-1950.0
 11
10534.11134765625
 21
-344.0463815846954
 31
-1950.0
  0
LINE
  5
1F6
  8
PLANTABAIXA
 62
     0
 10
11244.11134765625
 20
-344.0463815846958
 30
-1950.0
 11
11344.11134765625
 21
-344.0463815846958
 31
-1950.0
  0
LINE
  5
1F7
  8
PLANTABAIXA
 62
     0
 10
11344.11134765625
 20
-344.0463815846953
 30
-1950.0
 11
11344.11134765625
 21
-474.0463815846953
 31
-1950.0
  0
LINE
  5
1F8
  8
PLANTABAIXA
 62
     0
 10
11244.11134765625
 20
-344.0463815846954
 30
-1950.0
 11
11244.11134765625
 21
-444.0463815846949
 31
-1950.0
  0
LINE
  5
1F9
  8
PLANTABAIXA
 62
     0
 10
11244.11134765625
 20
-444.0463815846954
 30
-1950.0
 11
11244.11134765625
 21
-474.0463815846949
 31
-1950.0
  0
LINE
  5
1FA
  8
PLANTABAIXA
 62
     0
 10
11244.11134765625
 20
-474.0463815846958
 30
-1950.0
 11
11344.11134765625
 21
-474.0463815846958
 31
-1950.0
  0
LINE
  5
1FB
  8
PLANTABAIXA
 62
     0
 10
10634.11134765625
 20
-544.0463815846954
 30
-1950.0
 11
10634.11134765625
 21
-474.0463815846949
 31
-1950.0
  0
LINE
  5
1FC
  8
PLANTABAIXA
 62
     0
 10
11244.11134765625
 20
-474.0463815846949
 30
-1950.0
 11
11244.11134765625
 21
-544.0463815846954
 31
-1950.0
  0
LINE
  5
1FD
  8
PLANTABAIXA
 62
     0
 10
10634.11134765625
 20
-444.0463815846954
 30
-1950.0
 11
11244.11134765625
 21
-444.0463815846954
 31
-1950.0
  0
LINE
  5
1FE
  8
PLANTABAIXA
 62
     0
 10
10634.11134765625
 20
-544.0463815846954
 30
-1950.0
 11
11244.11134765625
 21
-544.0463815846954
 31
-1950.0
  0
LINE
  5
1FF
  8
PLANTABAIXA
 62
     0
 10
7397.587971191408
 20
3473.864415534448
 30
-1950.0
 11
7397.587971191408
 21
3373.864415534448
 31
-1950.0
  0
LINE
  5
200
  8
PLANTABAIXA
 62
     0
 10
7557.587971191408
 20
3373.864415534448
 30
-1950.0
 11
7497.587971191408
 21
3373.864415534448
 31
-1950.0
  0
LINE
  5
201
  8
PLANTABAIXA
 62
     0
 10
7497.587971191408
 20
3373.864415534448
 30
-1950.0
 11
7397.587971191408
 21
3373.864415534448
 31
-1950.0
  0
LINE
  5
202
  8
PLANTABAIXA
 62
     0
 10
7557.587971191408
 20
3473.864415534448
 30
-1950.0
 11
7557.587971191408
 21
3373.864415534448
 31
-1950.0
  0
LINE
  5
203
  8
PLANTABAIXA
 62
     0
 10
7557.587971191408
 20
3473.864415534448
 30
-1950.0
 11
7397.587971191408
 21
3473.864415534448
 31
-1950.0
  0
LINE
  5
204
  8
PLANTABAIXA
 62
     0
 10
7397.587971191408
 20
2663.864415534448
 30
-1950.0
 11
7397.587971191408
 21
2563.864415534448
 31
-1950.0
  0
LINE
  5
205
  8
PLANTABAIXA
 62
     0
 10
7397.587971191408
 20
2563.864415534448
 30
-1950.0
 11
7557.587971191409
 21
2563.864415534448
 31
-1950.0
  0
LINE
  5
206
  8
PLANTABAIXA
 62
     0
 10
7397.587971191409
 20
2663.864415534448
 30
-1950.0
 11
7497.587971191408
 21
2663.864415534448
 31
-1950.0
  0
LINE
  5
207
  8
PLANTABAIXA
 62
     0
 10
7497.587971191408
 20
2663.864415534448
 30
-1950.0
 11
7557.587971191408
 21
2663.864415534448
 31
-1950.0
  0
LINE
  5
208
  8
PLANTABAIXA
 62
     0
 10
7557.587971191408
 20
2663.864415534448
 30
-1950.0
 11
7557.587971191408
 21
2563.864415534448
 31
-1950.0
  0
LINE
  5
209
  8
PLANTABAIXA
 62
     0
 10
7597.587971191408
 20
3373.864415534448
 30
-1950.0
 11
7557.587971191408
 21
3373.864415534448
 31
-1950.0
  0
LINE
  5
20A
  8
PLANTABAIXA
 62
     0
 10
7557.587971191408
 20
2663.864415534448
 30
-1950.0
 11
7597.587971191409
 21
2663.864415534448
 31
-1950.0
  0
LINE
  5
20B
  8
PLANTABAIXA
 62
     0
 10
7497.587971191409
 20
3373.864415534448
 30
-1950.0
 11
7497.587971191409
 21
2663.864415534448
 31
-1950.0
  0
LINE
  5
20C
  8
PLANTABAIXA
 62
     0
 10
10527.55986450195
 20
859.2213491281977
 30
-1950.0
 11
10627.55986450195
 21
859.2213491281977
 31
-1950.0
  0
LINE
  5
20D
  8
PLANTABAIXA
 62
     0
 10
10627.55986450195
 20
1009.221349128196
 30
-1950.0
 11
10627.55986450195
 21
959.2213491281964
 31
-1950.0
  0
LINE
  5
20E
  8
PLANTABAIXA
 62
     0
 10
10627.55986450195
 20
959.2213491281964
 30
-1950.0
 11
10627.55986450195
 21
859.2213491281964
 31
-1950.0
  0
LINE
  5
20F
  8
PLANTABAIXA
 62
     0
 10
10527.55986450195
 20
1009.221349128198
 30
-1950.0
 11
10627.55986450195
 21
1009.221349128198
 31
-1950.0
  0
LINE
  5
210
  8
PLANTABAIXA
 62
     0
 10
10527.55986450195
 20
1009.221349128197
 30
-1950.0
 11
10527.55986450195
 21
859.2213491281964
 31
-1950.0
  0
LINE
  5
211
  8
PLANTABAIXA
 62
     0
 10
11207.55986450195
 20
859.2213491281977
 30
-1950.0
 11
11307.55986450195
 21
859.2213491281977
 31
-1950.0
  0
LINE
  5
212
  8
PLANTABAIXA
 62
     0
 10
11307.55986450195
 20
859.2213491281964
 30
-1950.0
 11
11307.55986450195
 21
1009.221349128197
 31
-1950.0
  0
LINE
  5
213
  8
PLANTABAIXA
 62
     0
 10
11207.55986450195
 20
859.2213491281964
 30
-1950.0
 11
11207.55986450195
 21
959.2213491281964
 31
-1950.0
  0
LINE
  5
214
  8
PLANTABAIXA
 62
     0
 10
11207.55986450195
 20
959.2213491281964
 30
-1950.0
 11
11207.55986450195
 21
1009.221349128196
 31
-1950.0
  0
LINE
  5
215
  8
PLANTABAIXA
 62
     0
 10
11207.55986450195
 20
1009.221349128198
 30
-1950.0
 11
11307.55986450195
 21
1009.221349128198
 31
-1950.0
  0
LINE
  5
216
  8
PLANTABAIXA
 62
     0
 10
10627.55986450195
 20
1059.221349128197
 30
-1950.0
 11
10627.55986450195
 21
1009.221349128196
 31
-1950.0
  0
LINE
  5
217
  8
PLANTABAIXA
 62
     0
 10
11207.55986450195
 20
1009.221349128196
 30
-1950.0
 11
11207.55986450195
 21
1059.221349128197
 31
-1950.0
  0
LINE
  5
218
  8
PLANTABAIXA
 62
     0
 10
10627.55986450195
 20
959.2213491281964
 30
-1950.0
 11
11207.55986450195
 21
959.2213491281964
 31
-1950.0
  0
LINE
  5
219
  8
PLANTABAIXA
 62
     0
 10
10627.55986450195
 20
1059.221349128196
 30
-1950.0
 11
11207.55986450195
 21
1059.221349128196
 31
-1950.0
  0
LINE
  5
21A
  8
PLANTABAIXA
 62
     0
 10
9420.514301757812
 20
1011.403966315696
 30
-1950.0
 11
9520.514301757812
 21
1011.403966315696
 31
-1950.0
  0
LINE
  5
21B
  8
PLANTABAIXA
 62
     0
 10
9520.514301757812
 20
851.4039663156959
 30
-1950.0
 11
9520.514301757812
 21
911.4039663156955
 31
-1950.0
  0
LINE
  5
21C
  8
PLANTABAIXA
 62
     0
 10
9520.514301757812
 20
911.4039663156959
 30
-1950.0
 11
9520.514301757812
 21
1011.403966315695
 31
-1950.0
  0
LINE
  5
21D
  8
PLANTABAIXA
 62
     0
 10
9420.514301757812
 20
851.4039663156962
 30
-1950.0
 11
9520.514301757812
 21
851.4039663156962
 31
-1950.0
  0
LINE
  5
21E
  8
PLANTABAIXA
 62
     0
 10
9420.514301757812
 20
851.4039663156955
 30
-1950.0
 11
9420.514301757812
 21
1011.403966315695
 31
-1950.0
  0
LINE
  5
21F
  8
PLANTABAIXA
 62
     0
 10
10110.51430175781
 20
1011.403966315696
 30
-1950.0
 11
10210.51430175781
 21
1011.403966315696
 31
-1950.0
  0
LINE
  5
220
  8
PLANTABAIXA
 62
     0
 10
10210.51430175781
 20
1011.403966315695
 30
-1950.0
 11
10210.51430175781
 21
851.4039663156955
 31
-1950.0
  0
LINE
  5
221
  8
PLANTABAIXA
 62
     0
 10
10110.51430175781
 20
1011.403966315695
 30
-1950.0
 11
10110.51430175781
 21
911.4039663156959
 31
-1950.0
  0
LINE
  5
222
  8
PLANTABAIXA
 62
     0
 10
10110.51430175781
 20
911.4039663156955
 30
-1950.0
 11
10110.51430175781
 21
851.4039663156959
 31
-1950.0
  0
LINE
  5
223
  8
PLANTABAIXA
 62
     0
 10
10110.51430175781
 20
851.4039663156962
 30
-1950.0
 11
10210.51430175781
 21
851.4039663156962
 31
-1950.0
  0
LINE
  5
224
  8
PLANTABAIXA
 62
     0
 10
9520.514301757812
 20
811.4039663156955
 30
-1950.0
 11
9520.514301757812
 21
851.4039663156959
 31
-1950.0
  0
LINE
  5
225
  8
PLANTABAIXA
 62
     0
 10
10110.51430175781
 20
851.4039663156959
 30
-1950.0
 11
10110.51430175781
 21
811.4039663156955
 31
-1950.0
  0
LINE
  5
226
  8
PLANTABAIXA
 62
     0
 10
9520.514301757812
 20
911.4039663156952
 30
-1950.0
 11
10110.51430175781
 21
911.4039663156952
 31
-1950.0
  0
LINE
  5
227
  8
PLANTABAIXA
 62
     0
 10
9520.514301757812
 20
811.4039663156952
 30
-1950.0
 11
10110.51430175781
 21
811.4039663156952
 31
-1950.0
  0
POLYLINE
  5
22C
  8
PLANTABAIXA
 62
     0
 66
     1
 10
0.0
 20
0.0
 30
0.0
  0
VERTEX
  5
732
  8
PLANTABAIXA
 62
     0
 10
7548.096760253906
 20
-1440.679710738922
 30
0.0
  0
VERTEX
  5
733
  8
PLANTABAIXA
 62
     0
 10
7548.945044872035
 20
-1445.103660341592
 30
0.0
  0
VERTEX
  5
734
  8
PLANTABAIXA
 62
     0
 10
7549.793329490165
 20
-1449.527609944261
 30
0.0
  0
VERTEX
  5
735
  8
PLANTABAIXA
 62
     0
 10
7550.641614108295
 20
-1453.951559546932
 30
0.0
  0
VERTEX
  5
736
  8
PLANTABAIXA
 62
     0
 10
7551.489898726424
 20
-1458.375509149602
 30
0.0
  0
VERTEX
  5
737
  8
PLANTABAIXA
 62
     0
 10
7552.338183344555
 20
-1462.799458752271
 30
0.0
  0
VERTEX
  5
738
  8
PLANTABAIXA
 62
     0
 10
7553.186467962683
 20
-1467.223408354942
 30
0.0
  0
VERTEX
  5
739
  8
PLANTABAIXA
 62
     0
 10
7554.034752580814
 20
-1471.647357957612
 30
0.0
  0
VERTEX
  5
73A
  8
PLANTABAIXA
 62
     0
 10
7554.883037198942
 20
-1476.071307560281
 30
0.0
  0
VERTEX
  5
73B
  8
PLANTABAIXA
 62
     0
 10
7555.731321817073
 20
-1480.495257162951
 30
0.0
  0
SEQEND
  5
A56
  8
PLANTABAIXA
 62
     0
  0
POLYLINE
  5
238
  8
PLANTABAIXA
 62
     0
 66
     1
 10
0.0
 20
0.0
 30
0.0
  0
VERTEX
  5
73C
  8
PLANTABAIXA
 62
     0
 10
7555.731321817073
 20
-1480.495257162951
 30
0.0
  0
VERTEX
  5
73D
  8
PLANTABAIXA
 62
     0
 10
7554.883037198942
 20
-1484.890642940758
 30
0.0
  0
VERTEX
  5
73E
  8
PLANTABAIXA
 62
     0
 10
7554.034752580814
 20
-1489.286028718564
 30
0.0
  0
VERTEX
  5
73F
  8
PLANTABAIXA
 62
     0
 10
7553.186467962683
 20
-1493.68141449637
 30
0.0
  0
VERTEX
  5
740
  8
PLANTABAIXA
 62
     0
 10
7552.338183344555
 20
-1498.076800274176
 30
0.0
  0
VERTEX
  5
741
  8
PLANTABAIXA
 62
     0
 10
7551.489898726424
 20
-1502.472186051982
 30
0.0
  0
VERTEX
  5
742
  8
PLANTABAIXA
 62
     0
 10
7550.641614108295
 20
-1506.867571829788
 30
0.0
  0
VERTEX
  5
743
  8
PLANTABAIXA
 62
     0
 10
7549.793329490165
 20
-1511.262957607594
 30
0.0
  0
VERTEX
  5
744
  8
PLANTABAIXA
 62
     0
 10
7548.945044872035
 20
-1515.6583433854
 30
0.0
  0
VERTEX
  5
745
  8
PLANTABAIXA
 62
     0
 10
7548.096760253906
 20
-1520.053729163207
 30
0.0
  0
SEQEND
  5
A57
  8
PLANTABAIXA
 62
     0
  0
POLYLINE
  5
244
  8
PLANTABAIXA
 62
     0
 66
     1
 10
0.0
 20
0.0
 30
0.0
  0
VERTEX
  5
746
  8
PLANTABAIXA
 62
     0
 10
7555.731321817073
 20
-1480.495257162951
 30
0.0
  0
VERTEX
  5
747
  8
PLANTABAIXA
 62
     0
 10
7554.883037198942
 20
-1476.071307560281
 30
0.0
  0
VERTEX
  5
748
  8
PLANTABAIXA
 62
     0
 10
7554.034752580814
 20
-1471.647357957612
 30
0.0
  0
VERTEX
  5
749
  8
PLANTABAIXA
 62
     0
 10
7553.186467962683
 20
-1467.223408354942
 30
0.0
  0
VERTEX
  5
74A
  8
PLANTABAIXA
 62
     0
 10
7552.338183344555
 20
-1462.799458752271
 30
0.0
  0
VERTEX
  5
74B
  8
PLANTABAIXA
 62
     0
 10
7551.489898726424
 20
-1458.375509149602
 30
0.0
  0
VERTEX
  5
74C
  8
PLANTABAIXA
 62
     0
 10
7550.641614108295
 20
-1453.951559546932
 30
0.0
  0
VERTEX
  5
74D
  8
PLANTABAIXA
 62
     0
 10
7549.793329490165
 20
-1449.527609944261
 30
0.0
  0
VERTEX
  5
74E
  8
PLANTABAIXA
 62
     0
 10
7548.945044872035
 20
-1445.103660341592
 30
0.0
  0
VERTEX
  5
74F
  8
PLANTABAIXA
 62
     0
 10
7548.096760253906
 20
-1440.679710738922
 30
0.0
  0
SEQEND
  5
A58
  8
PLANTABAIXA
 62
     0
  0
POLYLINE
  5
250
  8
PLANTABAIXA
 62
     0
 66
     1
 10
0.0
 20
0.0
 30
0.0
  0
VERTEX
  5
750
  8
PLANTABAIXA
 62
     0
 10
7555.731321817073
 20
-1480.495257162951
 30
0.0
  0
VERTEX
  5
751
  8
PLANTABAIXA
 62
     0
 10
7554.883037198942
 20
-1484.890642940758
 30
0.0
  0
VERTEX
  5
752
  8
PLANTABAIXA
 62
     0
 10
7554.034752580814
 20
-1489.286028718564
 30
0.0
  0
VERTEX
  5
753
  8
PLANTABAIXA
 62
     0
 10
7553.186467962683
 20
-1493.68141449637
 30
0.0
  0
VERTEX
  5
754
  8
PLANTABAIXA
 62
     0
 10
7552.338183344555
 20
-1498.076800274176
 30
0.0
  0
VERTEX
  5
755
  8
PLANTABAIXA
 62
     0
 10
7551.489898726424
 20
-1502.472186051982
 30
0.0
  0
VERTEX
  5
756
  8
PLANTABAIXA
 62
     0
 10
7550.641614108295
 20
-1506.867571829788
 30
0.0
  0
VERTEX
  5
757
  8
PLANTABAIXA
 62
     0
 10
7549.793329490165
 20
-1511.262957607594
 30
0.0
  0
VERTEX
  5
758
  8
PLANTABAIXA
 62
     0
 10
7548.945044872035
 20
-1515.6583433854
 30
0.0
  0
VERTEX
  5
759
  8
PLANTABAIXA
 62
     0
 10
7548.096760253906
 20
-1520.053729163207
 30
0.0
  0
SEQEND
  5
A59
  8
PLANTABAIXA
 62
     0
  0
POLYLINE
  5
25C
  8
PLANTABAIXA
 62
     0
 66
     1
 10
0.0
 20
0.0
 30
0.0
  0
VERTEX
  5
75A
  8
PLANTABAIXA
 62
     0
 10
11895.78289502734
 20
-474.0463510671161
 30
0.0
  0
VERTEX
  5
75B
  8
PLANTABAIXA
 62
     0
 10
11891.33916263869
 20
-474.8984289999438
 30
0.0
  0
VERTEX
  5
75C
  8
PLANTABAIXA
 62
     0
 10
11886.89543025004
 20
-475.7505069327714
 30
0.0
  0
VERTEX
  5
75D
  8
PLANTABAIXA
 62
     0
 10
11882.45169786139
 20
-476.6025848655991
 30
0.0
  0
VERTEX
  5
75E
  8
PLANTABAIXA
 62
     0
 10
11878.00796547274
 20
-477.4546627984267
 30
0.0
  0
VERTEX
  5
75F
  8
PLANTABAIXA
 62
     0
 10
11873.56423308409
 20
-478.3067407312543
 30
0.0
  0
VERTEX
  5
760
  8
PLANTABAIXA
 62
     0
 10
11869.12050069544
 20
-479.158818664082
 30
0.0
  0
VERTEX
  5
761
  8
PLANTABAIXA
 62
     0
 10
11864.67676830679
 20
-480.0108965969097
 30
0.0
  0
VERTEX
  5
762
  8
PLANTABAIXA
 62
     0
 10
11860.23303591814
 20
-480.8629745297372
 30
0.0
  0
VERTEX
  5
763
  8
PLANTABAIXA
 62
     0
 10
11855.78930352949
 20
-481.7150524625649
 30
0.0
  0
SEQEND
  5
A5A
  8
PLANTABAIXA
 62
     0
  0
POLYLINE
  5
268
  8
PLANTABAIXA
 62
     0
 66
     1
 10
0.0
 20
0.0
 30
0.0
  0
VERTEX
  5
764
  8
PLANTABAIXA
 62
     0
 10
11855.78930352949
 20
-481.7150524625649
 30
0.0
  0
VERTEX
  5
765
  8
PLANTABAIXA
 62
     0
 10
11851.37426269592
 20
-480.8629745297372
 30
0.0
  0
VERTEX
  5
766
  8
PLANTABAIXA
 62
     0
 10
11846.95922186235
 20
-480.0108965969097
 30
0.0
  0
VERTEX
  5
767
  8
PLANTABAIXA
 62
     0
 10
11842.54418102877
 20
-479.158818664082
 30
0.0
  0
VERTEX
  5
768
  8
PLANTABAIXA
 62
     0
 10
11838.1291401952
 20
-478.3067407312543
 30
0.0
  0
VERTEX
  5
769
  8
PLANTABAIXA
 62
     0
 10
11833.71409936163
 20
-477.4546627984267
 30
0.0
  0
VERTEX
  5
76A
  8
PLANTABAIXA
 62
     0
 10
11829.29905852806
 20
-476.6025848655991
 30
0.0
  0
VERTEX
  5
76B
  8
PLANTABAIXA
 62
     0
 10
11824.88401769449
 20
-475.7505069327714
 30
0.0
  0
VERTEX
  5
76C
  8
PLANTABAIXA
 62
     0
 10
11820.46897686092
 20
-474.8984289999438
 30
0.0
  0
VERTEX
  5
76D
  8
PLANTABAIXA
 62
     0
 10
11816.05393602734
 20
-474.0463510671161
 30
0.0
  0
SEQEND
  5
A5B
  8
PLANTABAIXA
 62
     0
  0
POLYLINE
  5
274
  8
PLANTABAIXA
 62
     0
 66
     1
 10
0.0
 20
0.0
 30
0.0
  0
VERTEX
  5
76E
  8
PLANTABAIXA
 62
     0
 10
11855.78930352949
 20
-481.7150524625649
 30
0.0
  0
VERTEX
  5
76F
  8
PLANTABAIXA
 62
     0
 10
11860.23303591814
 20
-480.8629745297372
 30
0.0
  0
VERTEX
  5
770
  8
PLANTABAIXA
 62
     0
 10
11864.67676830679
 20
-480.0108965969097
 30
0.0
  0
VERTEX
  5
771
  8
PLANTABAIXA
 62
     0
 10
11869.12050069544
 20
-479.158818664082
 30
0.0
  0
VERTEX
  5
772
  8
PLANTABAIXA
 62
     0
 10
11873.56423308409
 20
-478.3067407312543
 30
0.0
  0
VERTEX
  5
773
  8
PLANTABAIXA
 62
     0
 10
11878.00796547274
 20
-477.4546627984267
 30
0.0
  0
VERTEX
  5
774
  8
PLANTABAIXA
 62
     0
 10
11882.45169786139
 20
-476.6025848655991
 30
0.0
  0
VERTEX
  5
775
  8
PLANTABAIXA
 62
     0
 10
11886.89543025004
 20
-475.7505069327714
 30
0.0
  0
VERTEX
  5
776
  8
PLANTABAIXA
 62
     0
 10
11891.33916263869
 20
-474.8984289999438
 30
0.0
  0
VERTEX
  5
777
  8
PLANTABAIXA
 62
     0
 10
11895.78289502734
 20
-474.0463510671161
 30
0.0
  0
SEQEND
  5
A5C
  8
PLANTABAIXA
 62
     0
  0
POLYLINE
  5
280
  8
PLANTABAIXA
 62
     0
 66
     1
 10
0.0
 20
0.0
 30
0.0
  0
VERTEX
  5
778
  8
PLANTABAIXA
 62
     0
 10
11855.78930352949
 20
-481.7150524625649
 30
0.0
  0
VERTEX
  5
779
  8
PLANTABAIXA
 62
     0
 10
11851.37426269592
 20
-480.8629745297372
 30
0.0
  0
VERTEX
  5
77A
  8
PLANTABAIXA
 62
     0
 10
11846.95922186235
 20
-480.0108965969097
 30
0.0
  0
VERTEX
  5
77B
  8
PLANTABAIXA
 62
     0
 10
11842.54418102877
 20
-479.158818664082
 30
0.0
  0
VERTEX
  5
77C
  8
PLANTABAIXA
 62
     0
 10
11838.1291401952
 20
-478.3067407312543
 30
0.0
  0
VERTEX
  5
77D
  8
PLANTABAIXA
 62
     0
 10
11833.71409936163
 20
-477.4546627984267
 30
0.0
  0
VERTEX
  5
77E
  8
PLANTABAIXA
 62
     0
 10
11829.29905852806
 20
-476.6025848655991
 30
0.0
  0
VERTEX
  5
77F
  8
PLANTABAIXA
 62
     0
 10
11824.88401769449
 20
-475.7505069327714
 30
0.0
  0
VERTEX
  5
780
  8
PLANTABAIXA
 62
     0
 10
11820.46897686092
 20
-474.8984289999438
 30
0.0
  0
VERTEX
  5
781
  8
PLANTABAIXA
 62
     0
 10
11816.05393602734
 20
-474.0463510671161
 30
0.0
  0
SEQEND
  5
A5D
  8
PLANTABAIXA
 62
     0
  0
LINE
  5
28C
  8
PLANTABAIXA
 62
     0
 10
11652.45772774273
 20
-76.90716055998374
 30
-1950.0
 11
11652.45772774273
 21
2.821798440016266
 31
-1950.0
  0
POLYLINE
  5
28D
  8
PLANTABAIXA
 62
     0
 66
     1
 10
0.0
 20
0.0
 30
0.0
  0
VERTEX
  5
782
  8
PLANTABAIXA
 62
     0
 10
11652.45772774273
 20
2.821798440016323
 30
0.0
  0
VERTEX
  5
783
  8
PLANTABAIXA
 62
     0
 10
11653.30980567556
 20
-1.621933948634251
 30
0.0
  0
VERTEX
  5
784
  8
PLANTABAIXA
 62
     0
 10
11654.16188360839
 20
-6.065666337284767
 30
0.0
  0
VERTEX
  5
785
  8
PLANTABAIXA
 62
     0
 10
11655.01396154122
 20
-10.50939872593534
 30
0.0
  0
VERTEX
  5
786
  8
PLANTABAIXA
 62
     0
 10
11655.86603947405
 20
-14.95313111458589
 30
0.0
  0
VERTEX
  5
787
  8
PLANTABAIXA
 62
     0
 10
11656.71811740687
 20
-19.39686350323646
 30
0.0
  0
VERTEX
  5
788
  8
PLANTABAIXA
 62
     0
 10
11657.5701953397
 20
-23.84059589188701
 30
0.0
  0
VERTEX
  5
789
  8
PLANTABAIXA
 62
     0
 10
11658.42227327253
 20
-28.28432828053755
 30
0.0
  0
VERTEX
  5
78A
  8
PLANTABAIXA
 62
     0
 10
11659.27435120535
 20
-32.7280606691881
 30
0.0
  0
VERTEX
  5
78B
  8
PLANTABAIXA
 62
     0
 10
11660.12642913818
 20
-37.17179305783867
 30
0.0
  0
SEQEND
  5
A5E
  8
PLANTABAIXA
 62
     0
  0
POLYLINE
  5
299
  8
PLANTABAIXA
 62
     0
 66
     1
 10
0.0
 20
0.0
 30
0.0
  0
VERTEX
  5
78C
  8
PLANTABAIXA
 62
     0
 10
11660.12642913818
 20
-37.17179305783867
 30
0.0
  0
VERTEX
  5
78D
  8
PLANTABAIXA
 62
     0
 10
11659.27435120535
 20
-41.58683389141035
 30
0.0
  0
VERTEX
  5
78E
  8
PLANTABAIXA
 62
     0
 10
11658.42227327253
 20
-46.001874724982
 30
0.0
  0
VERTEX
  5
78F
  8
PLANTABAIXA
 62
     0
 10
11657.5701953397
 20
-50.41691555855368
 30
0.0
  0
VERTEX
  5
790
  8
PLANTABAIXA
 62
     0
 10
11656.71811740687
 20
-54.83195639212533
 30
0.0
  0
VERTEX
  5
791
  8
PLANTABAIXA
 62
     0
 10
11655.86603947405
 20
-59.24699722569702
 30
0.0
  0
VERTEX
  5
792
  8
PLANTABAIXA
 62
     0
 10
11655.01396154122
 20
-63.66203805926867
 30
0.0
  0
VERTEX
  5
793
  8
PLANTABAIXA
 62
     0
 10
11654.16188360839
 20
-68.07707889284035
 30
0.0
  0
VERTEX
  5
794
  8
PLANTABAIXA
 62
     0
 10
11653.30980567556
 20
-72.492119726412
 30
0.0
  0
VERTEX
  5
795
  8
PLANTABAIXA
 62
     0
 10
11652.45772774273
 20
-76.90716055998368
 30
0.0
  0
SEQEND
  5
A5F
  8
PLANTABAIXA
 62
     0
  0
POLYLINE
  5
2A5
  8
PLANTABAIXA
 62
     0
 66
     1
 10
0.0
 20
0.0
 30
0.0
  0
VERTEX
  5
796
  8
PLANTABAIXA
 62
     0
 10
11660.12642913818
 20
-37.17179305783867
 30
0.0
  0
VERTEX
  5
797
  8
PLANTABAIXA
 62
     0
 10
11659.27435120535
 20
-32.72806066918812
 30
0.0
  0
VERTEX
  5
798
  8
PLANTABAIXA
 62
     0
 10
11658.42227327253
 20
-28.28432828053755
 30
0.0
  0
VERTEX
  5
799
  8
PLANTABAIXA
 62
     0
 10
11657.5701953397
 20
-23.84059589188701
 30
0.0
  0
VERTEX
  5
79A
  8
PLANTABAIXA
 62
     0
 10
11656.71811740687
 20
-19.39686350323646
 30
0.0
  0
VERTEX
  5
79B
  8
PLANTABAIXA
 62
     0
 10
11655.86603947405
 20
-14.95313111458589
 30
0.0
  0
VERTEX
  5
79C
  8
PLANTABAIXA
 62
     0
 10
11655.01396154122
 20
-10.50939872593534
 30
0.0
  0
VERTEX
  5
79D
  8
PLANTABAIXA
 62
     0
 10
11654.16188360839
 20
-6.065666337284767
 30
0.0
  0
VERTEX
  5
79E
  8
PLANTABAIXA
 62
     0
 10
11653.30980567556
 20
-1.621933948634251
 30
0.0
  0
VERTEX
  5
79F
  8
PLANTABAIXA
 62
     0
 10
11652.45772774273
 20
2.821798440016323
 30
0.0
  0
SEQEND
  5
A60
  8
PLANTABAIXA
 62
     0
  0
POLYLINE
  5
2B1
  8
PLANTABAIXA
 62
     0
 66
     1
 10
0.0
 20
0.0
 30
0.0
  0
VERTEX
  5
7A0
  8
PLANTABAIXA
 62
     0
 10
11660.12642913818
 20
-37.17179305783867
 30
0.0
  0
VERTEX
  5
7A1
  8
PLANTABAIXA
 62
     0
 10
11659.27435120535
 20
-41.58683389141035
 30
0.0
  0
VERTEX
  5
7A2
  8
PLANTABAIXA
 62
     0
 10
11658.42227327253
 20
-46.001874724982
 30
0.0
  0
VERTEX
  5
7A3
  8
PLANTABAIXA
 62
     0
 10
11657.5701953397
 20
-50.41691555855368
 30
0.0
  0
VERTEX
  5
7A4
  8
PLANTABAIXA
 62
     0
 10
11656.71811740687
 20
-54.83195639212533
 30
0.0
  0
VERTEX
  5
7A5
  8
PLANTABAIXA
 62
     0
 10
11655.86603947405
 20
-59.24699722569702
 30
0.0
  0
VERTEX
  5
7A6
  8
PLANTABAIXA
 62
     0
 10
11655.01396154122
 20
-63.66203805926867
 30
0.0
  0
VERTEX
  5
7A7
  8
PLANTABAIXA
 62
     0
 10
11654.16188360839
 20
-68.07707889284035
 30
0.0
  0
VERTEX
  5
7A8
  8
PLANTABAIXA
 62
     0
 10
11653.30980567556
 20
-72.492119726412
 30
0.0
  0
VERTEX
  5
7A9
  8
PLANTABAIXA
 62
     0
 10
11652.45772774273
 20
-76.90716055998368
 30
0.0
  0
SEQEND
  5
A61
  8
PLANTABAIXA
 62
     0
  0
POLYLINE
  5
2BD
  8
PLANTABAIXA
 62
     0
 66
     1
 10
0.0
 20
0.0
 30
0.0
  0
VERTEX
  5
7AA
  8
PLANTABAIXA
 62
     0
 10
10496.00960205078
 20
-187.1918965915299
 30
0.0
  0
VERTEX
  5
7AB
  8
PLANTABAIXA
 62
     0
 10
10496.86167998361
 20
-191.6356289801804
 30
0.0
  0
VERTEX
  5
7AC
  8
PLANTABAIXA
 62
     0
 10
10497.71375791643
 20
-196.079361368831
 30
0.0
  0
VERTEX
  5
7AD
  8
PLANTABAIXA
 62
     0
 10
10498.56583584926
 20
-200.5230937574815
 30
0.0
  0
VERTEX
  5
7AE
  8
PLANTABAIXA
 62
     0
 10
10499.41791378209
 20
-204.9668261461321
 30
0.0
  0
VERTEX
  5
7AF
  8
PLANTABAIXA
 62
     0
 10
10500.26999171492
 20
-209.4105585347826
 30
0.0
  0
VERTEX
  5
7B0
  8
PLANTABAIXA
 62
     0
 10
10501.12206964774
 20
-213.8542909234332
 30
0.0
  0
VERTEX
  5
7B1
  8
PLANTABAIXA
 62
     0
 10
10501.97414758057
 20
-218.2980233120837
 30
0.0
  0
VERTEX
  5
7B2
  8
PLANTABAIXA
 62
     0
 10
10502.8262255134
 20
-222.7417557007343
 30
0.0
  0
VERTEX
  5
7B3
  8
PLANTABAIXA
 62
     0
 10
10503.67830344623
 20
-227.1854880893848
 30
0.0
  0
SEQEND
  5
A62
  8
PLANTABAIXA
 62
     0
  0
POLYLINE
  5
2C9
  8
PLANTABAIXA
 62
     0
 66
     1
 10
0.0
 20
0.0
 30
0.0
  0
VERTEX
  5
7B4
  8
PLANTABAIXA
 62
     0
 10
10503.67830344623
 20
-227.1854880893848
 30
0.0
  0
VERTEX
  5
7B5
  8
PLANTABAIXA
 62
     0
 10
10502.8262255134
 20
-231.6005289229565
 30
0.0
  0
VERTEX
  5
7B6
  8
PLANTABAIXA
 62
     0
 10
10501.97414758057
 20
-236.0155697565282
 30
0.0
  0
VERTEX
  5
7B7
  8
PLANTABAIXA
 62
     0
 10
10501.12206964774
 20
-240.4306105900998
 30
0.0
  0
VERTEX
  5
7B8
  8
PLANTABAIXA
 62
     0
 10
10500.26999171492
 20
-244.8456514236715
 30
0.0
  0
VERTEX
  5
7B9
  8
PLANTABAIXA
 62
     0
 10
10499.41791378209
 20
-249.2606922572432
 30
0.0
  0
VERTEX
  5
7BA
  8
PLANTABAIXA
 62
     0
 10
10498.56583584926
 20
-253.6757330908148
 30
0.0
  0
VERTEX
  5
7BB
  8
PLANTABAIXA
 62
     0
 10
10497.71375791643
 20
-258.0907739243865
 30
0.0
  0
VERTEX
  5
7BC
  8
PLANTABAIXA
 62
     0
 10
10496.86167998361
 20
-262.5058147579581
 30
0.0
  0
VERTEX
  5
7BD
  8
PLANTABAIXA
 62
     0
 10
10496.00960205078
 20
-266.9208555915299
 30
0.0
  0
SEQEND
  5
A63
  8
PLANTABAIXA
 62
     0
  0
POLYLINE
  5
2D5
  8
PLANTABAIXA
 62
     0
 66
     1
 10
0.0
 20
0.0
 30
0.0
  0
VERTEX
  5
7BE
  8
PLANTABAIXA
 62
     0
 10
10503.67830344623
 20
-227.1854880893848
 30
0.0
  0
VERTEX
  5
7BF
  8
PLANTABAIXA
 62
     0
 10
10502.8262255134
 20
-222.7417557007343
 30
0.0
  0
VERTEX
  5
7C0
  8
PLANTABAIXA
 62
     0
 10
10501.97414758057
 20
-218.2980233120837
 30
0.0
  0
VERTEX
  5
7C1
  8
PLANTABAIXA
 62
     0
 10
10501.12206964774
 20
-213.8542909234332
 30
0.0
  0
VERTEX
  5
7C2
  8
PLANTABAIXA
 62
     0
 10
10500.26999171492
 20
-209.4105585347826
 30
0.0
  0
VERTEX
  5
7C3
  8
PLANTABAIXA
 62
     0
 10
10499.41791378209
 20
-204.9668261461321
 30
0.0
  0
VERTEX
  5
7C4
  8
PLANTABAIXA
 62
     0
 10
10498.56583584926
 20
-200.5230937574815
 30
0.0
  0
VERTEX
  5
7C5
  8
PLANTABAIXA
 62
     0
 10
10497.71375791643
 20
-196.079361368831
 30
0.0
  0
VERTEX
  5
7C6
  8
PLANTABAIXA
 62
     0
 10
10496.86167998361
 20
-191.6356289801804
 30
0.0
  0
VERTEX
  5
7C7
  8
PLANTABAIXA
 62
     0
 10
10496.00960205078
 20
-187.1918965915299
 30
0.0
  0
SEQEND
  5
A64
  8
PLANTABAIXA
 62
     0
  0
POLYLINE
  5
2E1
  8
PLANTABAIXA
 62
     0
 66
     1
 10
0.0
 20
0.0
 30
0.0
  0
VERTEX
  5
7C8
  8
PLANTABAIXA
 62
     0
 10
10503.67830344623
 20
-227.1854880893848
 30
0.0
  0
VERTEX
  5
7C9
  8
PLANTABAIXA
 62
     0
 10
10502.8262255134
 20
-231.6005289229565
 30
0.0
  0
VERTEX
  5
7CA
  8
PLANTABAIXA
 62
     0
 10
10501.97414758057
 20
-236.0155697565282
 30
0.0
  0
VERTEX
  5
7CB
  8
PLANTABAIXA
 62
     0
 10
10501.12206964774
 20
-240.4306105900998
 30
0.0
  0
VERTEX
  5
7CC
  8
PLANTABAIXA
 62
     0
 10
10500.26999171492
 20
-244.8456514236715
 30
0.0
  0
VERTEX
  5
7CD
  8
PLANTABAIXA
 62
     0
 10
10499.41791378209
 20
-249.2606922572432
 30
0.0
  0
VERTEX
  5
7CE
  8
PLANTABAIXA
 62
     0
 10
10498.56583584926
 20
-253.6757330908148
 30
0.0
  0
VERTEX
  5
7CF
  8
PLANTABAIXA
 62
     0
 10
10497.71375791643
 20
-258.0907739243865
 30
0.0
  0
VERTEX
  5
7D0
  8
PLANTABAIXA
 62
     0
 10
10496.86167998361
 20
-262.5058147579581
 30
0.0
  0
VERTEX
  5
7D1
  8
PLANTABAIXA
 62
     0
 10
10496.00960205078
 20
-266.9208555915299
 30
0.0
  0
SEQEND
  5
A65
  8
PLANTABAIXA
 62
     0
  0
POLYLINE
  5
2ED
  8
PLANTABAIXA
 62
     0
 66
     1
 10
0.0
 20
0.0
 30
0.0
  0
VERTEX
  5
7D2
  8
PLANTABAIXA
 62
     0
 10
8984.014385246093
 20
1008.561314948509
 30
0.0
  0
VERTEX
  5
7D3
  8
PLANTABAIXA
 62
     0
 10
8988.458117634744
 20
1009.413392881336
 30
0.0
  0
VERTEX
  5
7D4
  8
PLANTABAIXA
 62
     0
 10
8992.901850023394
 20
1010.265470814164
 30
0.0
  0
VERTEX
  5
7D5
  8
PLANTABAIXA
 62
     0
 10
8997.345582412045
 20
1011.117548746992
 30
0.0
  0
VERTEX
  5
7D6
  8
PLANTABAIXA
 62
     0
 10
9001.789314800695
 20
1011.969626679819
 30
0.0
  0
VERTEX
  5
7D7
  8
PLANTABAIXA
 62
     0
 10
9006.233047189346
 20
1012.821704612647
 30
0.0
  0
VERTEX
  5
7D8
  8
PLANTABAIXA
 62
     0
 10
9010.676779577996
 20
1013.673782545475
 30
0.0
  0
VERTEX
  5
7D9
  8
PLANTABAIXA
 62
     0
 10
9015.120511966647
 20
1014.525860478302
 30
0.0
  0
VERTEX
  5
7DA
  8
PLANTABAIXA
 62
     0
 10
9019.564244355297
 20
1015.37793841113
 30
0.0
  0
VERTEX
  5
7DB
  8
PLANTABAIXA
 62
     0
 10
9024.007976743947
 20
1016.230016343958
 30
0.0
  0
SEQEND
  5
A66
  8
PLANTABAIXA
 62
     0
  0
POLYLINE
  5
2F9
  8
PLANTABAIXA
 62
     0
 66
     1
 10
0.0
 20
0.0
 30
0.0
  0
VERTEX
  5
7DC
  8
PLANTABAIXA
 62
     0
 10
9024.007976743947
 20
1016.230016343958
 30
0.0
  0
VERTEX
  5
7DD
  8
PLANTABAIXA
 62
     0
 10
9028.42301757752
 20
1015.37793841113
 30
0.0
  0
VERTEX
  5
7DE
  8
PLANTABAIXA
 62
     0
 10
9032.838058411091
 20
1014.525860478302
 30
0.0
  0
VERTEX
  5
7DF
  8
PLANTABAIXA
 62
     0
 10
9037.253099244663
 20
1013.673782545475
 30
0.0
  0
VERTEX
  5
7E0
  8
PLANTABAIXA
 62
     0
 10
9041.668140078235
 20
1012.821704612647
 30
0.0
  0
VERTEX
  5
7E1
  8
PLANTABAIXA
 62
     0
 10
9046.083180911806
 20
1011.969626679819
 30
0.0
  0
VERTEX
  5
7E2
  8
PLANTABAIXA
 62
     0
 10
9050.498221745378
 20
1011.117548746992
 30
0.0
  0
VERTEX
  5
7E3
  8
PLANTABAIXA
 62
     0
 10
9054.91326257895
 20
1010.265470814164
 30
0.0
  0
VERTEX
  5
7E4
  8
PLANTABAIXA
 62
     0
 10
9059.328303412522
 20
1009.413392881336
 30
0.0
  0
VERTEX
  5
7E5
  8
PLANTABAIXA
 62
     0
 10
9063.743344246093
 20
1008.561314948509
 30
0.0
  0
SEQEND
  5
A67
  8
PLANTABAIXA
 62
     0
  0
POLYLINE
  5
305
  8
PLANTABAIXA
 62
     0
 66
     1
 10
0.0
 20
0.0
 30
0.0
  0
VERTEX
  5
7E6
  8
PLANTABAIXA
 62
     0
 10
9024.007976743947
 20
1016.230016343958
 30
0.0
  0
VERTEX
  5
7E7
  8
PLANTABAIXA
 62
     0
 10
9019.564244355297
 20
1015.37793841113
 30
0.0
  0
VERTEX
  5
7E8
  8
PLANTABAIXA
 62
     0
 10
9015.120511966647
 20
1014.525860478302
 30
0.0
  0
VERTEX
  5
7E9
  8
PLANTABAIXA
 62
     0
 10
9010.676779577996
 20
1013.673782545475
 30
0.0
  0
VERTEX
  5
7EA
  8
PLANTABAIXA
 62
     0
 10
9006.233047189346
 20
1012.821704612647
 30
0.0
  0
VERTEX
  5
7EB
  8
PLANTABAIXA
 62
     0
 10
9001.789314800695
 20
1011.969626679819
 30
0.0
  0
VERTEX
  5
7EC
  8
PLANTABAIXA
 62
     0
 10
8997.345582412045
 20
1011.117548746992
 30
0.0
  0
VERTEX
  5
7ED
  8
PLANTABAIXA
 62
     0
 10
8992.901850023394
 20
1010.265470814164
 30
0.0
  0
VERTEX
  5
7EE
  8
PLANTABAIXA
 62
     0
 10
8988.458117634744
 20
1009.413392881336
 30
0.0
  0
VERTEX
  5
7EF
  8
PLANTABAIXA
 62
     0
 10
8984.014385246093
 20
1008.561314948509
 30
0.0
  0
SEQEND
  5
A68
  8
PLANTABAIXA
 62
     0
  0
POLYLINE
  5
311
  8
PLANTABAIXA
 62
     0
 66
     1
 10
0.0
 20
0.0
 30
0.0
  0
VERTEX
  5
7F0
  8
PLANTABAIXA
 62
     0
 10
9024.007976743947
 20
1016.230016343958
 30
0.0
  0
VERTEX
  5
7F1
  8
PLANTABAIXA
 62
     0
 10
9028.42301757752
 20
1015.37793841113
 30
0.0
  0
VERTEX
  5
7F2
  8
PLANTABAIXA
 62
     0
 10
9032.838058411091
 20
1014.525860478302
 30
0.0
  0
VERTEX
  5
7F3
  8
PLANTABAIXA
 62
     0
 10
9037.253099244663
 20
1013.673782545475
 30
0.0
  0
VERTEX
  5
7F4
  8
PLANTABAIXA
 62
     0
 10
9041.668140078235
 20
1012.821704612647
 30
0.0
  0
VERTEX
  5
7F5
  8
PLANTABAIXA
 62
     0
 10
9046.083180911806
 20
1011.969626679819
 30
0.0
  0
VERTEX
  5
7F6
  8
PLANTABAIXA
 62
     0
 10
9050.498221745378
 20
1011.117548746992
 30
0.0
  0
VERTEX
  5
7F7
  8
PLANTABAIXA
 62
     0
 10
9054.91326257895
 20
1010.265470814164
 30
0.0
  0
VERTEX
  5
7F8
  8
PLANTABAIXA
 62
     0
 10
9059.328303412522
 20
1009.413392881336
 30
0.0
  0
VERTEX
  5
7F9
  8
PLANTABAIXA
 62
     0
 10
9063.743344246093
 20
1008.561314948509
 30
0.0
  0
SEQEND
  5
A69
  8
PLANTABAIXA
 62
     0
  0
LINE
  5
31D
  8
PLANTABAIXA
 62
     0
 10
11458.96476212959
 20
1017.579836148275
 30
-1950.0
 11
11379.23580312959
 21
1017.579836148275
 31
-1950.0
  0
POLYLINE
  5
31E
  8
PLANTABAIXA
 62
     0
 66
     1
 10
0.0
 20
0.0
 30
0.0
  0
VERTEX
  5
7FA
  8
PLANTABAIXA
 62
     0
 10
11379.23580312959
 20
1017.579836148275
 30
0.0
  0
VERTEX
  5
7FB
  8
PLANTABAIXA
 62
     0
 10
11383.67953551824
 20
1018.431914081102
 30
0.0
  0
VERTEX
  5
7FC
  8
PLANTABAIXA
 62
     0
 10
11388.12326790689
 20
1019.28399201393
 30
0.0
  0
VERTEX
  5
7FD
  8
PLANTABAIXA
 62
     0
 10
11392.56700029554
 20
1020.136069946758
 30
0.0
  0
VERTEX
  5
7FE
  8
PLANTABAIXA
 62
     0
 10
11397.01073268419
 20
1020.988147879585
 30
0.0
  0
VERTEX
  5
7FF
  8
PLANTABAIXA
 62
     0
 10
11401.45446507284
 20
1021.840225812413
 30
0.0
  0
VERTEX
  5
800
  8
PLANTABAIXA
 62
     0
 10
11405.89819746149
 20
1022.692303745241
 30
0.0
  0
VERTEX
  5
801
  8
PLANTABAIXA
 62
     0
 10
11410.34192985014
 20
1023.544381678068
 30
0.0
  0
VERTEX
  5
802
  8
PLANTABAIXA
 62
     0
 10
11414.78566223879
 20
1024.396459610896
 30
0.0
  0
VERTEX
  5
803
  8
PLANTABAIXA
 62
     0
 10
11419.22939462744
 20
1025.248537543724
 30
0.0
  0
SEQEND
  5
A6A
  8
PLANTABAIXA
 62
     0
  0
POLYLINE
  5
32A
  8
PLANTABAIXA
 62
     0
 66
     1
 10
0.0
 20
0.0
 30
0.0
  0
VERTEX
  5
804
  8
PLANTABAIXA
 62
     0
 10
11419.22939462744
 20
1025.248537543724
 30
0.0
  0
VERTEX
  5
805
  8
PLANTABAIXA
 62
     0
 10
11423.64443546101
 20
1024.396459610896
 30
0.0
  0
VERTEX
  5
806
  8
PLANTABAIXA
 62
     0
 10
11428.05947629458
 20
1023.544381678068
 30
0.0
  0
VERTEX
  5
807
  8
PLANTABAIXA
 62
     0
 10
11432.47451712816
 20
1022.692303745241
 30
0.0
  0
VERTEX
  5
808
  8
PLANTABAIXA
 62
     0
 10
11436.88955796173
 20
1021.840225812413
 30
0.0
  0
VERTEX
  5
809
  8
PLANTABAIXA
 62
     0
 10
11441.3045987953
 20
1020.988147879585
 30
0.0
  0
VERTEX
  5
80A
  8
PLANTABAIXA
 62
     0
 10
11445.71963962887
 20
1020.136069946758
 30
0.0
  0
VERTEX
  5
80B
  8
PLANTABAIXA
 62
     0
 10
11450.13468046244
 20
1019.28399201393
 30
0.0
  0
VERTEX
  5
80C
  8
PLANTABAIXA
 62
     0
 10
11454.54972129601
 20
1018.431914081102
 30
0.0
  0
VERTEX
  5
80D
  8
PLANTABAIXA
 62
     0
 10
11458.96476212959
 20
1017.579836148275
 30
0.0
  0
SEQEND
  5
A6B
  8
PLANTABAIXA
 62
     0
  0
POLYLINE
  5
336
  8
PLANTABAIXA
 62
     0
 66
     1
 10
0.0
 20
0.0
 30
0.0
  0
VERTEX
  5
80E
  8
PLANTABAIXA
 62
     0
 10
11419.22939462744
 20
1025.248537543724
 30
0.0
  0
VERTEX
  5
80F
  8
PLANTABAIXA
 62
     0
 10
11414.78566223879
 20
1024.396459610896
 30
0.0
  0
VERTEX
  5
810
  8
PLANTABAIXA
 62
     0
 10
11410.34192985014
 20
1023.544381678068
 30
0.0
  0
VERTEX
  5
811
  8
PLANTABAIXA
 62
     0
 10
11405.89819746149
 20
1022.692303745241
 30
0.0
  0
VERTEX
  5
812
  8
PLANTABAIXA
 62
     0
 10
11401.45446507284
 20
1021.840225812413
 30
0.0
  0
VERTEX
  5
813
  8
PLANTABAIXA
 62
     0
 10
11397.01073268419
 20
1020.988147879585
 30
0.0
  0
VERTEX
  5
814
  8
PLANTABAIXA
 62
     0
 10
11392.56700029554
 20
1020.136069946758
 30
0.0
  0
VERTEX
  5
815
  8
PLANTABAIXA
 62
     0
 10
11388.12326790689
 20
1019.28399201393
 30
0.0
  0
VERTEX
  5
816
  8
PLANTABAIXA
 62
     0
 10
11383.67953551824
 20
1018.431914081102
 30
0.0
  0
VERTEX
  5
817
  8
PLANTABAIXA
 62
     0
 10
11379.23580312959
 20
1017.579836148275
 30
0.0
  0
SEQEND
  5
A6C
  8
PLANTABAIXA
 62
     0
  0
POLYLINE
  5
342
  8
PLANTABAIXA
 62
     0
 66
     1
 10
0.0
 20
0.0
 30
0.0
  0
VERTEX
  5
818
  8
PLANTABAIXA
 62
     0
 10
11419.22939462744
 20
1025.248537543724
 30
0.0
  0
VERTEX
  5
819
  8
PLANTABAIXA
 62
     0
 10
11423.64443546101
 20
1024.396459610896
 30
0.0
  0
VERTEX
  5
81A
  8
PLANTABAIXA
 62
     0
 10
11428.05947629458
 20
1023.544381678068
 30
0.0
  0
VERTEX
  5
81B
  8
PLANTABAIXA
 62
     0
 10
11432.47451712816
 20
1022.692303745241
 30
0.0
  0
VERTEX
  5
81C
  8
PLANTABAIXA
 62
     0
 10
11436.88955796173
 20
1021.840225812413
 30
0.0
  0
VERTEX
  5
81D
  8
PLANTABAIXA
 62
     0
 10
11441.3045987953
 20
1020.988147879585
 30
0.0
  0
VERTEX
  5
81E
  8
PLANTABAIXA
 62
     0
 10
11445.71963962887
 20
1020.136069946758
 30
0.0
  0
VERTEX
  5
81F
  8
PLANTABAIXA
 62
     0
 10
11450.13468046244
 20
1019.28399201393
 30
0.0
  0
VERTEX
  5
820
  8
PLANTABAIXA
 62
     0
 10
11454.54972129601
 20
1018.431914081102
 30
0.0
  0
VERTEX
  5
821
  8
PLANTABAIXA
 62
     0
 10
11458.96476212959
 20
1017.579836148275
 30
0.0
  0
SEQEND
  5
A6D
  8
PLANTABAIXA
 62
     0
  0
POLYLINE
  5
34E
  8
PLANTABAIXA
 62
     0
 66
     1
 10
0.0
 20
0.0
 30
0.0
  0
VERTEX
  5
822
  8
PLANTABAIXA
 62
     0
 10
7560.255696024355
 20
1104.070831073508
 30
0.0
  0
VERTEX
  5
823
  8
PLANTABAIXA
 62
     0
 10
7559.403618091526
 20
1108.514563462159
 30
0.0
  0
VERTEX
  5
824
  8
PLANTABAIXA
 62
     0
 10
7558.5515401587
 20
1112.958295850809
 30
0.0
  0
VERTEX
  5
825
  8
PLANTABAIXA
 62
     0
 10
7557.699462225872
 20
1117.40202823946
 30
0.0
  0
VERTEX
  5
826
  8
PLANTABAIXA
 62
     0
 10
7556.847384293043
 20
1121.84576062811
 30
0.0
  0
VERTEX
  5
827
  8
PLANTABAIXA
 62
     0
 10
7555.995306360217
 20
1126.289493016761
 30
0.0
  0
VERTEX
  5
828
  8
PLANTABAIXA
 62
     0
 10
7555.143228427389
 20
1130.733225405412
 30
0.0
  0
VERTEX
  5
829
  8
PLANTABAIXA
 62
     0
 10
7554.29115049456
 20
1135.176957794062
 30
0.0
  0
VERTEX
  5
82A
  8
PLANTABAIXA
 62
     0
 10
7553.439072561734
 20
1139.620690182713
 30
0.0
  0
VERTEX
  5
82B
  8
PLANTABAIXA
 62
     0
 10
7552.586994628906
 20
1144.064422571363
 30
0.0
  0
SEQEND
  5
A6E
  8
PLANTABAIXA
 62
     0
  0
POLYLINE
  5
35A
  8
PLANTABAIXA
 62
     0
 66
     1
 10
0.0
 20
0.0
 30
0.0
  0
VERTEX
  5
82C
  8
PLANTABAIXA
 62
     0
 10
7560.255696024355
 20
1104.070831073508
 30
0.0
  0
VERTEX
  5
82D
  8
PLANTABAIXA
 62
     0
 10
7559.403618091526
 20
1099.655790239937
 30
0.0
  0
VERTEX
  5
82E
  8
PLANTABAIXA
 62
     0
 10
7558.5515401587
 20
1095.240749406365
 30
0.0
  0
VERTEX
  5
82F
  8
PLANTABAIXA
 62
     0
 10
7557.699462225872
 20
1090.825708572793
 30
0.0
  0
VERTEX
  5
830
  8
PLANTABAIXA
 62
     0
 10
7556.847384293043
 20
1086.410667739222
 30
0.0
  0
VERTEX
  5
831
  8
PLANTABAIXA
 62
     0
 10
7555.995306360217
 20
1081.99562690565
 30
0.0
  0
VERTEX
  5
832
  8
PLANTABAIXA
 62
     0
 10
7555.143228427389
 20
1077.580586072078
 30
0.0
  0
VERTEX
  5
833
  8
PLANTABAIXA
 62
     0
 10
7554.29115049456
 20
1073.165545238507
 30
0.0
  0
VERTEX
  5
834
  8
PLANTABAIXA
 62
     0
 10
7553.439072561734
 20
1068.750504404935
 30
0.0
  0
VERTEX
  5
835
  8
PLANTABAIXA
 62
     0
 10
7552.586994628906
 20
1064.335463571363
 30
0.0
  0
SEQEND
  5
A6F
  8
PLANTABAIXA
 62
     0
  0
POLYLINE
  5
366
  8
PLANTABAIXA
 62
     0
 66
     1
 10
0.0
 20
0.0
 30
0.0
  0
VERTEX
  5
836
  8
PLANTABAIXA
 62
     0
 10
7552.586994628906
 20
1144.064422571363
 30
0.0
  0
VERTEX
  5
837
  8
PLANTABAIXA
 62
     0
 10
7553.439072561734
 20
1139.620690182713
 30
0.0
  0
VERTEX
  5
838
  8
PLANTABAIXA
 62
     0
 10
7554.29115049456
 20
1135.176957794062
 30
0.0
  0
VERTEX
  5
839
  8
PLANTABAIXA
 62
     0
 10
7555.143228427389
 20
1130.733225405412
 30
0.0
  0
VERTEX
  5
83A
  8
PLANTABAIXA
 62
     0
 10
7555.995306360217
 20
1126.289493016761
 30
0.0
  0
VERTEX
  5
83B
  8
PLANTABAIXA
 62
     0
 10
7556.847384293043
 20
1121.84576062811
 30
0.0
  0
VERTEX
  5
83C
  8
PLANTABAIXA
 62
     0
 10
7557.699462225872
 20
1117.40202823946
 30
0.0
  0
VERTEX
  5
83D
  8
PLANTABAIXA
 62
     0
 10
7558.5515401587
 20
1112.958295850809
 30
0.0
  0
VERTEX
  5
83E
  8
PLANTABAIXA
 62
     0
 10
7559.403618091526
 20
1108.514563462159
 30
0.0
  0
VERTEX
  5
83F
  8
PLANTABAIXA
 62
     0
 10
7560.255696024355
 20
1104.070831073508
 30
0.0
  0
SEQEND
  5
A70
  8
PLANTABAIXA
 62
     0
  0
POLYLINE
  5
372
  8
PLANTABAIXA
 62
     0
 66
     1
 10
0.0
 20
0.0
 30
0.0
  0
VERTEX
  5
840
  8
PLANTABAIXA
 62
     0
 10
7560.255696024355
 20
1104.070831073508
 30
0.0
  0
VERTEX
  5
841
  8
PLANTABAIXA
 62
     0
 10
7559.403618091526
 20
1099.655790239937
 30
0.0
  0
VERTEX
  5
842
  8
PLANTABAIXA
 62
     0
 10
7558.5515401587
 20
1095.240749406365
 30
0.0
  0
VERTEX
  5
843
  8
PLANTABAIXA
 62
     0
 10
7557.699462225872
 20
1090.825708572793
 30
0.0
  0
VERTEX
  5
844
  8
PLANTABAIXA
 62
     0
 10
7556.847384293043
 20
1086.410667739222
 30
0.0
  0
VERTEX
  5
845
  8
PLANTABAIXA
 62
     0
 10
7555.995306360217
 20
1081.99562690565
 30
0.0
  0
VERTEX
  5
846
  8
PLANTABAIXA
 62
     0
 10
7555.143228427389
 20
1077.580586072078
 30
0.0
  0
VERTEX
  5
847
  8
PLANTABAIXA
 62
     0
 10
7554.29115049456
 20
1073.165545238507
 30
0.0
  0
VERTEX
  5
848
  8
PLANTABAIXA
 62
     0
 10
7553.439072561734
 20
1068.750504404935
 30
0.0
  0
VERTEX
  5
849
  8
PLANTABAIXA
 62
     0
 10
7552.586994628906
 20
1064.335463571363
 30
0.0
  0
SEQEND
  5
A71
  8
PLANTABAIXA
 62
     0
  0
POLYLINE
  5
37E
  8
PLANTABAIXA
 62
     0
 66
     1
 10
0.0
 20
0.0
 30
0.0
  0
VERTEX
  5
84A
  8
PLANTABAIXA
 62
     0
 10
8877.909786927927
 20
843.7352649202476
 30
0.0
  0
VERTEX
  5
84B
  8
PLANTABAIXA
 62
     0
 10
8882.353519316577
 20
844.5873428530751
 30
0.0
  0
VERTEX
  5
84C
  8
PLANTABAIXA
 62
     0
 10
8886.797251705228
 20
845.4394207859029
 30
0.0
  0
VERTEX
  5
84D
  8
PLANTABAIXA
 62
     0
 10
8891.240984093878
 20
846.2914987187305
 30
0.0
  0
VERTEX
  5
84E
  8
PLANTABAIXA
 62
     0
 10
8895.684716482529
 20
847.1435766515581
 30
0.0
  0
VERTEX
  5
84F
  8
PLANTABAIXA
 62
     0
 10
8900.128448871179
 20
847.9956545843859
 30
0.0
  0
VERTEX
  5
850
  8
PLANTABAIXA
 62
     0
 10
8904.57218125983
 20
848.8477325172134
 30
0.0
  0
VERTEX
  5
851
  8
PLANTABAIXA
 62
     0
 10
8909.01591364848
 20
849.699810450041
 30
0.0
  0
VERTEX
  5
852
  8
PLANTABAIXA
 62
     0
 10
8913.45964603713
 20
850.5518883828688
 30
0.0
  0
VERTEX
  5
853
  8
PLANTABAIXA
 62
     0
 10
8917.90337842578
 20
851.4039663156964
 30
0.0
  0
SEQEND
  5
A72
  8
PLANTABAIXA
 62
     0
  0
POLYLINE
  5
38A
  8
PLANTABAIXA
 62
     0
 66
     1
 10
0.0
 20
0.0
 30
0.0
  0
VERTEX
  5
854
  8
PLANTABAIXA
 62
     0
 10
8877.909786927927
 20
843.7352649202476
 30
0.0
  0
VERTEX
  5
855
  8
PLANTABAIXA
 62
     0
 10
8873.494746094355
 20
844.5873428530751
 30
0.0
  0
VERTEX
  5
856
  8
PLANTABAIXA
 62
     0
 10
8869.079705260783
 20
845.4394207859029
 30
0.0
  0
VERTEX
  5
857
  8
PLANTABAIXA
 62
     0
 10
8864.664664427211
 20
846.2914987187305
 30
0.0
  0
VERTEX
  5
858
  8
PLANTABAIXA
 62
     0
 10
8860.24962359364
 20
847.1435766515581
 30
0.0
  0
VERTEX
  5
859
  8
PLANTABAIXA
 62
     0
 10
8855.834582760068
 20
847.9956545843859
 30
0.0
  0
VERTEX
  5
85A
  8
PLANTABAIXA
 62
     0
 10
8851.419541926496
 20
848.8477325172134
 30
0.0
  0
VERTEX
  5
85B
  8
PLANTABAIXA
 62
     0
 10
8847.004501092924
 20
849.699810450041
 30
0.0
  0
VERTEX
  5
85C
  8
PLANTABAIXA
 62
     0
 10
8842.589460259353
 20
850.5518883828688
 30
0.0
  0
VERTEX
  5
85D
  8
PLANTABAIXA
 62
     0
 10
8838.17441942578
 20
851.4039663156964
 30
0.0
  0
SEQEND
  5
A73
  8
PLANTABAIXA
 62
     0
  0
POLYLINE
  5
396
  8
PLANTABAIXA
 62
     0
 66
     1
 10
0.0
 20
0.0
 30
0.0
  0
VERTEX
  5
85E
  8
PLANTABAIXA
 62
     0
 10
8917.90337842578
 20
851.4039663156964
 30
0.0
  0
VERTEX
  5
85F
  8
PLANTABAIXA
 62
     0
 10
8913.45964603713
 20
850.5518883828688
 30
0.0
  0
VERTEX
  5
860
  8
PLANTABAIXA
 62
     0
 10
8909.01591364848
 20
849.699810450041
 30
0.0
  0
VERTEX
  5
861
  8
PLANTABAIXA
 62
     0
 10
8904.57218125983
 20
848.8477325172134
 30
0.0
  0
VERTEX
  5
862
  8
PLANTABAIXA
 62
     0
 10
8900.128448871179
 20
847.9956545843859
 30
0.0
  0
VERTEX
  5
863
  8
PLANTABAIXA
 62
     0
 10
8895.684716482529
 20
847.1435766515581
 30
0.0
  0
VERTEX
  5
864
  8
PLANTABAIXA
 62
     0
 10
8891.240984093878
 20
846.2914987187305
 30
0.0
  0
VERTEX
  5
865
  8
PLANTABAIXA
 62
     0
 10
8886.797251705228
 20
845.4394207859029
 30
0.0
  0
VERTEX
  5
866
  8
PLANTABAIXA
 62
     0
 10
8882.353519316577
 20
844.5873428530751
 30
0.0
  0
VERTEX
  5
867
  8
PLANTABAIXA
 62
     0
 10
8877.909786927927
 20
843.7352649202476
 30
0.0
  0
SEQEND
  5
A74
  8
PLANTABAIXA
 62
     0
  0
POLYLINE
  5
3A2
  8
PLANTABAIXA
 62
     0
 66
     1
 10
0.0
 20
0.0
 30
0.0
  0
VERTEX
  5
868
  8
PLANTABAIXA
 62
     0
 10
8877.909786927927
 20
843.7352649202476
 30
0.0
  0
VERTEX
  5
869
  8
PLANTABAIXA
 62
     0
 10
8873.494746094355
 20
844.5873428530751
 30
0.0
  0
VERTEX
  5
86A
  8
PLANTABAIXA
 62
     0
 10
8869.079705260783
 20
845.4394207859029
 30
0.0
  0
VERTEX
  5
86B
  8
PLANTABAIXA
 62
     0
 10
8864.664664427211
 20
846.2914987187305
 30
0.0
  0
VERTEX
  5
86C
  8
PLANTABAIXA
 62
     0
 10
8860.24962359364
 20
847.1435766515581
 30
0.0
  0
VERTEX
  5
86D
  8
PLANTABAIXA
 62
     0
 10
8855.834582760068
 20
847.9956545843859
 30
0.0
  0
VERTEX
  5
86E
  8
PLANTABAIXA
 62
     0
 10
8851.419541926496
 20
848.8477325172134
 30
0.0
  0
VERTEX
  5
86F
  8
PLANTABAIXA
 62
     0
 10
8847.004501092924
 20
849.699810450041
 30
0.0
  0
VERTEX
  5
870
  8
PLANTABAIXA
 62
     0
 10
8842.589460259353
 20
850.5518883828688
 30
0.0
  0
VERTEX
  5
871
  8
PLANTABAIXA
 62
     0
 10
8838.17441942578
 20
851.4039663156964
 30
0.0
  0
SEQEND
  5
A75
  8
PLANTABAIXA
 62
     0
  0
POLYLINE
  5
3AE
  8
PLANTABAIXA
 62
     0
 66
     1
 10
0.0
 20
0.0
 30
0.0
  0
VERTEX
  5
872
  8
PLANTABAIXA
 62
     0
 10
8179.317240525486
 20
843.7352712898894
 30
0.0
  0
VERTEX
  5
873
  8
PLANTABAIXA
 62
     0
 10
8183.760969223162
 20
844.5873485149791
 30
0.0
  0
VERTEX
  5
874
  8
PLANTABAIXA
 62
     0
 10
8188.204697920837
 20
845.4394257400688
 30
0.0
  0
VERTEX
  5
875
  8
PLANTABAIXA
 62
     0
 10
8192.648426618514
 20
846.2915029651583
 30
0.0
  0
VERTEX
  5
876
  8
PLANTABAIXA
 62
     0
 10
8197.09215531619
 20
847.143580190248
 30
0.0
  0
VERTEX
  5
877
  8
PLANTABAIXA
 62
     0
 10
8201.535884013865
 20
847.9956574153377
 30
0.0
  0
VERTEX
  5
878
  8
PLANTABAIXA
 62
     0
 10
8205.97961271154
 20
848.8477346404275
 30
0.0
  0
VERTEX
  5
879
  8
PLANTABAIXA
 62
     0
 10
8210.423341409216
 20
849.699811865517
 30
0.0
  0
VERTEX
  5
87A
  8
PLANTABAIXA
 62
     0
 10
8214.867070106891
 20
850.5518890906067
 30
0.0
  0
VERTEX
  5
87B
  8
PLANTABAIXA
 62
     0
 10
8219.310798804569
 20
851.4039663156964
 30
0.0
  0
SEQEND
  5
A76
  8
PLANTABAIXA
 62
     0
  0
POLYLINE
  5
3BA
  8
PLANTABAIXA
 62
     0
 66
     1
 10
0.0
 20
0.0
 30
0.0
  0
VERTEX
  5
87C
  8
PLANTABAIXA
 62
     0
 10
8179.317240525486
 20
843.7352712898894
 30
0.0
  0
VERTEX
  5
87D
  8
PLANTABAIXA
 62
     0
 10
8174.902203359058
 20
844.5873485149791
 30
0.0
  0
VERTEX
  5
87E
  8
PLANTABAIXA
 62
     0
 10
8170.48716619263
 20
845.4394257400688
 30
0.0
  0
VERTEX
  5
87F
  8
PLANTABAIXA
 62
     0
 10
8166.072129026202
 20
846.2915029651583
 30
0.0
  0
VERTEX
  5
880
  8
PLANTABAIXA
 62
     0
 10
8161.657091859774
 20
847.143580190248
 30
0.0
  0
VERTEX
  5
881
  8
PLANTABAIXA
 62
     0
 10
8157.242054693345
 20
847.9956574153377
 30
0.0
  0
VERTEX
  5
882
  8
PLANTABAIXA
 62
     0
 10
8152.827017526917
 20
848.8477346404275
 30
0.0
  0
VERTEX
  5
883
  8
PLANTABAIXA
 62
     0
 10
8148.411980360489
 20
849.699811865517
 30
0.0
  0
VERTEX
  5
884
  8
PLANTABAIXA
 62
     0
 10
8143.996943194061
 20
850.5518890906067
 30
0.0
  0
VERTEX
  5
885
  8
PLANTABAIXA
 62
     0
 10
8139.581906027633
 20
851.4039663156964
 30
0.0
  0
SEQEND
  5
A77
  8
PLANTABAIXA
 62
     0
  0
POLYLINE
  5
3C6
  8
PLANTABAIXA
 62
     0
 66
     1
 10
0.0
 20
0.0
 30
0.0
  0
VERTEX
  5
886
  8
PLANTABAIXA
 62
     0
 10
8219.310798804569
 20
851.4039663156964
 30
0.0
  0
VERTEX
  5
887
  8
PLANTABAIXA
 62
     0
 10
8214.867070106891
 20
850.5518890906067
 30
0.0
  0
VERTEX
  5
888
  8
PLANTABAIXA
 62
     0
 10
8210.423341409216
 20
849.699811865517
 30
0.0
  0
VERTEX
  5
889
  8
PLANTABAIXA
 62
     0
 10
8205.97961271154
 20
848.8477346404275
 30
0.0
  0
VERTEX
  5
88A
  8
PLANTABAIXA
 62
     0
 10
8201.535884013865
 20
847.9956574153377
 30
0.0
  0
VERTEX
  5
88B
  8
PLANTABAIXA
 62
     0
 10
8197.09215531619
 20
847.143580190248
 30
0.0
  0
VERTEX
  5
88C
  8
PLANTABAIXA
 62
     0
 10
8192.648426618514
 20
846.2915029651583
 30
0.0
  0
VERTEX
  5
88D
  8
PLANTABAIXA
 62
     0
 10
8188.204697920837
 20
845.4394257400688
 30
0.0
  0
VERTEX
  5
88E
  8
PLANTABAIXA
 62
     0
 10
8183.760969223162
 20
844.5873485149791
 30
0.0
  0
VERTEX
  5
88F
  8
PLANTABAIXA
 62
     0
 10
8179.317240525486
 20
843.7352712898894
 30
0.0
  0
SEQEND
  5
A78
  8
PLANTABAIXA
 62
     0
  0
POLYLINE
  5
3D2
  8
PLANTABAIXA
 62
     0
 66
     1
 10
0.0
 20
0.0
 30
0.0
  0
VERTEX
  5
890
  8
PLANTABAIXA
 62
     0
 10
8179.317240525486
 20
843.7352712898894
 30
0.0
  0
VERTEX
  5
891
  8
PLANTABAIXA
 62
     0
 10
8174.902203359058
 20
844.5873485149791
 30
0.0
  0
VERTEX
  5
892
  8
PLANTABAIXA
 62
     0
 10
8170.48716619263
 20
845.4394257400688
 30
0.0
  0
VERTEX
  5
893
  8
PLANTABAIXA
 62
     0
 10
8166.072129026202
 20
846.2915029651583
 30
0.0
  0
VERTEX
  5
894
  8
PLANTABAIXA
 62
     0
 10
8161.657091859774
 20
847.143580190248
 30
0.0
  0
VERTEX
  5
895
  8
PLANTABAIXA
 62
     0
 10
8157.242054693345
 20
847.9956574153377
 30
0.0
  0
VERTEX
  5
896
  8
PLANTABAIXA
 62
     0
 10
8152.827017526917
 20
848.8477346404275
 30
0.0
  0
VERTEX
  5
897
  8
PLANTABAIXA
 62
     0
 10
8148.411980360489
 20
849.699811865517
 30
0.0
  0
VERTEX
  5
898
  8
PLANTABAIXA
 62
     0
 10
8143.996943194061
 20
850.5518890906067
 30
0.0
  0
VERTEX
  5
899
  8
PLANTABAIXA
 62
     0
 10
8139.581906027633
 20
851.4039663156964
 30
0.0
  0
SEQEND
  5
A79
  8
PLANTABAIXA
 62
     0
  0
POLYLINE
  5
3DE
  8
PLANTABAIXA
 62
     0
 66
     1
 10
0.0
 20
0.0
 30
0.0
  0
VERTEX
  5
89A
  8
PLANTABAIXA
 62
     0
 10
12349.73888849042
 20
-481.7150524625652
 30
0.0
  0
VERTEX
  5
89B
  8
PLANTABAIXA
 62
     0
 10
12354.18262087908
 20
-480.8629745297375
 30
0.0
  0
VERTEX
  5
89C
  8
PLANTABAIXA
 62
     0
 10
12358.62635326773
 20
-480.0108965969099
 30
0.0
  0
VERTEX
  5
89D
  8
PLANTABAIXA
 62
     0
 10
12363.07008565638
 20
-479.1588186640822
 30
0.0
  0
VERTEX
  5
89E
  8
PLANTABAIXA
 62
     0
 10
12367.51381804503
 20
-478.3067407312545
 30
0.0
  0
VERTEX
  5
89F
  8
PLANTABAIXA
 62
     0
 10
12371.95755043368
 20
-477.454662798427
 30
0.0
  0
VERTEX
  5
8A0
  8
PLANTABAIXA
 62
     0
 10
12376.40128282233
 20
-476.6025848655993
 30
0.0
  0
VERTEX
  5
8A1
  8
PLANTABAIXA
 62
     0
 10
12380.84501521098
 20
-475.7505069327716
 30
0.0
  0
VERTEX
  5
8A2
  8
PLANTABAIXA
 62
     0
 10
12385.28874759963
 20
-474.898428999944
 30
0.0
  0
VERTEX
  5
8A3
  8
PLANTABAIXA
 62
     0
 10
12389.73247998828
 20
-474.0463510671163
 30
0.0
  0
SEQEND
  5
A7A
  8
PLANTABAIXA
 62
     0
  0
POLYLINE
  5
3EA
  8
PLANTABAIXA
 62
     0
 66
     1
 10
0.0
 20
0.0
 30
0.0
  0
VERTEX
  5
8A4
  8
PLANTABAIXA
 62
     0
 10
12349.73888849042
 20
-481.7150524625652
 30
0.0
  0
VERTEX
  5
8A5
  8
PLANTABAIXA
 62
     0
 10
12345.32384765685
 20
-480.8629745297375
 30
0.0
  0
VERTEX
  5
8A6
  8
PLANTABAIXA
 62
     0
 10
12340.90880682328
 20
-480.0108965969099
 30
0.0
  0
VERTEX
  5
8A7
  8
PLANTABAIXA
 62
     0
 10
12336.49376598971
 20
-479.1588186640822
 30
0.0
  0
VERTEX
  5
8A8
  8
PLANTABAIXA
 62
     0
 10
12332.07872515614
 20
-478.3067407312545
 30
0.0
  0
VERTEX
  5
8A9
  8
PLANTABAIXA
 62
     0
 10
12327.66368432257
 20
-477.454662798427
 30
0.0
  0
VERTEX
  5
8AA
  8
PLANTABAIXA
 62
     0
 10
12323.248643489
 20
-476.6025848655993
 30
0.0
  0
VERTEX
  5
8AB
  8
PLANTABAIXA
 62
     0
 10
12318.83360265542
 20
-475.7505069327716
 30
0.0
  0
VERTEX
  5
8AC
  8
PLANTABAIXA
 62
     0
 10
12314.41856182185
 20
-474.898428999944
 30
0.0
  0
VERTEX
  5
8AD
  8
PLANTABAIXA
 62
     0
 10
12310.00352098828
 20
-474.0463510671163
 30
0.0
  0
SEQEND
  5
A7B
  8
PLANTABAIXA
 62
     0
  0
POLYLINE
  5
3F6
  8
PLANTABAIXA
 62
     0
 66
     1
 10
0.0
 20
0.0
 30
0.0
  0
VERTEX
  5
8AE
  8
PLANTABAIXA
 62
     0
 10
12389.73247998828
 20
-474.0463510671163
 30
0.0
  0
VERTEX
  5
8AF
  8
PLANTABAIXA
 62
     0
 10
12385.28874759963
 20
-474.898428999944
 30
0.0
  0
VERTEX
  5
8B0
  8
PLANTABAIXA
 62
     0
 10
12380.84501521098
 20
-475.7505069327716
 30
0.0
  0
VERTEX
  5
8B1
  8
PLANTABAIXA
 62
     0
 10
12376.40128282233
 20
-476.6025848655993
 30
0.0
  0
VERTEX
  5
8B2
  8
PLANTABAIXA
 62
     0
 10
12371.95755043368
 20
-477.454662798427
 30
0.0
  0
VERTEX
  5
8B3
  8
PLANTABAIXA
 62
     0
 10
12367.51381804503
 20
-478.3067407312545
 30
0.0
  0
VERTEX
  5
8B4
  8
PLANTABAIXA
 62
     0
 10
12363.07008565638
 20
-479.1588186640822
 30
0.0
  0
VERTEX
  5
8B5
  8
PLANTABAIXA
 62
     0
 10
12358.62635326773
 20
-480.0108965969099
 30
0.0
  0
VERTEX
  5
8B6
  8
PLANTABAIXA
 62
     0
 10
12354.18262087908
 20
-480.8629745297375
 30
0.0
  0
VERTEX
  5
8B7
  8
PLANTABAIXA
 62
     0
 10
12349.73888849042
 20
-481.7150524625652
 30
0.0
  0
SEQEND
  5
A7C
  8
PLANTABAIXA
 62
     0
  0
POLYLINE
  5
402
  8
PLANTABAIXA
 62
     0
 66
     1
 10
0.0
 20
0.0
 30
0.0
  0
VERTEX
  5
8B8
  8
PLANTABAIXA
 62
     0
 10
12349.73888849042
 20
-481.7150524625652
 30
0.0
  0
VERTEX
  5
8B9
  8
PLANTABAIXA
 62
     0
 10
12345.32384765685
 20
-480.8629745297375
 30
0.0
  0
VERTEX
  5
8BA
  8
PLANTABAIXA
 62
     0
 10
12340.90880682328
 20
-480.0108965969099
 30
0.0
  0
VERTEX
  5
8BB
  8
PLANTABAIXA
 62
     0
 10
12336.49376598971
 20
-479.1588186640822
 30
0.0
  0
VERTEX
  5
8BC
  8
PLANTABAIXA
 62
     0
 10
12332.07872515614
 20
-478.3067407312545
 30
0.0
  0
VERTEX
  5
8BD
  8
PLANTABAIXA
 62
     0
 10
12327.66368432257
 20
-477.454662798427
 30
0.0
  0
VERTEX
  5
8BE
  8
PLANTABAIXA
 62
     0
 10
12323.248643489
 20
-476.6025848655993
 30
0.0
  0
VERTEX
  5
8BF
  8
PLANTABAIXA
 62
     0
 10
12318.83360265542
 20
-475.7505069327716
 30
0.0
  0
VERTEX
  5
8C0
  8
PLANTABAIXA
 62
     0
 10
12314.41856182185
 20
-474.898428999944
 30
0.0
  0
VERTEX
  5
8C1
  8
PLANTABAIXA
 62
     0
 10
12310.00352098828
 20
-474.0463510671163
 30
0.0
  0
SEQEND
  5
A7D
  8
PLANTABAIXA
 62
     0
  0
POLYLINE
  5
40E
  8
PLANTABAIXA
 62
     0
 66
     1
 10
0.0
 20
0.0
 30
0.0
  0
VERTEX
  5
8C2
  8
PLANTABAIXA
 62
     0
 10
11658.4287329366
 20
-27.94597312398145
 30
0.0
  0
VERTEX
  5
8C3
  8
PLANTABAIXA
 62
     0
 10
11657.60635831941
 20
-23.65714861483923
 30
0.0
  0
VERTEX
  5
8C4
  8
PLANTABAIXA
 62
     0
 10
11656.78398370222
 20
-19.36832410569701
 30
0.0
  0
VERTEX
  5
8C5
  8
PLANTABAIXA
 62
     0
 10
11655.96160908503
 20
-15.07949959655483
 30
0.0
  0
VERTEX
  5
8C6
  8
PLANTABAIXA
 62
     0
 10
11655.13923446784
 20
-10.79067508741264
 30
0.0
  0
VERTEX
  5
8C7
  8
PLANTABAIXA
 62
     0
 10
11654.31685985065
 20
-6.501850578270421
 30
0.0
  0
VERTEX
  5
8C8
  8
PLANTABAIXA
 62
     0
 10
11653.49448523346
 20
-2.213026069128261
 30
0.0
  0
VERTEX
  5
8C9
  8
PLANTABAIXA
 62
     0
 10
11652.67211061627
 20
2.075798440013955
 30
0.0
  0
SEQEND
  5
A7E
  8
PLANTABAIXA
 62
     0
  0
POLYLINE
  5
418
  8
PLANTABAIXA
 62
     0
 66
     1
 10
0.0
 20
0.0
 30
0.0
  0
VERTEX
  5
8CA
  8
PLANTABAIXA
 62
     0
 10
11658.79212453851
 20
-45.94231542749958
 30
0.0
  0
VERTEX
  5
8CB
  8
PLANTABAIXA
 62
     0
 10
11657.91783683533
 20
-50.47243616071194
 30
0.0
  0
VERTEX
  5
8CC
  8
PLANTABAIXA
 62
     0
 10
11657.04354913216
 20
-55.00255689392426
 30
0.0
  0
VERTEX
  5
8CD
  8
PLANTABAIXA
 62
     0
 10
11656.16926142898
 20
-59.53267762713662
 30
0.0
  0
VERTEX
  5
8CE
  8
PLANTABAIXA
 62
     0
 10
11655.2949737258
 20
-64.06279836034898
 30
0.0
  0
VERTEX
  5
8CF
  8
PLANTABAIXA
 62
     0
 10
11654.42068602263
 20
-68.59291909356133
 30
0.0
  0
VERTEX
  5
8D0
  8
PLANTABAIXA
 62
     0
 10
11653.54639831945
 20
-73.12303982677366
 30
0.0
  0
VERTEX
  5
8D1
  8
PLANTABAIXA
 62
     0
 10
11652.67211061627
 20
-77.65316055998602
 30
0.0
  0
SEQEND
  5
A7F
  8
PLANTABAIXA
 62
     0
  0
LINE
  5
422
  8
PLANTABAIXA
 62
     0
 10
11652.67211061627
 20
-77.65316055998605
 30
-1950.0
 11
11652.67211061627
 21
-75.79633594615382
 31
-1950.0
  0
LINE
  5
423
  8
PLANTABAIXA
 62
     0
 10
11652.67211061627
 20
1.703755028718433
 30
-1950.0
 11
11652.67211061627
 21
2.075798440013955
 31
-1950.0
  0
POLYLINE
  5
424
  8
PLANTABAIXA
 62
     0
 66
     1
 10
0.0
 20
0.0
 30
0.0
  0
VERTEX
  5
8D2
  8
PLANTABAIXA
 62
     0
 10
11652.67211061627
 20
2.075798440013955
 30
0.0
  0
VERTEX
  5
8D3
  8
PLANTABAIXA
 62
     0
 10
11653.49448523346
 20
-2.213026069128261
 30
0.0
  0
VERTEX
  5
8D4
  8
PLANTABAIXA
 62
     0
 10
11654.31685985065
 20
-6.501850578270478
 30
0.0
  0
VERTEX
  5
8D5
  8
PLANTABAIXA
 62
     0
 10
11655.13923446784
 20
-10.79067508741264
 30
0.0
  0
VERTEX
  5
8D6
  8
PLANTABAIXA
 62
     0
 10
11655.96160908503
 20
-15.07949959655485
 30
0.0
  0
VERTEX
  5
8D7
  8
PLANTABAIXA
 62
     0
 10
11656.78398370222
 20
-19.36832410569707
 30
0.0
  0
VERTEX
  5
8D8
  8
PLANTABAIXA
 62
     0
 10
11657.60635831941
 20
-23.65714861483926
 30
0.0
  0
VERTEX
  5
8D9
  8
PLANTABAIXA
 62
     0
 10
11658.4287329366
 20
-27.94597312398147
 30
0.0
  0
SEQEND
  5
A80
  8
PLANTABAIXA
 62
     0
  0
POLYLINE
  5
42E
  8
PLANTABAIXA
 62
     0
 66
     1
 10
0.0
 20
0.0
 30
0.0
  0
VERTEX
  5
8DA
  8
PLANTABAIXA
 62
     0
 10
11658.79212453851
 20
-45.94231542749958
 30
0.0
  0
VERTEX
  5
8DB
  8
PLANTABAIXA
 62
     0
 10
11657.91783683533
 20
-50.47243616071194
 30
0.0
  0
VERTEX
  5
8DC
  8
PLANTABAIXA
 62
     0
 10
11657.04354913216
 20
-55.00255689392426
 30
0.0
  0
VERTEX
  5
8DD
  8
PLANTABAIXA
 62
     0
 10
11656.16926142898
 20
-59.53267762713662
 30
0.0
  0
VERTEX
  5
8DE
  8
PLANTABAIXA
 62
     0
 10
11655.2949737258
 20
-64.06279836034898
 30
0.0
  0
VERTEX
  5
8DF
  8
PLANTABAIXA
 62
     0
 10
11654.42068602263
 20
-68.59291909356133
 30
0.0
  0
VERTEX
  5
8E0
  8
PLANTABAIXA
 62
     0
 10
11653.54639831945
 20
-73.12303982677366
 30
0.0
  0
VERTEX
  5
8E1
  8
PLANTABAIXA
 62
     0
 10
11652.67211061627
 20
-77.65316055998602
 30
0.0
  0
SEQEND
  5
A81
  8
PLANTABAIXA
 62
     0
  0
POLYLINE
  5
438
  8
PLANTABAIXA
 62
     0
 66
     1
 10
0.0
 20
0.0
 30
0.0
  0
VERTEX
  5
8E2
  8
PLANTABAIXA
 62
     0
 10
7555.765461649356
 20
-1251.66121923118
 30
0.0
  0
VERTEX
  5
8E3
  8
PLANTABAIXA
 62
     0
 10
7554.913383716528
 20
-1247.217486842529
 30
0.0
  0
VERTEX
  5
8E4
  8
PLANTABAIXA
 62
     0
 10
7554.061305783702
 20
-1242.773754453879
 30
0.0
  0
VERTEX
  5
8E5
  8
PLANTABAIXA
 62
     0
 10
7553.209227850874
 20
-1238.330022065228
 30
0.0
  0
VERTEX
  5
8E6
  8
PLANTABAIXA
 62
     0
 10
7552.357149918045
 20
-1233.886289676578
 30
0.0
  0
VERTEX
  5
8E7
  8
PLANTABAIXA
 62
     0
 10
7551.505071985219
 20
-1229.442557287927
 30
0.0
  0
VERTEX
  5
8E8
  8
PLANTABAIXA
 62
     0
 10
7550.652994052391
 20
-1224.998824899276
 30
0.0
  0
VERTEX
  5
8E9
  8
PLANTABAIXA
 62
     0
 10
7549.800916119562
 20
-1220.555092510626
 30
0.0
  0
VERTEX
  5
8EA
  8
PLANTABAIXA
 62
     0
 10
7548.948838186736
 20
-1216.111360121975
 30
0.0
  0
VERTEX
  5
8EB
  8
PLANTABAIXA
 62
     0
 10
7548.096760253908
 20
-1211.667627733325
 30
0.0
  0
SEQEND
  5
A82
  8
PLANTABAIXA
 62
     0
  0
POLYLINE
  5
444
  8
PLANTABAIXA
 62
     0
 66
     1
 10
0.0
 20
0.0
 30
0.0
  0
VERTEX
  5
8EC
  8
PLANTABAIXA
 62
     0
 10
7555.765461649356
 20
-1251.66121923118
 30
0.0
  0
VERTEX
  5
8ED
  8
PLANTABAIXA
 62
     0
 10
7554.913383716528
 20
-1256.076260064751
 30
0.0
  0
VERTEX
  5
8EE
  8
PLANTABAIXA
 62
     0
 10
7554.061305783702
 20
-1260.491300898323
 30
0.0
  0
VERTEX
  5
8EF
  8
PLANTABAIXA
 62
     0
 10
7553.209227850874
 20
-1264.906341731895
 30
0.0
  0
VERTEX
  5
8F0
  8
PLANTABAIXA
 62
     0
 10
7552.357149918045
 20
-1269.321382565466
 30
0.0
  0
VERTEX
  5
8F1
  8
PLANTABAIXA
 62
     0
 10
7551.505071985219
 20
-1273.736423399038
 30
0.0
  0
VERTEX
  5
8F2
  8
PLANTABAIXA
 62
     0
 10
7550.652994052391
 20
-1278.15146423261
 30
0.0
  0
VERTEX
  5
8F3
  8
PLANTABAIXA
 62
     0
 10
7549.800916119562
 20
-1282.566505066181
 30
0.0
  0
VERTEX
  5
8F4
  8
PLANTABAIXA
 62
     0
 10
7548.948838186736
 20
-1286.981545899753
 30
0.0
  0
VERTEX
  5
8F5
  8
PLANTABAIXA
 62
     0
 10
7548.096760253908
 20
-1291.396586733325
 30
0.0
  0
SEQEND
  5
A83
  8
PLANTABAIXA
 62
     0
  0
POLYLINE
  5
450
  8
PLANTABAIXA
 62
     0
 66
     1
 10
0.0
 20
0.0
 30
0.0
  0
VERTEX
  5
8F6
  8
PLANTABAIXA
 62
     0
 10
7548.096760253908
 20
-1211.667627733325
 30
0.0
  0
VERTEX
  5
8F7
  8
PLANTABAIXA
 62
     0
 10
7548.948838186736
 20
-1216.111360121975
 30
0.0
  0
VERTEX
  5
8F8
  8
PLANTABAIXA
 62
     0
 10
7549.800916119562
 20
-1220.555092510626
 30
0.0
  0
VERTEX
  5
8F9
  8
PLANTABAIXA
 62
     0
 10
7550.652994052391
 20
-1224.998824899276
 30
0.0
  0
VERTEX
  5
8FA
  8
PLANTABAIXA
 62
     0
 10
7551.505071985219
 20
-1229.442557287927
 30
0.0
  0
VERTEX
  5
8FB
  8
PLANTABAIXA
 62
     0
 10
7552.357149918045
 20
-1233.886289676578
 30
0.0
  0
VERTEX
  5
8FC
  8
PLANTABAIXA
 62
     0
 10
7553.209227850874
 20
-1238.330022065228
 30
0.0
  0
VERTEX
  5
8FD
  8
PLANTABAIXA
 62
     0
 10
7554.061305783702
 20
-1242.773754453879
 30
0.0
  0
VERTEX
  5
8FE
  8
PLANTABAIXA
 62
     0
 10
7554.913383716528
 20
-1247.217486842529
 30
0.0
  0
VERTEX
  5
8FF
  8
PLANTABAIXA
 62
     0
 10
7555.765461649356
 20
-1251.66121923118
 30
0.0
  0
SEQEND
  5
A84
  8
PLANTABAIXA
 62
     0
  0
POLYLINE
  5
45C
  8
PLANTABAIXA
 62
     0
 66
     1
 10
0.0
 20
0.0
 30
0.0
  0
VERTEX
  5
900
  8
PLANTABAIXA
 62
     0
 10
7555.765461649356
 20
-1251.66121923118
 30
0.0
  0
VERTEX
  5
901
  8
PLANTABAIXA
 62
     0
 10
7554.913383716528
 20
-1256.076260064751
 30
0.0
  0
VERTEX
  5
902
  8
PLANTABAIXA
 62
     0
 10
7554.061305783702
 20
-1260.491300898323
 30
0.0
  0
VERTEX
  5
903
  8
PLANTABAIXA
 62
     0
 10
7553.209227850874
 20
-1264.906341731895
 30
0.0
  0
VERTEX
  5
904
  8
PLANTABAIXA
 62
     0
 10
7552.357149918045
 20
-1269.321382565466
 30
0.0
  0
VERTEX
  5
905
  8
PLANTABAIXA
 62
     0
 10
7551.505071985219
 20
-1273.736423399038
 30
0.0
  0
VERTEX
  5
906
  8
PLANTABAIXA
 62
     0
 10
7550.652994052391
 20
-1278.15146423261
 30
0.0
  0
VERTEX
  5
907
  8
PLANTABAIXA
 62
     0
 10
7549.800916119562
 20
-1282.566505066181
 30
0.0
  0
VERTEX
  5
908
  8
PLANTABAIXA
 62
     0
 10
7548.948838186736
 20
-1286.981545899753
 30
0.0
  0
VERTEX
  5
909
  8
PLANTABAIXA
 62
     0
 10
7548.096760253908
 20
-1291.396586733325
 30
0.0
  0
SEQEND
  5
A85
  8
PLANTABAIXA
 62
     0
  0
POLYLINE
  5
468
  8
PLANTABAIXA
 62
     0
 66
     1
 10
0.0
 20
0.0
 30
0.0
  0
VERTEX
  5
90A
  8
PLANTABAIXA
 62
     0
 10
8877.909786927927
 20
3500.931065701498
 30
0.0
  0
VERTEX
  5
90B
  8
PLANTABAIXA
 62
     0
 10
8882.353519316577
 20
3501.783143634325
 30
0.0
  0
VERTEX
  5
90C
  8
PLANTABAIXA
 62
     0
 10
8886.797251705228
 20
3502.635221567153
 30
0.0
  0
VERTEX
  5
90D
  8
PLANTABAIXA
 62
     0
 10
8891.240984093878
 20
3503.487299499981
 30
0.0
  0
VERTEX
  5
90E
  8
PLANTABAIXA
 62
     0
 10
8895.684716482529
 20
3504.339377432808
 30
0.0
  0
VERTEX
  5
90F
  8
PLANTABAIXA
 62
     0
 10
8900.128448871179
 20
3505.191455365636
 30
0.0
  0
VERTEX
  5
910
  8
PLANTABAIXA
 62
     0
 10
8904.57218125983
 20
3506.043533298463
 30
0.0
  0
VERTEX
  5
911
  8
PLANTABAIXA
 62
     0
 10
8909.01591364848
 20
3506.895611231291
 30
0.0
  0
VERTEX
  5
912
  8
PLANTABAIXA
 62
     0
 10
8913.45964603713
 20
3507.747689164119
 30
0.0
  0
VERTEX
  5
913
  8
PLANTABAIXA
 62
     0
 10
8917.90337842578
 20
3508.599767096946
 30
0.0
  0
SEQEND
  5
A86
  8
PLANTABAIXA
 62
     0
  0
POLYLINE
  5
474
  8
PLANTABAIXA
 62
     0
 66
     1
 10
0.0
 20
0.0
 30
0.0
  0
VERTEX
  5
914
  8
PLANTABAIXA
 62
     0
 10
8877.909786927927
 20
3500.931065701498
 30
0.0
  0
VERTEX
  5
915
  8
PLANTABAIXA
 62
     0
 10
8873.494746094355
 20
3501.783143634325
 30
0.0
  0
VERTEX
  5
916
  8
PLANTABAIXA
 62
     0
 10
8869.079705260783
 20
3502.635221567153
 30
0.0
  0
VERTEX
  5
917
  8
PLANTABAIXA
 62
     0
 10
8864.664664427211
 20
3503.487299499981
 30
0.0
  0
VERTEX
  5
918
  8
PLANTABAIXA
 62
     0
 10
8860.24962359364
 20
3504.339377432808
 30
0.0
  0
VERTEX
  5
919
  8
PLANTABAIXA
 62
     0
 10
8855.834582760068
 20
3505.191455365636
 30
0.0
  0
VERTEX
  5
91A
  8
PLANTABAIXA
 62
     0
 10
8851.419541926496
 20
3506.043533298463
 30
0.0
  0
VERTEX
  5
91B
  8
PLANTABAIXA
 62
     0
 10
8847.004501092924
 20
3506.895611231291
 30
0.0
  0
VERTEX
  5
91C
  8
PLANTABAIXA
 62
     0
 10
8842.589460259353
 20
3507.747689164119
 30
0.0
  0
VERTEX
  5
91D
  8
PLANTABAIXA
 62
     0
 10
8838.17441942578
 20
3508.599767096946
 30
0.0
  0
SEQEND
  5
A87
  8
PLANTABAIXA
 62
     0
  0
POLYLINE
  5
480
  8
PLANTABAIXA
 62
     0
 66
     1
 10
0.0
 20
0.0
 30
0.0
  0
VERTEX
  5
91E
  8
PLANTABAIXA
 62
     0
 10
8917.90337842578
 20
3508.599767096946
 30
0.0
  0
VERTEX
  5
91F
  8
PLANTABAIXA
 62
     0
 10
8913.45964603713
 20
3507.747689164119
 30
0.0
  0
VERTEX
  5
920
  8
PLANTABAIXA
 62
     0
 10
8909.01591364848
 20
3506.895611231291
 30
0.0
  0
VERTEX
  5
921
  8
PLANTABAIXA
 62
     0
 10
8904.57218125983
 20
3506.043533298463
 30
0.0
  0
VERTEX
  5
922
  8
PLANTABAIXA
 62
     0
 10
8900.128448871179
 20
3505.191455365636
 30
0.0
  0
VERTEX
  5
923
  8
PLANTABAIXA
 62
     0
 10
8895.684716482529
 20
3504.339377432808
 30
0.0
  0
VERTEX
  5
924
  8
PLANTABAIXA
 62
     0
 10
8891.240984093878
 20
3503.487299499981
 30
0.0
  0
VERTEX
  5
925
  8
PLANTABAIXA
 62
     0
 10
8886.797251705228
 20
3502.635221567153
 30
0.0
  0
VERTEX
  5
926
  8
PLANTABAIXA
 62
     0
 10
8882.353519316577
 20
3501.783143634325
 30
0.0
  0
VERTEX
  5
927
  8
PLANTABAIXA
 62
     0
 10
8877.909786927927
 20
3500.931065701498
 30
0.0
  0
SEQEND
  5
A88
  8
PLANTABAIXA
 62
     0
  0
POLYLINE
  5
48C
  8
PLANTABAIXA
 62
     0
 66
     1
 10
0.0
 20
0.0
 30
0.0
  0
VERTEX
  5
928
  8
PLANTABAIXA
 62
     0
 10
8877.909786927927
 20
3500.931065701498
 30
0.0
  0
VERTEX
  5
929
  8
PLANTABAIXA
 62
     0
 10
8873.494746094355
 20
3501.783143634325
 30
0.0
  0
VERTEX
  5
92A
  8
PLANTABAIXA
 62
     0
 10
8869.079705260783
 20
3502.635221567153
 30
0.0
  0
VERTEX
  5
92B
  8
PLANTABAIXA
 62
     0
 10
8864.664664427211
 20
3503.487299499981
 30
0.0
  0
VERTEX
  5
92C
  8
PLANTABAIXA
 62
     0
 10
8860.24962359364
 20
3504.339377432808
 30
0.0
  0
VERTEX
  5
92D
  8
PLANTABAIXA
 62
     0
 10
8855.834582760068
 20
3505.191455365636
 30
0.0
  0
VERTEX
  5
92E
  8
PLANTABAIXA
 62
     0
 10
8851.419541926496
 20
3506.043533298463
 30
0.0
  0
VERTEX
  5
92F
  8
PLANTABAIXA
 62
     0
 10
8847.004501092924
 20
3506.895611231291
 30
0.0
  0
VERTEX
  5
930
  8
PLANTABAIXA
 62
     0
 10
8842.589460259353
 20
3507.747689164119
 30
0.0
  0
VERTEX
  5
931
  8
PLANTABAIXA
 62
     0
 10
8838.17441942578
 20
3508.599767096946
 30
0.0
  0
SEQEND
  5
A89
  8
PLANTABAIXA
 62
     0
  0
POLYLINE
  5
498
  8
PLANTABAIXA
 62
     0
 66
     1
 10
0.0
 20
0.0
 30
0.0
  0
VERTEX
  5
932
  8
PLANTABAIXA
 62
     0
 10
11202.80370782636
 20
3500.931065701498
 30
0.0
  0
VERTEX
  5
933
  8
PLANTABAIXA
 62
     0
 10
11207.24744021501
 20
3501.783143634325
 30
0.0
  0
VERTEX
  5
934
  8
PLANTABAIXA
 62
     0
 10
11211.69117260366
 20
3502.635221567153
 30
0.0
  0
VERTEX
  5
935
  8
PLANTABAIXA
 62
     0
 10
11216.13490499232
 20
3503.487299499981
 30
0.0
  0
VERTEX
  5
936
  8
PLANTABAIXA
 62
     0
 10
11220.57863738097
 20
3504.339377432808
 30
0.0
  0
VERTEX
  5
937
  8
PLANTABAIXA
 62
     0
 10
11225.02236976962
 20
3505.191455365636
 30
0.0
  0
VERTEX
  5
938
  8
PLANTABAIXA
 62
     0
 10
11229.46610215827
 20
3506.043533298463
 30
0.0
  0
VERTEX
  5
939
  8
PLANTABAIXA
 62
     0
 10
11233.90983454692
 20
3506.895611231291
 30
0.0
  0
VERTEX
  5
93A
  8
PLANTABAIXA
 62
     0
 10
11238.35356693557
 20
3507.747689164119
 30
0.0
  0
VERTEX
  5
93B
  8
PLANTABAIXA
 62
     0
 10
11242.79729932422
 20
3508.599767096946
 30
0.0
  0
SEQEND
  5
A8A
  8
PLANTABAIXA
 62
     0
  0
POLYLINE
  5
4A4
  8
PLANTABAIXA
 62
     0
 66
     1
 10
0.0
 20
0.0
 30
0.0
  0
VERTEX
  5
93C
  8
PLANTABAIXA
 62
     0
 10
11202.80370782636
 20
3500.931065701498
 30
0.0
  0
VERTEX
  5
93D
  8
PLANTABAIXA
 62
     0
 10
11198.38866699279
 20
3501.783143634325
 30
0.0
  0
VERTEX
  5
93E
  8
PLANTABAIXA
 62
     0
 10
11193.97362615922
 20
3502.635221567153
 30
0.0
  0
VERTEX
  5
93F
  8
PLANTABAIXA
 62
     0
 10
11189.55858532565
 20
3503.487299499981
 30
0.0
  0
VERTEX
  5
940
  8
PLANTABAIXA
 62
     0
 10
11185.14354449208
 20
3504.339377432808
 30
0.0
  0
VERTEX
  5
941
  8
PLANTABAIXA
 62
     0
 10
11180.72850365851
 20
3505.191455365636
 30
0.0
  0
VERTEX
  5
942
  8
PLANTABAIXA
 62
     0
 10
11176.31346282493
 20
3506.043533298463
 30
0.0
  0
VERTEX
  5
943
  8
PLANTABAIXA
 62
     0
 10
11171.89842199136
 20
3506.895611231291
 30
0.0
  0
VERTEX
  5
944
  8
PLANTABAIXA
 62
     0
 10
11167.48338115779
 20
3507.747689164119
 30
0.0
  0
VERTEX
  5
945
  8
PLANTABAIXA
 62
     0
 10
11163.06834032422
 20
3508.599767096946
 30
0.0
  0
SEQEND
  5
A8B
  8
PLANTABAIXA
 62
     0
  0
POLYLINE
  5
4B0
  8
PLANTABAIXA
 62
     0
 66
     1
 10
0.0
 20
0.0
 30
0.0
  0
VERTEX
  5
946
  8
PLANTABAIXA
 62
     0
 10
11242.79729932422
 20
3508.599767096946
 30
0.0
  0
VERTEX
  5
947
  8
PLANTABAIXA
 62
     0
 10
11238.35356693557
 20
3507.747689164119
 30
0.0
  0
VERTEX
  5
948
  8
PLANTABAIXA
 62
     0
 10
11233.90983454692
 20
3506.895611231291
 30
0.0
  0
VERTEX
  5
949
  8
PLANTABAIXA
 62
     0
 10
11229.46610215827
 20
3506.043533298463
 30
0.0
  0
VERTEX
  5
94A
  8
PLANTABAIXA
 62
     0
 10
11225.02236976962
 20
3505.191455365636
 30
0.0
  0
VERTEX
  5
94B
  8
PLANTABAIXA
 62
     0
 10
11220.57863738097
 20
3504.339377432808
 30
0.0
  0
VERTEX
  5
94C
  8
PLANTABAIXA
 62
     0
 10
11216.13490499232
 20
3503.487299499981
 30
0.0
  0
VERTEX
  5
94D
  8
PLANTABAIXA
 62
     0
 10
11211.69117260366
 20
3502.635221567153
 30
0.0
  0
VERTEX
  5
94E
  8
PLANTABAIXA
 62
     0
 10
11207.24744021501
 20
3501.783143634325
 30
0.0
  0
VERTEX
  5
94F
  8
PLANTABAIXA
 62
     0
 10
11202.80370782636
 20
3500.931065701498
 30
0.0
  0
SEQEND
  5
A8C
  8
PLANTABAIXA
 62
     0
  0
POLYLINE
  5
4BC
  8
PLANTABAIXA
 62
     0
 66
     1
 10
0.0
 20
0.0
 30
0.0
  0
VERTEX
  5
950
  8
PLANTABAIXA
 62
     0
 10
11202.80370782636
 20
3500.931065701498
 30
0.0
  0
VERTEX
  5
951
  8
PLANTABAIXA
 62
     0
 10
11198.38866699279
 20
3501.783143634325
 30
0.0
  0
VERTEX
  5
952
  8
PLANTABAIXA
 62
     0
 10
11193.97362615922
 20
3502.635221567153
 30
0.0
  0
VERTEX
  5
953
  8
PLANTABAIXA
 62
     0
 10
11189.55858532565
 20
3503.487299499981
 30
0.0
  0
VERTEX
  5
954
  8
PLANTABAIXA
 62
     0
 10
11185.14354449208
 20
3504.339377432808
 30
0.0
  0
VERTEX
  5
955
  8
PLANTABAIXA
 62
     0
 10
11180.72850365851
 20
3505.191455365636
 30
0.0
  0
VERTEX
  5
956
  8
PLANTABAIXA
 62
     0
 10
11176.31346282493
 20
3506.043533298463
 30
0.0
  0
VERTEX
  5
957
  8
PLANTABAIXA
 62
     0
 10
11171.89842199136
 20
3506.895611231291
 30
0.0
  0
VERTEX
  5
958
  8
PLANTABAIXA
 62
     0
 10
11167.48338115779
 20
3507.747689164119
 30
0.0
  0
VERTEX
  5
959
  8
PLANTABAIXA
 62
     0
 10
11163.06834032422
 20
3508.599767096946
 30
0.0
  0
SEQEND
  5
A8D
  8
PLANTABAIXA
 62
     0
  0
POLYLINE
  5
4C8
  8
PLANTABAIXA
 62
     0
 66
     1
 10
0.0
 20
0.0
 30
0.0
  0
VERTEX
  5
95A
  8
PLANTABAIXA
 62
     0
 10
8179.317240525486
 20
3500.931065701498
 30
0.0
  0
VERTEX
  5
95B
  8
PLANTABAIXA
 62
     0
 10
8183.760972914137
 20
3501.783143634325
 30
0.0
  0
VERTEX
  5
95C
  8
PLANTABAIXA
 62
     0
 10
8188.204705302787
 20
3502.635221567153
 30
0.0
  0
VERTEX
  5
95D
  8
PLANTABAIXA
 62
     0
 10
8192.648437691438
 20
3503.487299499981
 30
0.0
  0
VERTEX
  5
95E
  8
PLANTABAIXA
 62
     0
 10
8197.092170080088
 20
3504.339377432808
 30
0.0
  0
VERTEX
  5
95F
  8
PLANTABAIXA
 62
     0
 10
8201.535902468739
 20
3505.191455365636
 30
0.0
  0
VERTEX
  5
960
  8
PLANTABAIXA
 62
     0
 10
8205.97963485739
 20
3506.043533298463
 30
0.0
  0
VERTEX
  5
961
  8
PLANTABAIXA
 62
     0
 10
8210.42336724604
 20
3506.895611231291
 30
0.0
  0
VERTEX
  5
962
  8
PLANTABAIXA
 62
     0
 10
8214.86709963469
 20
3507.747689164119
 30
0.0
  0
VERTEX
  5
963
  8
PLANTABAIXA
 62
     0
 10
8219.31083202334
 20
3508.599767096946
 30
0.0
  0
SEQEND
  5
A8E
  8
PLANTABAIXA
 62
     0
  0
POLYLINE
  5
4D4
  8
PLANTABAIXA
 62
     0
 66
     1
 10
0.0
 20
0.0
 30
0.0
  0
VERTEX
  5
964
  8
PLANTABAIXA
 62
     0
 10
8179.317240525486
 20
3500.931065701498
 30
0.0
  0
VERTEX
  5
965
  8
PLANTABAIXA
 62
     0
 10
8174.902199691915
 20
3501.783143634325
 30
0.0
  0
VERTEX
  5
966
  8
PLANTABAIXA
 62
     0
 10
8170.487158858343
 20
3502.635221567153
 30
0.0
  0
VERTEX
  5
967
  8
PLANTABAIXA
 62
     0
 10
8166.072118024771
 20
3503.487299499981
 30
0.0
  0
VERTEX
  5
968
  8
PLANTABAIXA
 62
     0
 10
8161.657077191199
 20
3504.339377432808
 30
0.0
  0
VERTEX
  5
969
  8
PLANTABAIXA
 62
     0
 10
8157.242036357628
 20
3505.191455365636
 30
0.0
  0
VERTEX
  5
96A
  8
PLANTABAIXA
 62
     0
 10
8152.826995524056
 20
3506.043533298463
 30
0.0
  0
VERTEX
  5
96B
  8
PLANTABAIXA
 62
     0
 10
8148.411954690484
 20
3506.895611231291
 30
0.0
  0
VERTEX
  5
96C
  8
PLANTABAIXA
 62
     0
 10
8143.996913856913
 20
3507.747689164119
 30
0.0
  0
VERTEX
  5
96D
  8
PLANTABAIXA
 62
     0
 10
8139.581873023341
 20
3508.599767096946
 30
0.0
  0
SEQEND
  5
A8F
  8
PLANTABAIXA
 62
     0
  0
POLYLINE
  5
4E0
  8
PLANTABAIXA
 62
     0
 66
     1
 10
0.0
 20
0.0
 30
0.0
  0
VERTEX
  5
96E
  8
PLANTABAIXA
 62
     0
 10
8219.31083202334
 20
3508.599767096946
 30
0.0
  0
VERTEX
  5
96F
  8
PLANTABAIXA
 62
     0
 10
8214.86709963469
 20
3507.747689164119
 30
0.0
  0
VERTEX
  5
970
  8
PLANTABAIXA
 62
     0
 10
8210.42336724604
 20
3506.895611231291
 30
0.0
  0
VERTEX
  5
971
  8
PLANTABAIXA
 62
     0
 10
8205.97963485739
 20
3506.043533298463
 30
0.0
  0
VERTEX
  5
972
  8
PLANTABAIXA
 62
     0
 10
8201.535902468739
 20
3505.191455365636
 30
0.0
  0
VERTEX
  5
973
  8
PLANTABAIXA
 62
     0
 10
8197.092170080088
 20
3504.339377432808
 30
0.0
  0
VERTEX
  5
974
  8
PLANTABAIXA
 62
     0
 10
8192.648437691438
 20
3503.487299499981
 30
0.0
  0
VERTEX
  5
975
  8
PLANTABAIXA
 62
     0
 10
8188.204705302787
 20
3502.635221567153
 30
0.0
  0
VERTEX
  5
976
  8
PLANTABAIXA
 62
     0
 10
8183.760972914137
 20
3501.783143634325
 30
0.0
  0
VERTEX
  5
977
  8
PLANTABAIXA
 62
     0
 10
8179.317240525486
 20
3500.931065701498
 30
0.0
  0
SEQEND
  5
A90
  8
PLANTABAIXA
 62
     0
  0
POLYLINE
  5
4EC
  8
PLANTABAIXA
 62
     0
 66
     1
 10
0.0
 20
0.0
 30
0.0
  0
VERTEX
  5
978
  8
PLANTABAIXA
 62
     0
 10
8179.317240525486
 20
3500.931065701498
 30
0.0
  0
VERTEX
  5
979
  8
PLANTABAIXA
 62
     0
 10
8174.902199691915
 20
3501.783143634325
 30
0.0
  0
VERTEX
  5
97A
  8
PLANTABAIXA
 62
     0
 10
8170.487158858343
 20
3502.635221567153
 30
0.0
  0
VERTEX
  5
97B
  8
PLANTABAIXA
 62
     0
 10
8166.072118024771
 20
3503.487299499981
 30
0.0
  0
VERTEX
  5
97C
  8
PLANTABAIXA
 62
     0
 10
8161.657077191199
 20
3504.339377432808
 30
0.0
  0
VERTEX
  5
97D
  8
PLANTABAIXA
 62
     0
 10
8157.242036357628
 20
3505.191455365636
 30
0.0
  0
VERTEX
  5
97E
  8
PLANTABAIXA
 62
     0
 10
8152.826995524056
 20
3506.043533298463
 30
0.0
  0
VERTEX
  5
97F
  8
PLANTABAIXA
 62
     0
 10
8148.411954690484
 20
3506.895611231291
 30
0.0
  0
VERTEX
  5
980
  8
PLANTABAIXA
 62
     0
 10
8143.996913856913
 20
3507.747689164119
 30
0.0
  0
VERTEX
  5
981
  8
PLANTABAIXA
 62
     0
 10
8139.581873023341
 20
3508.599767096946
 30
0.0
  0
SEQEND
  5
A91
  8
PLANTABAIXA
 62
     0
  0
POLYLINE
  5
4F8
  8
PLANTABAIXA
 62
     0
 66
     1
 10
0.0
 20
0.0
 30
0.0
  0
VERTEX
  5
982
  8
PLANTABAIXA
 62
     0
 10
10504.37569360352
 20
-1339.341234549349
 30
0.0
  0
VERTEX
  5
983
  8
PLANTABAIXA
 62
     0
 10
10503.52361567069
 20
-1334.897502160699
 30
0.0
  0
VERTEX
  5
984
  8
PLANTABAIXA
 62
     0
 10
10502.67153773786
 20
-1330.453769772048
 30
0.0
  0
VERTEX
  5
985
  8
PLANTABAIXA
 62
     0
 10
10501.81945980504
 20
-1326.010037383398
 30
0.0
  0
VERTEX
  5
986
  8
PLANTABAIXA
 62
     0
 10
10500.96738187221
 20
-1321.566304994747
 30
0.0
  0
VERTEX
  5
987
  8
PLANTABAIXA
 62
     0
 10
10500.11530393938
 20
-1317.122572606096
 30
0.0
  0
VERTEX
  5
988
  8
PLANTABAIXA
 62
     0
 10
10499.26322600655
 20
-1312.678840217446
 30
0.0
  0
VERTEX
  5
989
  8
PLANTABAIXA
 62
     0
 10
10498.41114807372
 20
-1308.235107828795
 30
0.0
  0
VERTEX
  5
98A
  8
PLANTABAIXA
 62
     0
 10
10497.5590701409
 20
-1303.791375440145
 30
0.0
  0
VERTEX
  5
98B
  8
PLANTABAIXA
 62
     0
 10
10496.70699220807
 20
-1299.347643051494
 30
0.0
  0
SEQEND
  5
A92
  8
PLANTABAIXA
 62
     0
  0
POLYLINE
  5
504
  8
PLANTABAIXA
 62
     0
 66
     1
 10
0.0
 20
0.0
 30
0.0
  0
VERTEX
  5
98C
  8
PLANTABAIXA
 62
     0
 10
10504.37569360352
 20
-1339.341234549349
 30
0.0
  0
VERTEX
  5
98D
  8
PLANTABAIXA
 62
     0
 10
10503.52361567069
 20
-1343.756275382921
 30
0.0
  0
VERTEX
  5
98E
  8
PLANTABAIXA
 62
     0
 10
10502.67153773786
 20
-1348.171316216492
 30
0.0
  0
VERTEX
  5
98F
  8
PLANTABAIXA
 62
     0
 10
10501.81945980504
 20
-1352.586357050064
 30
0.0
  0
VERTEX
  5
990
  8
PLANTABAIXA
 62
     0
 10
10500.96738187221
 20
-1357.001397883636
 30
0.0
  0
VERTEX
  5
991
  8
PLANTABAIXA
 62
     0
 10
10500.11530393938
 20
-1361.416438717207
 30
0.0
  0
VERTEX
  5
992
  8
PLANTABAIXA
 62
     0
 10
10499.26322600655
 20
-1365.831479550779
 30
0.0
  0
VERTEX
  5
993
  8
PLANTABAIXA
 62
     0
 10
10498.41114807372
 20
-1370.246520384351
 30
0.0
  0
VERTEX
  5
994
  8
PLANTABAIXA
 62
     0
 10
10497.5590701409
 20
-1374.661561217922
 30
0.0
  0
VERTEX
  5
995
  8
PLANTABAIXA
 62
     0
 10
10496.70699220807
 20
-1379.076602051494
 30
0.0
  0
SEQEND
  5
A93
  8
PLANTABAIXA
 62
     0
  0
LINE
  5
510
  8
PLANTABAIXA
 62
     0
 10
10496.70699220807
 20
-1379.076602051494
 30
-1950.0
 11
10496.70699220807
 21
-1299.347643051494
 31
-1950.0
  0
POLYLINE
  5
511
  8
PLANTABAIXA
 62
     0
 66
     1
 10
0.0
 20
0.0
 30
0.0
  0
VERTEX
  5
996
  8
PLANTABAIXA
 62
     0
 10
10496.70699220807
 20
-1299.347643051494
 30
0.0
  0
VERTEX
  5
997
  8
PLANTABAIXA
 62
     0
 10
10497.5590701409
 20
-1303.791375440145
 30
0.0
  0
VERTEX
  5
998
  8
PLANTABAIXA
 62
     0
 10
10498.41114807372
 20
-1308.235107828795
 30
0.0
  0
VERTEX
  5
999
  8
PLANTABAIXA
 62
     0
 10
10499.26322600655
 20
-1312.678840217446
 30
0.0
  0
VERTEX
  5
99A
  8
PLANTABAIXA
 62
     0
 10
10500.11530393938
 20
-1317.122572606096
 30
0.0
  0
VERTEX
  5
99B
  8
PLANTABAIXA
 62
     0
 10
10500.96738187221
 20
-1321.566304994747
 30
0.0
  0
VERTEX
  5
99C
  8
PLANTABAIXA
 62
     0
 10
10501.81945980504
 20
-1326.010037383398
 30
0.0
  0
VERTEX
  5
99D
  8
PLANTABAIXA
 62
     0
 10
10502.67153773786
 20
-1330.453769772048
 30
0.0
  0
VERTEX
  5
99E
  8
PLANTABAIXA
 62
     0
 10
10503.52361567069
 20
-1334.897502160699
 30
0.0
  0
VERTEX
  5
99F
  8
PLANTABAIXA
 62
     0
 10
10504.37569360352
 20
-1339.341234549349
 30
0.0
  0
SEQEND
  5
A94
  8
PLANTABAIXA
 62
     0
  0
POLYLINE
  5
51D
  8
PLANTABAIXA
 62
     0
 66
     1
 10
0.0
 20
0.0
 30
0.0
  0
VERTEX
  5
9A0
  8
PLANTABAIXA
 62
     0
 10
10504.37569360352
 20
-1339.341234549349
 30
0.0
  0
VERTEX
  5
9A1
  8
PLANTABAIXA
 62
     0
 10
10503.52361567069
 20
-1343.756275382921
 30
0.0
  0
VERTEX
  5
9A2
  8
PLANTABAIXA
 62
     0
 10
10502.67153773786
 20
-1348.171316216492
 30
0.0
  0
VERTEX
  5
9A3
  8
PLANTABAIXA
 62
     0
 10
10501.81945980504
 20
-1352.586357050064
 30
0.0
  0
VERTEX
  5
9A4
  8
PLANTABAIXA
 62
     0
 10
10500.96738187221
 20
-1357.001397883636
 30
0.0
  0
VERTEX
  5
9A5
  8
PLANTABAIXA
 62
     0
 10
10500.11530393938
 20
-1361.416438717207
 30
0.0
  0
VERTEX
  5
9A6
  8
PLANTABAIXA
 62
     0
 10
10499.26322600655
 20
-1365.831479550779
 30
0.0
  0
VERTEX
  5
9A7
  8
PLANTABAIXA
 62
     0
 10
10498.41114807372
 20
-1370.246520384351
 30
0.0
  0
VERTEX
  5
9A8
  8
PLANTABAIXA
 62
     0
 10
10497.5590701409
 20
-1374.661561217922
 30
0.0
  0
VERTEX
  5
9A9
  8
PLANTABAIXA
 62
     0
 10
10496.70699220807
 20
-1379.076602051494
 30
0.0
  0
SEQEND
  5
A95
  8
PLANTABAIXA
 62
     0
  0
POLYLINE
  5
529
  8
PLANTABAIXA
 62
     0
 66
     1
 10
0.0
 20
0.0
 30
0.0
  0
VERTEX
  5
9AA
  8
PLANTABAIXA
 62
     0
 10
10504.37569360352
 20
772.211700214131
 30
0.0
  0
VERTEX
  5
9AB
  8
PLANTABAIXA
 62
     0
 10
10503.52361567069
 20
776.6554326027815
 30
0.0
  0
VERTEX
  5
9AC
  8
PLANTABAIXA
 62
     0
 10
10502.67153773786
 20
781.0991649914322
 30
0.0
  0
VERTEX
  5
9AD
  8
PLANTABAIXA
 62
     0
 10
10501.81945980504
 20
785.5428973800826
 30
0.0
  0
VERTEX
  5
9AE
  8
PLANTABAIXA
 62
     0
 10
10500.96738187221
 20
789.9866297687331
 30
0.0
  0
VERTEX
  5
9AF
  8
PLANTABAIXA
 62
     0
 10
10500.11530393938
 20
794.4303621573838
 30
0.0
  0
VERTEX
  5
9B0
  8
PLANTABAIXA
 62
     0
 10
10499.26322600655
 20
798.8740945460343
 30
0.0
  0
VERTEX
  5
9B1
  8
PLANTABAIXA
 62
     0
 10
10498.41114807372
 20
803.3178269346847
 30
0.0
  0
VERTEX
  5
9B2
  8
PLANTABAIXA
 62
     0
 10
10497.5590701409
 20
807.7615593233354
 30
0.0
  0
VERTEX
  5
9B3
  8
PLANTABAIXA
 62
     0
 10
10496.70699220807
 20
812.2052917119859
 30
0.0
  0
SEQEND
  5
A96
  8
PLANTABAIXA
 62
     0
  0
POLYLINE
  5
535
  8
PLANTABAIXA
 62
     0
 66
     1
 10
0.0
 20
0.0
 30
0.0
  0
VERTEX
  5
9B4
  8
PLANTABAIXA
 62
     0
 10
10504.37569360352
 20
772.211700214131
 30
0.0
  0
VERTEX
  5
9B5
  8
PLANTABAIXA
 62
     0
 10
10503.52361567069
 20
767.7966593805593
 30
0.0
  0
VERTEX
  5
9B6
  8
PLANTABAIXA
 62
     0
 10
10502.67153773786
 20
763.3816185469877
 30
0.0
  0
VERTEX
  5
9B7
  8
PLANTABAIXA
 62
     0
 10
10501.81945980504
 20
758.9665777134161
 30
0.0
  0
VERTEX
  5
9B8
  8
PLANTABAIXA
 62
     0
 10
10500.96738187221
 20
754.5515368798444
 30
0.0
  0
VERTEX
  5
9B9
  8
PLANTABAIXA
 62
     0
 10
10500.11530393938
 20
750.1364960462727
 30
0.0
  0
VERTEX
  5
9BA
  8
PLANTABAIXA
 62
     0
 10
10499.26322600655
 20
745.721455212701
 30
0.0
  0
VERTEX
  5
9BB
  8
PLANTABAIXA
 62
     0
 10
10498.41114807372
 20
741.3064143791294
 30
0.0
  0
VERTEX
  5
9BC
  8
PLANTABAIXA
 62
     0
 10
10497.5590701409
 20
736.8913735455577
 30
0.0
  0
VERTEX
  5
9BD
  8
PLANTABAIXA
 62
     0
 10
10496.70699220807
 20
732.4763327119861
 30
0.0
  0
SEQEND
  5
A97
  8
PLANTABAIXA
 62
     0
  0
LINE
  5
541
  8
PLANTABAIXA
 62
     0
 10
10496.70699220807
 20
732.4763327119861
 30
-1950.0
 11
10496.70699220807
 21
812.2052917119861
 31
-1950.0
  0
POLYLINE
  5
542
  8
PLANTABAIXA
 62
     0
 66
     1
 10
0.0
 20
0.0
 30
0.0
  0
VERTEX
  5
9BE
  8
PLANTABAIXA
 62
     0
 10
10496.70699220807
 20
812.2052917119859
 30
0.0
  0
VERTEX
  5
9BF
  8
PLANTABAIXA
 62
     0
 10
10497.5590701409
 20
807.7615593233354
 30
0.0
  0
VERTEX
  5
9C0
  8
PLANTABAIXA
 62
     0
 10
10498.41114807372
 20
803.3178269346847
 30
0.0
  0
VERTEX
  5
9C1
  8
PLANTABAIXA
 62
     0
 10
10499.26322600655
 20
798.8740945460343
 30
0.0
  0
VERTEX
  5
9C2
  8
PLANTABAIXA
 62
     0
 10
10500.11530393938
 20
794.4303621573838
 30
0.0
  0
VERTEX
  5
9C3
  8
PLANTABAIXA
 62
     0
 10
10500.96738187221
 20
789.9866297687331
 30
0.0
  0
VERTEX
  5
9C4
  8
PLANTABAIXA
 62
     0
 10
10501.81945980504
 20
785.5428973800826
 30
0.0
  0
VERTEX
  5
9C5
  8
PLANTABAIXA
 62
     0
 10
10502.67153773786
 20
781.0991649914322
 30
0.0
  0
VERTEX
  5
9C6
  8
PLANTABAIXA
 62
     0
 10
10503.52361567069
 20
776.6554326027815
 30
0.0
  0
VERTEX
  5
9C7
  8
PLANTABAIXA
 62
     0
 10
10504.37569360352
 20
772.211700214131
 30
0.0
  0
SEQEND
  5
A98
  8
PLANTABAIXA
 62
     0
  0
POLYLINE
  5
54E
  8
PLANTABAIXA
 62
     0
 66
     1
 10
0.0
 20
0.0
 30
0.0
  0
VERTEX
  5
9C8
  8
PLANTABAIXA
 62
     0
 10
10504.37569360352
 20
772.211700214131
 30
0.0
  0
VERTEX
  5
9C9
  8
PLANTABAIXA
 62
     0
 10
10503.52361567069
 20
767.7966593805593
 30
0.0
  0
VERTEX
  5
9CA
  8
PLANTABAIXA
 62
     0
 10
10502.67153773786
 20
763.3816185469877
 30
0.0
  0
VERTEX
  5
9CB
  8
PLANTABAIXA
 62
     0
 10
10501.81945980504
 20
758.9665777134161
 30
0.0
  0
VERTEX
  5
9CC
  8
PLANTABAIXA
 62
     0
 10
10500.96738187221
 20
754.5515368798444
 30
0.0
  0
VERTEX
  5
9CD
  8
PLANTABAIXA
 62
     0
 10
10500.11530393938
 20
750.1364960462727
 30
0.0
  0
VERTEX
  5
9CE
  8
PLANTABAIXA
 62
     0
 10
10499.26322600655
 20
745.721455212701
 30
0.0
  0
VERTEX
  5
9CF
  8
PLANTABAIXA
 62
     0
 10
10498.41114807372
 20
741.3064143791294
 30
0.0
  0
VERTEX
  5
9D0
  8
PLANTABAIXA
 62
     0
 10
10497.5590701409
 20
736.8913735455577
 30
0.0
  0
VERTEX
  5
9D1
  8
PLANTABAIXA
 62
     0
 10
10496.70699220807
 20
732.4763327119861
 30
0.0
  0
SEQEND
  5
A99
  8
PLANTABAIXA
 62
     0
  0
POLYLINE
  5
55A
  8
PLANTABAIXA
 62
     0
 66
     1
 10
0.0
 20
0.0
 30
0.0
  0
VERTEX
  5
9D2
  8
PLANTABAIXA
 62
     0
 10
11726.3626677873
 20
3500.931065701498
 30
0.0
  0
VERTEX
  5
9D3
  8
PLANTABAIXA
 62
     0
 10
11730.80640017595
 20
3501.783143634325
 30
0.0
  0
VERTEX
  5
9D4
  8
PLANTABAIXA
 62
     0
 10
11735.2501325646
 20
3502.635221567153
 30
0.0
  0
VERTEX
  5
9D5
  8
PLANTABAIXA
 62
     0
 10
11739.69386495325
 20
3503.487299499981
 30
0.0
  0
VERTEX
  5
9D6
  8
PLANTABAIXA
 62
     0
 10
11744.1375973419
 20
3504.339377432808
 30
0.0
  0
VERTEX
  5
9D7
  8
PLANTABAIXA
 62
     0
 10
11748.58132973055
 20
3505.191455365636
 30
0.0
  0
VERTEX
  5
9D8
  8
PLANTABAIXA
 62
     0
 10
11753.0250621192
 20
3506.043533298463
 30
0.0
  0
VERTEX
  5
9D9
  8
PLANTABAIXA
 62
     0
 10
11757.46879450785
 20
3506.895611231291
 30
0.0
  0
VERTEX
  5
9DA
  8
PLANTABAIXA
 62
     0
 10
11761.91252689651
 20
3507.747689164119
 30
0.0
  0
VERTEX
  5
9DB
  8
PLANTABAIXA
 62
     0
 10
11766.35625928516
 20
3508.599767096946
 30
0.0
  0
SEQEND
  5
A9A
  8
PLANTABAIXA
 62
     0
  0
POLYLINE
  5
566
  8
PLANTABAIXA
 62
     0
 66
     1
 10
0.0
 20
0.0
 30
0.0
  0
VERTEX
  5
9DC
  8
PLANTABAIXA
 62
     0
 10
11726.3626677873
 20
3500.931065701498
 30
0.0
  0
VERTEX
  5
9DD
  8
PLANTABAIXA
 62
     0
 10
11721.94762695373
 20
3501.783143634325
 30
0.0
  0
VERTEX
  5
9DE
  8
PLANTABAIXA
 62
     0
 10
11717.53258612016
 20
3502.635221567153
 30
0.0
  0
VERTEX
  5
9DF
  8
PLANTABAIXA
 62
     0
 10
11713.11754528659
 20
3503.487299499981
 30
0.0
  0
VERTEX
  5
9E0
  8
PLANTABAIXA
 62
     0
 10
11708.70250445301
 20
3504.339377432808
 30
0.0
  0
VERTEX
  5
9E1
  8
PLANTABAIXA
 62
     0
 10
11704.28746361944
 20
3505.191455365636
 30
0.0
  0
VERTEX
  5
9E2
  8
PLANTABAIXA
 62
     0
 10
11699.87242278587
 20
3506.043533298463
 30
0.0
  0
VERTEX
  5
9E3
  8
PLANTABAIXA
 62
     0
 10
11695.4573819523
 20
3506.895611231291
 30
0.0
  0
VERTEX
  5
9E4
  8
PLANTABAIXA
 62
     0
 10
11691.04234111873
 20
3507.747689164119
 30
0.0
  0
VERTEX
  5
9E5
  8
PLANTABAIXA
 62
     0
 10
11686.62730028516
 20
3508.599767096946
 30
0.0
  0
SEQEND
  5
A9B
  8
PLANTABAIXA
 62
     0
  0
POLYLINE
  5
572
  8
PLANTABAIXA
 62
     0
 66
     1
 10
0.0
 20
0.0
 30
0.0
  0
VERTEX
  5
9E6
  8
PLANTABAIXA
 62
     0
 10
11766.35625928516
 20
3508.599767096946
 30
0.0
  0
VERTEX
  5
9E7
  8
PLANTABAIXA
 62
     0
 10
11761.91252689651
 20
3507.747689164119
 30
0.0
  0
VERTEX
  5
9E8
  8
PLANTABAIXA
 62
     0
 10
11757.46879450785
 20
3506.895611231291
 30
0.0
  0
VERTEX
  5
9E9
  8
PLANTABAIXA
 62
     0
 10
11753.0250621192
 20
3506.043533298463
 30
0.0
  0
VERTEX
  5
9EA
  8
PLANTABAIXA
 62
     0
 10
11748.58132973055
 20
3505.191455365636
 30
0.0
  0
VERTEX
  5
9EB
  8
PLANTABAIXA
 62
     0
 10
11744.1375973419
 20
3504.339377432808
 30
0.0
  0
VERTEX
  5
9EC
  8
PLANTABAIXA
 62
     0
 10
11739.69386495325
 20
3503.487299499981
 30
0.0
  0
VERTEX
  5
9ED
  8
PLANTABAIXA
 62
     0
 10
11735.2501325646
 20
3502.635221567153
 30
0.0
  0
VERTEX
  5
9EE
  8
PLANTABAIXA
 62
     0
 10
11730.80640017595
 20
3501.783143634325
 30
0.0
  0
VERTEX
  5
9EF
  8
PLANTABAIXA
 62
     0
 10
11726.3626677873
 20
3500.931065701498
 30
0.0
  0
SEQEND
  5
A9C
  8
PLANTABAIXA
 62
     0
  0
POLYLINE
  5
57E
  8
PLANTABAIXA
 62
     0
 66
     1
 10
0.0
 20
0.0
 30
0.0
  0
VERTEX
  5
9F0
  8
PLANTABAIXA
 62
     0
 10
11726.3626677873
 20
3500.931065701498
 30
0.0
  0
VERTEX
  5
9F1
  8
PLANTABAIXA
 62
     0
 10
11721.94762695373
 20
3501.783143634325
 30
0.0
  0
VERTEX
  5
9F2
  8
PLANTABAIXA
 62
     0
 10
11717.53258612016
 20
3502.635221567153
 30
0.0
  0
VERTEX
  5
9F3
  8
PLANTABAIXA
 62
     0
 10
11713.11754528659
 20
3503.487299499981
 30
0.0
  0
VERTEX
  5
9F4
  8
PLANTABAIXA
 62
     0
 10
11708.70250445301
 20
3504.339377432808
 30
0.0
  0
VERTEX
  5
9F5
  8
PLANTABAIXA
 62
     0
 10
11704.28746361944
 20
3505.191455365636
 30
0.0
  0
VERTEX
  5
9F6
  8
PLANTABAIXA
 62
     0
 10
11699.87242278587
 20
3506.043533298463
 30
0.0
  0
VERTEX
  5
9F7
  8
PLANTABAIXA
 62
     0
 10
11695.4573819523
 20
3506.895611231291
 30
0.0
  0
VERTEX
  5
9F8
  8
PLANTABAIXA
 62
     0
 10
11691.04234111873
 20
3507.747689164119
 30
0.0
  0
VERTEX
  5
9F9
  8
PLANTABAIXA
 62
     0
 10
11686.62730028516
 20
3508.599767096946
 30
0.0
  0
SEQEND
  5
A9D
  8
PLANTABAIXA
 62
     0
  0
POLYLINE
  5
58A
  8
PLANTABAIXA
 62
     0
 66
     1
 10
0.0
 20
0.0
 30
0.0
  0
VERTEX
  5
9FA
  8
PLANTABAIXA
 62
     0
 10
11726.3626677873
 20
-481.7150524625652
 30
0.0
  0
VERTEX
  5
9FB
  8
PLANTABAIXA
 62
     0
 10
11730.80640017595
 20
-480.8629745297375
 30
0.0
  0
VERTEX
  5
9FC
  8
PLANTABAIXA
 62
     0
 10
11735.2501325646
 20
-480.0108965969099
 30
0.0
  0
VERTEX
  5
9FD
  8
PLANTABAIXA
 62
     0
 10
11739.69386495325
 20
-479.1588186640822
 30
0.0
  0
VERTEX
  5
9FE
  8
PLANTABAIXA
 62
     0
 10
11744.1375973419
 20
-478.3067407312545
 30
0.0
  0
VERTEX
  5
9FF
  8
PLANTABAIXA
 62
     0
 10
11748.58132973055
 20
-477.454662798427
 30
0.0
  0
VERTEX
  5
A00
  8
PLANTABAIXA
 62
     0
 10
11753.0250621192
 20
-476.6025848655993
 30
0.0
  0
VERTEX
  5
A01
  8
PLANTABAIXA
 62
     0
 10
11757.46879450785
 20
-475.7505069327716
 30
0.0
  0
VERTEX
  5
A02
  8
PLANTABAIXA
 62
     0
 10
11761.91252689651
 20
-474.898428999944
 30
0.0
  0
VERTEX
  5
A03
  8
PLANTABAIXA
 62
     0
 10
11766.35625928516
 20
-474.0463510671163
 30
0.0
  0
SEQEND
  5
A9E
  8
PLANTABAIXA
 62
     0
  0
POLYLINE
  5
596
  8
PLANTABAIXA
 62
     0
 66
     1
 10
0.0
 20
0.0
 30
0.0
  0
VERTEX
  5
A04
  8
PLANTABAIXA
 62
     0
 10
11726.3626677873
 20
-481.7150524625652
 30
0.0
  0
VERTEX
  5
A05
  8
PLANTABAIXA
 62
     0
 10
11721.94762695373
 20
-480.8629745297375
 30
0.0
  0
VERTEX
  5
A06
  8
PLANTABAIXA
 62
     0
 10
11717.53258612016
 20
-480.0108965969099
 30
0.0
  0
VERTEX
  5
A07
  8
PLANTABAIXA
 62
     0
 10
11713.11754528659
 20
-479.1588186640822
 30
0.0
  0
VERTEX
  5
A08
  8
PLANTABAIXA
 62
     0
 10
11708.70250445301
 20
-478.3067407312545
 30
0.0
  0
VERTEX
  5
A09
  8
PLANTABAIXA
 62
     0
 10
11704.28746361944
 20
-477.454662798427
 30
0.0
  0
VERTEX
  5
A0A
  8
PLANTABAIXA
 62
     0
 10
11699.87242278587
 20
-476.6025848655993
 30
0.0
  0
VERTEX
  5
A0B
  8
PLANTABAIXA
 62
     0
 10
11695.4573819523
 20
-475.7505069327716
 30
0.0
  0
VERTEX
  5
A0C
  8
PLANTABAIXA
 62
     0
 10
11691.04234111873
 20
-474.898428999944
 30
0.0
  0
VERTEX
  5
A0D
  8
PLANTABAIXA
 62
     0
 10
11686.62730028516
 20
-474.0463510671163
 30
0.0
  0
SEQEND
  5
A9F
  8
PLANTABAIXA
 62
     0
  0
POLYLINE
  5
5A2
  8
PLANTABAIXA
 62
     0
 66
     1
 10
0.0
 20
0.0
 30
0.0
  0
VERTEX
  5
A0E
  8
PLANTABAIXA
 62
     0
 10
11766.35625928516
 20
-474.0463510671163
 30
0.0
  0
VERTEX
  5
A0F
  8
PLANTABAIXA
 62
     0
 10
11761.91252689651
 20
-474.898428999944
 30
0.0
  0
VERTEX
  5
A10
  8
PLANTABAIXA
 62
     0
 10
11757.46879450785
 20
-475.7505069327716
 30
0.0
  0
VERTEX
  5
A11
  8
PLANTABAIXA
 62
     0
 10
11753.0250621192
 20
-476.6025848655993
 30
0.0
  0
VERTEX
  5
A12
  8
PLANTABAIXA
 62
     0
 10
11748.58132973055
 20
-477.454662798427
 30
0.0
  0
VERTEX
  5
A13
  8
PLANTABAIXA
 62
     0
 10
11744.1375973419
 20
-478.3067407312545
 30
0.0
  0
VERTEX
  5
A14
  8
PLANTABAIXA
 62
     0
 10
11739.69386495325
 20
-479.1588186640822
 30
0.0
  0
VERTEX
  5
A15
  8
PLANTABAIXA
 62
     0
 10
11735.2501325646
 20
-480.0108965969099
 30
0.0
  0
VERTEX
  5
A16
  8
PLANTABAIXA
 62
     0
 10
11730.80640017595
 20
-480.8629745297375
 30
0.0
  0
VERTEX
  5
A17
  8
PLANTABAIXA
 62
     0
 10
11726.3626677873
 20
-481.7150524625652
 30
0.0
  0
SEQEND
  5
AA0
  8
PLANTABAIXA
 62
     0
  0
POLYLINE
  5
5AE
  8
PLANTABAIXA
 62
     0
 66
     1
 10
0.0
 20
0.0
 30
0.0
  0
VERTEX
  5
A18
  8
PLANTABAIXA
 62
     0
 10
11726.3626677873
 20
-481.7150524625652
 30
0.0
  0
VERTEX
  5
A19
  8
PLANTABAIXA
 62
     0
 10
11721.94762695373
 20
-480.8629745297375
 30
0.0
  0
VERTEX
  5
A1A
  8
PLANTABAIXA
 62
     0
 10
11717.53258612016
 20
-480.0108965969099
 30
0.0
  0
VERTEX
  5
A1B
  8
PLANTABAIXA
 62
     0
 10
11713.11754528659
 20
-479.1588186640822
 30
0.0
  0
VERTEX
  5
A1C
  8
PLANTABAIXA
 62
     0
 10
11708.70250445301
 20
-478.3067407312545
 30
0.0
  0
VERTEX
  5
A1D
  8
PLANTABAIXA
 62
     0
 10
11704.28746361944
 20
-477.454662798427
 30
0.0
  0
VERTEX
  5
A1E
  8
PLANTABAIXA
 62
     0
 10
11699.87242278587
 20
-476.6025848655993
 30
0.0
  0
VERTEX
  5
A1F
  8
PLANTABAIXA
 62
     0
 10
11695.4573819523
 20
-475.7505069327716
 30
0.0
  0
VERTEX
  5
A20
  8
PLANTABAIXA
 62
     0
 10
11691.04234111873
 20
-474.898428999944
 30
0.0
  0
VERTEX
  5
A21
  8
PLANTABAIXA
 62
     0
 10
11686.62730028516
 20
-474.0463510671163
 30
0.0
  0
SEQEND
  5
AA1
  8
PLANTABAIXA
 62
     0
  0
POLYLINE
  5
5BA
  8
PLANTABAIXA
 62
     0
 66
     1
 10
0.0
 20
0.0
 30
0.0
  0
VERTEX
  5
A22
  8
PLANTABAIXA
 62
     0
 10
10504.37569360352
 20
2834.714551583465
 30
0.0
  0
VERTEX
  5
A23
  8
PLANTABAIXA
 62
     0
 10
10503.52361567069
 20
2839.158283972115
 30
0.0
  0
VERTEX
  5
A24
  8
PLANTABAIXA
 62
     0
 10
10502.67153773786
 20
2843.602016360766
 30
0.0
  0
VERTEX
  5
A25
  8
PLANTABAIXA
 62
     0
 10
10501.81945980504
 20
2848.045748749417
 30
0.0
  0
VERTEX
  5
A26
  8
PLANTABAIXA
 62
     0
 10
10500.96738187221
 20
2852.489481138067
 30
0.0
  0
VERTEX
  5
A27
  8
PLANTABAIXA
 62
     0
 10
10500.11530393938
 20
2856.933213526718
 30
0.0
  0
VERTEX
  5
A28
  8
PLANTABAIXA
 62
     0
 10
10499.26322600655
 20
2861.376945915368
 30
0.0
  0
VERTEX
  5
A29
  8
PLANTABAIXA
 62
     0
 10
10498.41114807372
 20
2865.820678304019
 30
0.0
  0
VERTEX
  5
A2A
  8
PLANTABAIXA
 62
     0
 10
10497.5590701409
 20
2870.26441069267
 30
0.0
  0
VERTEX
  5
A2B
  8
PLANTABAIXA
 62
     0
 10
10496.70699220807
 20
2874.70814308132
 30
0.0
  0
SEQEND
  5
AA2
  8
PLANTABAIXA
 62
     0
  0
POLYLINE
  5
5C6
  8
PLANTABAIXA
 62
     0
 66
     1
 10
0.0
 20
0.0
 30
0.0
  0
VERTEX
  5
A2C
  8
PLANTABAIXA
 62
     0
 10
10504.37569360352
 20
2834.714551583465
 30
0.0
  0
VERTEX
  5
A2D
  8
PLANTABAIXA
 62
     0
 10
10503.52361567069
 20
2830.299510749893
 30
0.0
  0
VERTEX
  5
A2E
  8
PLANTABAIXA
 62
     0
 10
10502.67153773786
 20
2825.884469916321
 30
0.0
  0
VERTEX
  5
A2F
  8
PLANTABAIXA
 62
     0
 10
10501.81945980504
 20
2821.46942908275
 30
0.0
  0
VERTEX
  5
A30
  8
PLANTABAIXA
 62
     0
 10
10500.96738187221
 20
2817.054388249178
 30
0.0
  0
VERTEX
  5
A31
  8
PLANTABAIXA
 62
     0
 10
10500.11530393938
 20
2812.639347415607
 30
0.0
  0
VERTEX
  5
A32
  8
PLANTABAIXA
 62
     0
 10
10499.26322600655
 20
2808.224306582035
 30
0.0
  0
VERTEX
  5
A33
  8
PLANTABAIXA
 62
     0
 10
10498.41114807372
 20
2803.809265748464
 30
0.0
  0
VERTEX
  5
A34
  8
PLANTABAIXA
 62
     0
 10
10497.5590701409
 20
2799.394224914892
 30
0.0
  0
VERTEX
  5
A35
  8
PLANTABAIXA
 62
     0
 10
10496.70699220807
 20
2794.97918408132
 30
0.0
  0
SEQEND
  5
AA3
  8
PLANTABAIXA
 62
     0
  0
LINE
  5
5D2
  8
PLANTABAIXA
 62
     0
 10
10496.70699220807
 20
2794.97918408132
 30
-1950.0
 11
10496.70699220807
 21
2874.70814308132
 31
-1950.0
  0
POLYLINE
  5
5D3
  8
PLANTABAIXA
 62
     0
 66
     1
 10
0.0
 20
0.0
 30
0.0
  0
VERTEX
  5
A36
  8
PLANTABAIXA
 62
     0
 10
10496.70699220807
 20
2874.70814308132
 30
0.0
  0
VERTEX
  5
A37
  8
PLANTABAIXA
 62
     0
 10
10497.5590701409
 20
2870.26441069267
 30
0.0
  0
VERTEX
  5
A38
  8
PLANTABAIXA
 62
     0
 10
10498.41114807372
 20
2865.820678304019
 30
0.0
  0
VERTEX
  5
A39
  8
PLANTABAIXA
 62
     0
 10
10499.26322600655
 20
2861.376945915368
 30
0.0
  0
VERTEX
  5
A3A
  8
PLANTABAIXA
 62
     0
 10
10500.11530393938
 20
2856.933213526718
 30
0.0
  0
VERTEX
  5
A3B
  8
PLANTABAIXA
 62
     0
 10
10500.96738187221
 20
2852.489481138067
 30
0.0
  0
VERTEX
  5
A3C
  8
PLANTABAIXA
 62
     0
 10
10501.81945980504
 20
2848.045748749417
 30
0.0
  0
VERTEX
  5
A3D
  8
PLANTABAIXA
 62
     0
 10
10502.67153773786
 20
2843.602016360766
 30
0.0
  0
VERTEX
  5
A3E
  8
PLANTABAIXA
 62
     0
 10
10503.52361567069
 20
2839.158283972115
 30
0.0
  0
VERTEX
  5
A3F
  8
PLANTABAIXA
 62
     0
 10
10504.37569360352
 20
2834.714551583465
 30
0.0
  0
SEQEND
  5
AA4
  8
PLANTABAIXA
 62
     0
  0
POLYLINE
  5
5DF
  8
PLANTABAIXA
 62
     0
 66
     1
 10
0.0
 20
0.0
 30
0.0
  0
VERTEX
  5
A40
  8
PLANTABAIXA
 62
     0
 10
10504.37569360352
 20
2834.714551583465
 30
0.0
  0
VERTEX
  5
A41
  8
PLANTABAIXA
 62
     0
 10
10503.52361567069
 20
2830.299510749893
 30
0.0
  0
VERTEX
  5
A42
  8
PLANTABAIXA
 62
     0
 10
10502.67153773786
 20
2825.884469916321
 30
0.0
  0
VERTEX
  5
A43
  8
PLANTABAIXA
 62
     0
 10
10501.81945980504
 20
2821.46942908275
 30
0.0
  0
VERTEX
  5
A44
  8
PLANTABAIXA
 62
     0
 10
10500.96738187221
 20
2817.054388249178
 30
0.0
  0
VERTEX
  5
A45
  8
PLANTABAIXA
 62
     0
 10
10500.11530393938
 20
2812.639347415607
 30
0.0
  0
VERTEX
  5
A46
  8
PLANTABAIXA
 62
     0
 10
10499.26322600655
 20
2808.224306582035
 30
0.0
  0
VERTEX
  5
A47
  8
PLANTABAIXA
 62
     0
 10
10498.41114807372
 20
2803.809265748464
 30
0.0
  0
VERTEX
  5
A48
  8
PLANTABAIXA
 62
     0
 10
10497.5590701409
 20
2799.394224914892
 30
0.0
  0
VERTEX
  5
A49
  8
PLANTABAIXA
 62
     0
 10
10496.70699220807
 20
2794.97918408132
 30
0.0
  0
SEQEND
  5
AA5
  8
PLANTABAIXA
 62
     0
  0
ARC
  5
5EB
  8
PLANTABAIXA
 62
     0
 10
11593.17256591797
 20
727.4195913156946
 30
-1950.0
 40
510.0
 50
281.3077294341376
 51
0.0
  0
LINE
  5
5EC
  8
PLANTABAIXA
 62
     0
 10
12103.17256591797
 20
727.4195913156946
 30
-1950.0
 11
11693.17256591797
 21
727.4195913156944
 31
-1950.0
  0
ARC
  5
5ED
  8
PLANTABAIXA
 62
     0
 10
10436.76936767578
 20
588.7898610910879
 30
-1950.0
 40
599.9999999999997
 50
279.5940682268606
 51
0.0
  0
LINE
  5
5EE
  8
PLANTABAIXA
 62
     0
 10
11036.76936767578
 20
588.7898610910888
 30
-1950.0
 11
10536.76936767578
 21
588.7898610910887
 31
-1950.0
  0
ARC
  5
5EF
  8
PLANTABAIXA
 62
     0
 10
10634.11134765625
 20
-444.0463815846949
 30
-1950.0
 40
610.0
 50
270.0
 51
350.5646612766968
  0
LINE
  5
5F0
  8
PLANTABAIXA
 62
     0
 10
10634.11134765625
 20
-1054.046381584695
 30
-1950.0
 11
10634.11134765625
 21
-544.0463815846954
 31
-1950.0
  0
ARC
  5
5F1
  8
PLANTABAIXA
 62
     0
 10
7497.587971191408
 20
3373.864415534448
 30
-1950.0
 40
709.9999999999999
 50
278.0967497697956
 51
0.0
  0
LINE
  5
5F2
  8
PLANTABAIXA
 62
     0
 10
8207.587971191408
 20
3373.864415534448
 30
-1950.0
 11
7597.587971191409
 21
3373.864415534448
 31
-1950.0
  0
ARC
  5
5F3
  8
PLANTABAIXA
 62
     0
 10
10627.55986450195
 20
959.2213491281964
 30
-1950.0
 40
580.0000000000001
 50
9.928191842286513
 51
90.0
  0
LINE
  5
5F4
  8
PLANTABAIXA
 62
     0
 10
10627.55986450195
 20
1539.221349128196
 30
-1950.0
 11
10627.55986450195
 21
1059.221349128196
 31
-1950.0
  0
ARC
  5
5F5
  8
PLANTABAIXA
 62
     0
 10
9520.514301757816
 20
911.403966315695
 30
-1950.0
 40
589.9999999999983
 50
269.9999999999998
 51
350.2417434046182
  0
LINE
  5
5F6
  8
PLANTABAIXA
 62
     0
 10
9520.514301757812
 20
321.4039663156964
 30
-1950.0
 11
9520.514301757812
 21
811.4039663156952
 31
-1950.0
  0
LINE
  5
5F7
  8
PLANTABAIXA
 62
     0
 10
7555.26545897002
 20
-1489.247290584706
 30
-1950.0
 11
7555.143927251105
 21
-1483.538841434118
 31
-1950.0
  0
LINE
  5
5F8
  8
PLANTABAIXA
 62
     0
 10
7554.997672980227
 20
-1476.669152797865
 30
-1950.0
 11
7554.882329456726
 21
-1471.251368497298
 31
-1950.0
  0
LINE
  5
5F9
  8
PLANTABAIXA
 62
     0
 10
7562.271781024127
 20
-1489.09812741621
 30
-1950.0
 11
7561.888651510833
 21
-1471.102205328802
 31
-1950.0
  0
LINE
  5
5FA
  8
PLANTABAIXA
 62
     0
 10
11847.03727010773
 20
-481.2491896155107
 30
-1950.0
 11
11852.74571925832
 21
-481.127657896597
 31
-1950.0
  0
LINE
  5
5FB
  8
PLANTABAIXA
 62
     0
 10
11859.61540789458
 20
-480.9814036257182
 30
-1950.0
 11
11865.03319219514
 21
-480.8660601022179
 31
-1950.0
  0
LINE
  5
5FC
  8
PLANTABAIXA
 62
     0
 10
11847.18643327623
 20
-488.2555116696176
 30
-1950.0
 11
11865.18235536364
 21
-487.8723821563248
 31
-1950.0
  0
LINE
  5
5FD
  8
PLANTABAIXA
 62
     0
 10
11659.66056629113
 20
-45.92382647959289
 30
-1950.0
 11
11659.53903457222
 21
-40.21537732900271
 31
-1950.0
  0
LINE
  5
5FE
  8
PLANTABAIXA
 62
     0
 10
11659.39278030134
 20
-33.34568869275449
 30
-1950.0
 11
11659.27743677784
 21
-27.9279043921853
 31
-1950.0
  0
LINE
  5
5FF
  8
PLANTABAIXA
 62
     0
 10
11666.66688834524
 20
-45.77466331109713
 30
-1950.0
 11
11666.28375883195
 21
-27.77874122368954
 31
-1950.0
  0
LINE
  5
600
  8
PLANTABAIXA
 62
     0
 10
10503.21244059917
 20
-235.937521511139
 30
-1950.0
 11
10503.09090888026
 21
-230.2290723605482
 31
-1950.0
  0
LINE
  5
601
  8
PLANTABAIXA
 62
     0
 10
10502.94465460938
 20
-223.3593837243017
 30
-1950.0
 11
10502.82931108588
 21
-217.9415994237315
 31
-1950.0
  0
LINE
  5
602
  8
PLANTABAIXA
 62
     0
 10
10510.21876265328
 20
-235.7883583426433
 30
-1950.0
 11
10509.83563313999
 21
-217.7924362552357
 31
-1950.0
  0
LINE
  5
603
  8
PLANTABAIXA
 62
     0
 10
9032.760010165703
 20
1015.764153496903
 30
-1950.0
 11
9027.05156101512
 21
1015.64262177799
 31
-1950.0
  0
LINE
  5
604
  8
PLANTABAIXA
 62
     0
 10
9020.181872378855
 20
1015.496367507111
 30
-1950.0
 11
9014.764088078295
 21
1015.381023983611
 31
-1950.0
  0
LINE
  5
605
  8
PLANTABAIXA
 62
     0
 10
9032.610846997206
 20
1022.77047555101
 30
-1950.0
 11
9014.614924909798
 21
1022.387346037718
 31
-1950.0
  0
LINE
  5
606
  8
PLANTABAIXA
 62
     0
 10
11427.9814280492
 20
1024.782674696669
 30
-1950.0
 11
11422.27297889861
 21
1024.661142977756
 31
-1950.0
  0
LINE
  5
607
  8
PLANTABAIXA
 62
     0
 10
11415.40329026235
 20
1024.514888706877
 30
-1950.0
 11
11409.98550596179
 21
1024.399545183377
 31
-1950.0
  0
LINE
  5
608
  8
PLANTABAIXA
 62
     0
 10
11427.8322648807
 20
1031.788996750776
 30
-1950.0
 11
11409.83634279329
 21
1031.405867237484
 31
-1950.0
  0
LINE
  5
609
  8
PLANTABAIXA
 62
     0
 10
7561.913269251214
 20
-1471.101681222127
 30
-1950.0
 11
7562.296398764506
 21
-1489.097603309535
 31
-1950.0
  0
LINE
  5
60A
  8
PLANTABAIXA
 62
     0
 10
11865.18287947031
 20
-487.8969998967045
 30
-1950.0
 11
11847.18695738291
 21
-488.2801294099973
 31
-1950.0
  0
LINE
  5
60B
  8
PLANTABAIXA
 62
     0
 10
11666.30837657232
 20
-27.77821711701452
 30
-1950.0
 11
11666.69150608562
 21
-45.77413920442208
 31
-1950.0
  0
LINE
  5
60C
  8
PLANTABAIXA
 62
     0
 10
10509.86025088037
 20
-217.7919121485607
 30
-1950.0
 11
10510.24338039366
 21
-235.7878342359682
 31
-1950.0
  0
LINE
  5
60D
  8
PLANTABAIXA
 62
     0
 10
9014.614400803124
 20
1022.411963778097
 30
-1950.0
 11
9032.61032289053
 21
1022.79509329139
 31
-1950.0
  0
LINE
  5
60E
  8
PLANTABAIXA
 62
     0
 10
11409.83581868662
 20
1031.430484977863
 30
-1950.0
 11
11427.83174077403
 21
1031.813614491156
 31
-1950.0
  0
LINE
  5
60F
  8
PLANTABAIXA
 62
     0
 10
7407.587971191406
 20
2255.641271003196
 30
-1950.0
 11
7407.587971191406
 21
1315.641271003196
 31
-1950.0
  0
LINE
  5
610
  8
PLANTABAIXA
 62
     0
 10
7507.587971191406
 20
2255.641271003196
 30
-1950.0
 11
7407.587971191406
 21
2255.641271003196
 31
-1950.0
  0
LINE
  5
611
  8
PLANTABAIXA
 62
     0
 10
7407.587971191406
 20
1315.641271003196
 30
-1950.0
 11
7507.587971191406
 21
1315.641271003196
 31
-1950.0
  0
LINE
  5
612
  8
PLANTABAIXA
 62
     0
 10
7507.587971191406
 20
2255.641271003196
 30
-1950.0
 11
7507.587971191406
 21
1315.641271003196
 31
-1950.0
  0
LINE
  5
613
  8
PLANTABAIXA
 62
     0
 10
7417.587971191406
 20
2255.641271003196
 30
-1950.0
 11
7417.587971191406
 21
1315.641271003196
 31
-1950.0
  0
LINE
  5
614
  8
PLANTABAIXA
 62
     0
 10
7507.587971191406
 20
2255.641271003196
 30
-1950.0
 11
7407.587971191406
 21
2255.641271003196
 31
-1950.0
  0
LINE
  5
615
  8
PLANTABAIXA
 62
     0
 10
7507.587971191406
 20
2255.641271003196
 30
-1950.0
 11
7507.587971191406
 21
1315.641271003196
 31
-1950.0
  0
LINE
  5
616
  8
PLANTABAIXA
 62
     0
 10
7407.587971191406
 20
1315.641271003196
 30
-1950.0
 11
7507.587971191406
 21
1315.641271003196
 31
-1950.0
  0
LINE
  5
617
  8
PLANTABAIXA
 62
     0
 10
13346.55593753644
 20
2830.156576636715
 30
-1950.0
 11
13246.55593753644
 21
2830.156576636715
 31
-1950.0
  0
LINE
  5
618
  8
PLANTABAIXA
 62
     0
 10
13246.55593753644
 20
1840.156576636715
 30
-1950.0
 11
13246.55593753644
 21
2830.156576636715
 31
-1950.0
  0
LINE
  5
619
  8
PLANTABAIXA
 62
     0
 10
13346.55593753644
 20
1840.156576636715
 30
-1950.0
 11
13346.55593753644
 21
2830.156576636715
 31
-1950.0
  0
LINE
  5
61A
  8
PLANTABAIXA
 62
     0
 10
13246.55593753644
 20
1840.156576636715
 30
-1950.0
 11
13346.55593753644
 21
1840.156576636715
 31
-1950.0
  0
LINE
  5
61B
  8
PLANTABAIXA
 62
     0
 10
13655.6524398657
 20
81.19855309685857
 30
-1950.0
 11
13655.6524398657
 21
461.1985530968586
 31
-1950.0
  0
LINE
  5
61C
  8
PLANTABAIXA
 62
     0
 10
13755.6524398657
 20
81.19855309685857
 30
-1950.0
 11
13755.6524398657
 21
461.1985530968586
 31
-1950.0
  0
LINE
  5
61D
  8
PLANTABAIXA
 62
     0
 10
13755.6524398657
 20
461.1985530968586
 30
-1950.0
 11
13655.6524398657
 21
461.1985530968586
 31
-1950.0
  0
LINE
  5
61E
  8
PLANTABAIXA
 62
     0
 10
13655.6524398657
 20
81.19855309685863
 30
-1950.0
 11
13755.6524398657
 21
81.19855309685863
 31
-1950.0
  0
LINE
  5
61F
  8
PLANTABAIXA
 62
     0
 10
8001.461301112467
 20
-2520.054639505275
 30
-1950.0
 11
8971.461301112467
 21
-2520.054639505275
 31
-1950.0
  0
LINE
  5
620
  8
PLANTABAIXA
 62
     0
 10
8001.461301112467
 20
-2520.054639505275
 30
-1950.0
 11
8001.461301112467
 21
-2620.054639505275
 31
-1950.0
  0
LINE
  5
621
  8
PLANTABAIXA
 62
     0
 10
8971.461301112467
 20
-2620.054639505275
 30
-1950.0
 11
8971.461301112467
 21
-2520.054639505275
 31
-1950.0
  0
LINE
  5
622
  8
PLANTABAIXA
 62
     0
 10
8001.461301112467
 20
-2620.054639505275
 30
-1950.0
 11
8971.461301112467
 21
-2620.054639505275
 31
-1950.0
  0
LINE
  5
623
  8
PLANTABAIXA
 62
     0
 10
10627.55986450195
 20
1539.221349128196
 30
-1950.0
 11
10627.55986450195
 21
1059.221349128196
 31
-1950.0
  0
LINE
  5
624
  8
PLANTABAIXA
 62
     0
 10
11378.04550795267
 20
-3726.772363525651
 30
-1950.0
 11
12368.04550795267
 21
-3726.772363525651
 31
-1950.0
  0
LINE
  5
625
  8
PLANTABAIXA
 62
     0
 10
11378.04550795267
 20
-3726.772363525651
 30
-1950.0
 11
11378.04550795267
 21
-3826.772363525651
 31
-1950.0
  0
LINE
  5
626
  8
PLANTABAIXA
 62
     0
 10
12368.04550795267
 20
-3826.772363525651
 30
-1950.0
 11
12368.04550795267
 21
-3726.772363525651
 31
-1950.0
  0
LINE
  5
627
  8
PLANTABAIXA
 62
     0
 10
11378.04550795267
 20
-3826.772363525651
 30
-1950.0
 11
12368.04550795267
 21
-3826.772363525651
 31
-1950.0
  0
LINE
  5
628
  8
PLANTABAIXA
 62
     0
 10
9561.2607421875
 20
-1950.68310546875
 30
0.0
 11
9561.2607421875
 21
-2430.68310546875
 31
0.0
  0
ARC
  5
629
  8
PLANTABAIXA
 62
     0
 10
9561.2607421875
 20
-2530.68310546875
 30
0.0
 40
580.0000000000001
 50
9.928191842286513
 51
90.0
  0
VIEWPORT
  5
711
 67
     1
  8
0
 10
5.25
 20
4.0
 30
0.0
 40
11.638
 41
8.993
 68
     1
 69
     1
1001
ACAD
1000
MVIEW
1002
{
1070
    16
1010
0.0
1020
0.0
1030
0.0
1010
0.0
1020
0.0
1030
1.0
1040
0.0
1040
8.993
1040
5.25
1040
4.0
1040
50.0
1040
0.0
1040
0.0
1070
     0
1070
   100
1070
     0
1070
     3
1070
     0
1070
     0
1070
     0
1070
     0
1040
0.0
1040
0.0
1040
0.0
1040
0.5
1040
0.5
1040
0.5
1040
0.5
1070
     0
1002
{
1002
}
1002
}
  0
ENDSEC
  0
EOF
